G04 #@! TF.GenerationSoftware,KiCad,Pcbnew,(5.1.5)-3*
G04 #@! TF.CreationDate,2020-05-13T21:32:38+01:00*
G04 #@! TF.ProjectId,Ringo_panel,52696e67-6f5f-4706-916e-656c2e6b6963,rev?*
G04 #@! TF.SameCoordinates,Original*
G04 #@! TF.FileFunction,Soldermask,Bot*
G04 #@! TF.FilePolarity,Negative*
%FSLAX46Y46*%
G04 Gerber Fmt 4.6, Leading zero omitted, Abs format (unit mm)*
G04 Created by KiCad (PCBNEW (5.1.5)-3) date 2020-05-13 21:32:38*
%MOMM*%
%LPD*%
G04 APERTURE LIST*
%ADD10C,0.400000*%
%ADD11C,0.300000*%
%ADD12C,6.000000*%
%ADD13C,0.150000*%
%ADD14C,0.010000*%
%ADD15C,0.100000*%
G04 APERTURE END LIST*
D10*
X140996977Y-54597938D02*
G75*
G02X150000000Y-54600000I4503023J6597938D01*
G01*
D11*
X144802857Y-129778095D02*
X144802857Y-131301904D01*
X146231428Y-131301904D02*
X146231428Y-129778095D01*
X144017142Y-116430000D02*
X147017142Y-118430000D01*
X144017142Y-118430000D02*
X147017142Y-116430000D01*
D12*
X148680880Y-138530000D02*
G75*
G03X148680880Y-138530000I-3180440J0D01*
G01*
D13*
X151780952Y-36052380D02*
X151780952Y-35052380D01*
X151447619Y-35766666D01*
X151114285Y-35052380D01*
X151114285Y-36052380D01*
X150495238Y-36052380D02*
X150590476Y-36004761D01*
X150638095Y-35957142D01*
X150685714Y-35861904D01*
X150685714Y-35576190D01*
X150638095Y-35480952D01*
X150590476Y-35433333D01*
X150495238Y-35385714D01*
X150352380Y-35385714D01*
X150257142Y-35433333D01*
X150209523Y-35480952D01*
X150161904Y-35576190D01*
X150161904Y-35861904D01*
X150209523Y-35957142D01*
X150257142Y-36004761D01*
X150352380Y-36052380D01*
X150495238Y-36052380D01*
X149304761Y-35385714D02*
X149304761Y-36052380D01*
X149733333Y-35385714D02*
X149733333Y-35909523D01*
X149685714Y-36004761D01*
X149590476Y-36052380D01*
X149447619Y-36052380D01*
X149352380Y-36004761D01*
X149304761Y-35957142D01*
X148828571Y-35385714D02*
X148828571Y-36052380D01*
X148828571Y-35480952D02*
X148780952Y-35433333D01*
X148685714Y-35385714D01*
X148542857Y-35385714D01*
X148447619Y-35433333D01*
X148400000Y-35528571D01*
X148400000Y-36052380D01*
X148066666Y-35385714D02*
X147685714Y-35385714D01*
X147923809Y-35052380D02*
X147923809Y-35909523D01*
X147876190Y-36004761D01*
X147780952Y-36052380D01*
X147685714Y-36052380D01*
X147352380Y-35385714D02*
X147352380Y-36242857D01*
X147400000Y-36338095D01*
X147495238Y-36385714D01*
X147542857Y-36385714D01*
X147352380Y-35052380D02*
X147400000Y-35100000D01*
X147352380Y-35147619D01*
X147304761Y-35100000D01*
X147352380Y-35052380D01*
X147352380Y-35147619D01*
X146733333Y-36052380D02*
X146828571Y-36004761D01*
X146876190Y-35957142D01*
X146923809Y-35861904D01*
X146923809Y-35576190D01*
X146876190Y-35480952D01*
X146828571Y-35433333D01*
X146733333Y-35385714D01*
X146590476Y-35385714D01*
X146495238Y-35433333D01*
X146447619Y-35480952D01*
X146400000Y-35576190D01*
X146400000Y-35861904D01*
X146447619Y-35957142D01*
X146495238Y-36004761D01*
X146590476Y-36052380D01*
X146733333Y-36052380D01*
X146066666Y-35385714D02*
X145828571Y-36052380D01*
X145590476Y-35385714D02*
X145828571Y-36052380D01*
X145923809Y-36290476D01*
X145971428Y-36338095D01*
X146066666Y-36385714D01*
X144447619Y-36052380D02*
X144447619Y-35052380D01*
X144114285Y-35766666D01*
X143780952Y-35052380D01*
X143780952Y-36052380D01*
X143161904Y-36052380D02*
X143257142Y-36004761D01*
X143304761Y-35957142D01*
X143352380Y-35861904D01*
X143352380Y-35576190D01*
X143304761Y-35480952D01*
X143257142Y-35433333D01*
X143161904Y-35385714D01*
X143019047Y-35385714D01*
X142923809Y-35433333D01*
X142876190Y-35480952D01*
X142828571Y-35576190D01*
X142828571Y-35861904D01*
X142876190Y-35957142D01*
X142923809Y-36004761D01*
X143019047Y-36052380D01*
X143161904Y-36052380D01*
X141971428Y-36052380D02*
X141971428Y-35052380D01*
X141971428Y-36004761D02*
X142066666Y-36052380D01*
X142257142Y-36052380D01*
X142352380Y-36004761D01*
X142400000Y-35957142D01*
X142447619Y-35861904D01*
X142447619Y-35576190D01*
X142400000Y-35480952D01*
X142352380Y-35433333D01*
X142257142Y-35385714D01*
X142066666Y-35385714D01*
X141971428Y-35433333D01*
X141066666Y-35385714D02*
X141066666Y-36052380D01*
X141495238Y-35385714D02*
X141495238Y-35909523D01*
X141447619Y-36004761D01*
X141352380Y-36052380D01*
X141209523Y-36052380D01*
X141114285Y-36004761D01*
X141066666Y-35957142D01*
X140447619Y-36052380D02*
X140542857Y-36004761D01*
X140590476Y-35909523D01*
X140590476Y-35052380D01*
X139638095Y-36052380D02*
X139638095Y-35528571D01*
X139685714Y-35433333D01*
X139780952Y-35385714D01*
X139971428Y-35385714D01*
X140066666Y-35433333D01*
X139638095Y-36004761D02*
X139733333Y-36052380D01*
X139971428Y-36052380D01*
X140066666Y-36004761D01*
X140114285Y-35909523D01*
X140114285Y-35814285D01*
X140066666Y-35719047D01*
X139971428Y-35671428D01*
X139733333Y-35671428D01*
X139638095Y-35623809D01*
X139161904Y-36052380D02*
X139161904Y-35385714D01*
X139161904Y-35576190D02*
X139114285Y-35480952D01*
X139066666Y-35433333D01*
X138971428Y-35385714D01*
X138876190Y-35385714D01*
D14*
G36*
X145013022Y-65795026D02*
G01*
X144466984Y-65876233D01*
X144059938Y-66033815D01*
X143735962Y-66285967D01*
X143562214Y-66485089D01*
X143338381Y-66956377D01*
X143297897Y-67501825D01*
X143427715Y-68038709D01*
X143714789Y-68484306D01*
X143902049Y-68639803D01*
X144213949Y-68844168D01*
X143754754Y-69314427D01*
X143295559Y-69784685D01*
X143855145Y-70056554D01*
X144196983Y-70212481D01*
X144394090Y-70256007D01*
X144526374Y-70193272D01*
X144601971Y-70113961D01*
X144795242Y-69847666D01*
X144990520Y-69518500D01*
X145191831Y-69137500D01*
X145196916Y-69613750D01*
X145202000Y-70090000D01*
X145961581Y-70090000D01*
X146258418Y-70091665D01*
X146478362Y-70074535D01*
X146634099Y-70005416D01*
X146738314Y-69851117D01*
X146803690Y-69578446D01*
X146842913Y-69154211D01*
X146868668Y-68545220D01*
X146885031Y-68003332D01*
X145202000Y-68003332D01*
X145181539Y-68303657D01*
X145089636Y-68417401D01*
X144916250Y-68416082D01*
X144661850Y-68273525D01*
X144587639Y-68072362D01*
X144646498Y-67751756D01*
X144895887Y-67572008D01*
X145043250Y-67551944D01*
X145157087Y-67666492D01*
X145201876Y-67981651D01*
X145202000Y-68003332D01*
X146885031Y-68003332D01*
X146893639Y-67718281D01*
X146895874Y-67645250D01*
X146953556Y-65772000D01*
X145753971Y-65772000D01*
X145013022Y-65795026D01*
G37*
X145013022Y-65795026D02*
X144466984Y-65876233D01*
X144059938Y-66033815D01*
X143735962Y-66285967D01*
X143562214Y-66485089D01*
X143338381Y-66956377D01*
X143297897Y-67501825D01*
X143427715Y-68038709D01*
X143714789Y-68484306D01*
X143902049Y-68639803D01*
X144213949Y-68844168D01*
X143754754Y-69314427D01*
X143295559Y-69784685D01*
X143855145Y-70056554D01*
X144196983Y-70212481D01*
X144394090Y-70256007D01*
X144526374Y-70193272D01*
X144601971Y-70113961D01*
X144795242Y-69847666D01*
X144990520Y-69518500D01*
X145191831Y-69137500D01*
X145196916Y-69613750D01*
X145202000Y-70090000D01*
X145961581Y-70090000D01*
X146258418Y-70091665D01*
X146478362Y-70074535D01*
X146634099Y-70005416D01*
X146738314Y-69851117D01*
X146803690Y-69578446D01*
X146842913Y-69154211D01*
X146868668Y-68545220D01*
X146885031Y-68003332D01*
X145202000Y-68003332D01*
X145181539Y-68303657D01*
X145089636Y-68417401D01*
X144916250Y-68416082D01*
X144661850Y-68273525D01*
X144587639Y-68072362D01*
X144646498Y-67751756D01*
X144895887Y-67572008D01*
X145043250Y-67551944D01*
X145157087Y-67666492D01*
X145201876Y-67981651D01*
X145202000Y-68003332D01*
X146885031Y-68003332D01*
X146893639Y-67718281D01*
X146895874Y-67645250D01*
X146953556Y-65772000D01*
X145753971Y-65772000D01*
X145013022Y-65795026D01*
G36*
X144356689Y-72090250D02*
G01*
X144394500Y-72764081D01*
X144423264Y-73472155D01*
X144438239Y-74090567D01*
X144439343Y-74249250D01*
X144440000Y-75170000D01*
X145199581Y-75170000D01*
X145626684Y-75160474D01*
X145864059Y-75116980D01*
X145975713Y-75017143D01*
X146017011Y-74884250D01*
X146042104Y-74658785D01*
X146071784Y-74233135D01*
X146102925Y-73660996D01*
X146132401Y-72996064D01*
X146142695Y-72725250D01*
X146210530Y-70852000D01*
X145242611Y-70852000D01*
X144274691Y-70851999D01*
X144356689Y-72090250D01*
G37*
X144356689Y-72090250D02*
X144394500Y-72764081D01*
X144423264Y-73472155D01*
X144438239Y-74090567D01*
X144439343Y-74249250D01*
X144440000Y-75170000D01*
X145199581Y-75170000D01*
X145626684Y-75160474D01*
X145864059Y-75116980D01*
X145975713Y-75017143D01*
X146017011Y-74884250D01*
X146042104Y-74658785D01*
X146071784Y-74233135D01*
X146102925Y-73660996D01*
X146132401Y-72996064D01*
X146142695Y-72725250D01*
X146210530Y-70852000D01*
X145242611Y-70852000D01*
X144274691Y-70851999D01*
X144356689Y-72090250D01*
G36*
X145793429Y-75953813D02*
G01*
X145488699Y-76050764D01*
X145180991Y-76270121D01*
X145026893Y-76406057D01*
X144503500Y-76880114D01*
X144464084Y-76406057D01*
X144421360Y-76097739D01*
X144308990Y-75964255D01*
X144045892Y-75932573D01*
X143937752Y-75932000D01*
X143450836Y-75932000D01*
X143506163Y-77551250D01*
X143532873Y-78223413D01*
X143564628Y-78854506D01*
X143597439Y-79373434D01*
X143627145Y-79707702D01*
X143692800Y-80244904D01*
X144617456Y-79548952D01*
X145033409Y-79242381D01*
X145372294Y-79004729D01*
X145584061Y-78870530D01*
X145626056Y-78853000D01*
X145672036Y-78967877D01*
X145702527Y-79264203D01*
X145710000Y-79551500D01*
X145710000Y-80250000D01*
X146577329Y-80250000D01*
X146648873Y-79329250D01*
X146690653Y-78765257D01*
X146739094Y-78071874D01*
X146785588Y-77373249D01*
X146798561Y-77170250D01*
X146876705Y-75932000D01*
X146213495Y-75932000D01*
X145793429Y-75953813D01*
G37*
X145793429Y-75953813D02*
X145488699Y-76050764D01*
X145180991Y-76270121D01*
X145026893Y-76406057D01*
X144503500Y-76880114D01*
X144464084Y-76406057D01*
X144421360Y-76097739D01*
X144308990Y-75964255D01*
X144045892Y-75932573D01*
X143937752Y-75932000D01*
X143450836Y-75932000D01*
X143506163Y-77551250D01*
X143532873Y-78223413D01*
X143564628Y-78854506D01*
X143597439Y-79373434D01*
X143627145Y-79707702D01*
X143692800Y-80244904D01*
X144617456Y-79548952D01*
X145033409Y-79242381D01*
X145372294Y-79004729D01*
X145584061Y-78870530D01*
X145626056Y-78853000D01*
X145672036Y-78967877D01*
X145702527Y-79264203D01*
X145710000Y-79551500D01*
X145710000Y-80250000D01*
X146577329Y-80250000D01*
X146648873Y-79329250D01*
X146690653Y-78765257D01*
X146739094Y-78071874D01*
X146785588Y-77373249D01*
X146798561Y-77170250D01*
X146876705Y-75932000D01*
X146213495Y-75932000D01*
X145793429Y-75953813D01*
G36*
X144126761Y-81027723D02*
G01*
X143867158Y-81108442D01*
X143733473Y-81304478D01*
X143684309Y-81666155D01*
X143678000Y-82076487D01*
X143678000Y-82739200D01*
X144106027Y-82739200D01*
X144512688Y-82804061D01*
X144856991Y-82950796D01*
X145154526Y-83268368D01*
X145279899Y-83666750D01*
X145236658Y-84070829D01*
X145028354Y-84405493D01*
X144780948Y-84560252D01*
X144498296Y-84621969D01*
X144363590Y-84513673D01*
X144355327Y-84207925D01*
X144378702Y-84046966D01*
X144462327Y-83552000D01*
X143306557Y-83552000D01*
X143383006Y-84409250D01*
X143425838Y-84845406D01*
X143464872Y-85167337D01*
X143491711Y-85305860D01*
X143491857Y-85306046D01*
X143650063Y-85353588D01*
X143979384Y-85384858D01*
X144397352Y-85398172D01*
X144821501Y-85391848D01*
X145169365Y-85364202D01*
X145285790Y-85342669D01*
X145965570Y-85069908D01*
X146500697Y-84654815D01*
X146751030Y-84314000D01*
X146913657Y-83825477D01*
X146964581Y-83227250D01*
X146908102Y-82619730D01*
X146748519Y-82103333D01*
X146649134Y-81934117D01*
X146191423Y-81502052D01*
X145567665Y-81189144D01*
X144850356Y-81027296D01*
X144553678Y-81012000D01*
X144126761Y-81027723D01*
G37*
X144126761Y-81027723D02*
X143867158Y-81108442D01*
X143733473Y-81304478D01*
X143684309Y-81666155D01*
X143678000Y-82076487D01*
X143678000Y-82739200D01*
X144106027Y-82739200D01*
X144512688Y-82804061D01*
X144856991Y-82950796D01*
X145154526Y-83268368D01*
X145279899Y-83666750D01*
X145236658Y-84070829D01*
X145028354Y-84405493D01*
X144780948Y-84560252D01*
X144498296Y-84621969D01*
X144363590Y-84513673D01*
X144355327Y-84207925D01*
X144378702Y-84046966D01*
X144462327Y-83552000D01*
X143306557Y-83552000D01*
X143383006Y-84409250D01*
X143425838Y-84845406D01*
X143464872Y-85167337D01*
X143491711Y-85305860D01*
X143491857Y-85306046D01*
X143650063Y-85353588D01*
X143979384Y-85384858D01*
X144397352Y-85398172D01*
X144821501Y-85391848D01*
X145169365Y-85364202D01*
X145285790Y-85342669D01*
X145965570Y-85069908D01*
X146500697Y-84654815D01*
X146751030Y-84314000D01*
X146913657Y-83825477D01*
X146964581Y-83227250D01*
X146908102Y-82619730D01*
X146748519Y-82103333D01*
X146649134Y-81934117D01*
X146191423Y-81502052D01*
X145567665Y-81189144D01*
X144850356Y-81027296D01*
X144553678Y-81012000D01*
X144126761Y-81027723D01*
G36*
X144953784Y-86016662D02*
G01*
X144389192Y-86212240D01*
X143908314Y-86604385D01*
X143847294Y-86680014D01*
X143549408Y-87265527D01*
X143428446Y-87956338D01*
X143477588Y-88682369D01*
X143690019Y-89373548D01*
X144058919Y-89959797D01*
X144178602Y-90085411D01*
X144604216Y-90352575D01*
X145134549Y-90495643D01*
X145657919Y-90492791D01*
X145900500Y-90421933D01*
X146252420Y-90180384D01*
X146614294Y-89802621D01*
X146898127Y-89386782D01*
X146971921Y-89226982D01*
X147074067Y-88754559D01*
X147079995Y-88625363D01*
X145705489Y-88625363D01*
X145665911Y-89027801D01*
X145578532Y-89275349D01*
X145369677Y-89491089D01*
X145123745Y-89464246D01*
X144873189Y-89204060D01*
X144734525Y-88848392D01*
X144736839Y-88485584D01*
X144850840Y-88169605D01*
X145047235Y-87954421D01*
X145296733Y-87894000D01*
X145525595Y-88002057D01*
X145657213Y-88247261D01*
X145705489Y-88625363D01*
X147079995Y-88625363D01*
X147101358Y-88159829D01*
X147056010Y-87562510D01*
X146940233Y-87082320D01*
X146931890Y-87061744D01*
X146591142Y-86540193D01*
X146110628Y-86187553D01*
X145546219Y-86010738D01*
X144953784Y-86016662D01*
G37*
X144953784Y-86016662D02*
X144389192Y-86212240D01*
X143908314Y-86604385D01*
X143847294Y-86680014D01*
X143549408Y-87265527D01*
X143428446Y-87956338D01*
X143477588Y-88682369D01*
X143690019Y-89373548D01*
X144058919Y-89959797D01*
X144178602Y-90085411D01*
X144604216Y-90352575D01*
X145134549Y-90495643D01*
X145657919Y-90492791D01*
X145900500Y-90421933D01*
X146252420Y-90180384D01*
X146614294Y-89802621D01*
X146898127Y-89386782D01*
X146971921Y-89226982D01*
X147074067Y-88754559D01*
X147079995Y-88625363D01*
X145705489Y-88625363D01*
X145665911Y-89027801D01*
X145578532Y-89275349D01*
X145369677Y-89491089D01*
X145123745Y-89464246D01*
X144873189Y-89204060D01*
X144734525Y-88848392D01*
X144736839Y-88485584D01*
X144850840Y-88169605D01*
X145047235Y-87954421D01*
X145296733Y-87894000D01*
X145525595Y-88002057D01*
X145657213Y-88247261D01*
X145705489Y-88625363D01*
X147079995Y-88625363D01*
X147101358Y-88159829D01*
X147056010Y-87562510D01*
X146940233Y-87082320D01*
X146931890Y-87061744D01*
X146591142Y-86540193D01*
X146110628Y-86187553D01*
X145546219Y-86010738D01*
X144953784Y-86016662D01*
D15*
G36*
X143973651Y-151122888D02*
G01*
X144284870Y-151217296D01*
X144571680Y-151370599D01*
X144571683Y-151370601D01*
X144571684Y-151370602D01*
X144823082Y-151576918D01*
X145029398Y-151828316D01*
X145029401Y-151828320D01*
X145182704Y-152115130D01*
X145277112Y-152426349D01*
X145308988Y-152750000D01*
X145277112Y-153073651D01*
X145182704Y-153384870D01*
X145029401Y-153671680D01*
X145029399Y-153671683D01*
X145029398Y-153671684D01*
X144823082Y-153923082D01*
X144571684Y-154129398D01*
X144571680Y-154129401D01*
X144284870Y-154282704D01*
X143973651Y-154377112D01*
X143731107Y-154401000D01*
X141768893Y-154401000D01*
X141526349Y-154377112D01*
X141215130Y-154282704D01*
X140928320Y-154129401D01*
X140928316Y-154129398D01*
X140676918Y-153923082D01*
X140470602Y-153671684D01*
X140470601Y-153671683D01*
X140470599Y-153671680D01*
X140317296Y-153384870D01*
X140222888Y-153073651D01*
X140191012Y-152750000D01*
X140222888Y-152426349D01*
X140317296Y-152115130D01*
X140470599Y-151828320D01*
X140470602Y-151828316D01*
X140676918Y-151576918D01*
X140928316Y-151370602D01*
X140928317Y-151370601D01*
X140928320Y-151370599D01*
X141215130Y-151217296D01*
X141526349Y-151122888D01*
X141768893Y-151099000D01*
X143731107Y-151099000D01*
X143973651Y-151122888D01*
G37*
G36*
X146104975Y-135468585D02*
G01*
X146404528Y-135528170D01*
X146968874Y-135761930D01*
X147476772Y-136101296D01*
X147908704Y-136533228D01*
X148248070Y-137041126D01*
X148481830Y-137605472D01*
X148601000Y-138204578D01*
X148601000Y-138815422D01*
X148481830Y-139414528D01*
X148248070Y-139978874D01*
X147908704Y-140486772D01*
X147476772Y-140918704D01*
X146968874Y-141258070D01*
X146404528Y-141491830D01*
X146104975Y-141551415D01*
X145805423Y-141611000D01*
X145194577Y-141611000D01*
X144895025Y-141551415D01*
X144595472Y-141491830D01*
X144031126Y-141258070D01*
X143523228Y-140918704D01*
X143091296Y-140486772D01*
X142751930Y-139978874D01*
X142518170Y-139414528D01*
X142399000Y-138815422D01*
X142399000Y-138204578D01*
X142518170Y-137605472D01*
X142751930Y-137041126D01*
X143091296Y-136533228D01*
X143523228Y-136101296D01*
X144031126Y-135761930D01*
X144595472Y-135528170D01*
X144895025Y-135468585D01*
X145194577Y-135409000D01*
X145805423Y-135409000D01*
X146104975Y-135468585D01*
G37*
G36*
X146094975Y-121348585D02*
G01*
X146394528Y-121408170D01*
X146958874Y-121641930D01*
X147466772Y-121981296D01*
X147898704Y-122413228D01*
X148238070Y-122921126D01*
X148471830Y-123485472D01*
X148591000Y-124084578D01*
X148591000Y-124695422D01*
X148471830Y-125294528D01*
X148238070Y-125858874D01*
X147898704Y-126366772D01*
X147466772Y-126798704D01*
X146958874Y-127138070D01*
X146394528Y-127371830D01*
X146094975Y-127431415D01*
X145795423Y-127491000D01*
X145184577Y-127491000D01*
X144885025Y-127431415D01*
X144585472Y-127371830D01*
X144021126Y-127138070D01*
X143513228Y-126798704D01*
X143081296Y-126366772D01*
X142741930Y-125858874D01*
X142508170Y-125294528D01*
X142389000Y-124695422D01*
X142389000Y-124084578D01*
X142508170Y-123485472D01*
X142741930Y-122921126D01*
X143081296Y-122413228D01*
X143513228Y-121981296D01*
X144021126Y-121641930D01*
X144585472Y-121408170D01*
X144885025Y-121348585D01*
X145184577Y-121289000D01*
X145795423Y-121289000D01*
X146094975Y-121348585D01*
G37*
G36*
X146094975Y-107438585D02*
G01*
X146394528Y-107498170D01*
X146958874Y-107731930D01*
X147466772Y-108071296D01*
X147898704Y-108503228D01*
X148238070Y-109011126D01*
X148471830Y-109575472D01*
X148591000Y-110174578D01*
X148591000Y-110785422D01*
X148471830Y-111384528D01*
X148238070Y-111948874D01*
X147898704Y-112456772D01*
X147466772Y-112888704D01*
X146958874Y-113228070D01*
X146394528Y-113461830D01*
X146094975Y-113521415D01*
X145795423Y-113581000D01*
X145184577Y-113581000D01*
X144885025Y-113521415D01*
X144585472Y-113461830D01*
X144021126Y-113228070D01*
X143513228Y-112888704D01*
X143081296Y-112456772D01*
X142741930Y-111948874D01*
X142508170Y-111384528D01*
X142389000Y-110785422D01*
X142389000Y-110174578D01*
X142508170Y-109575472D01*
X142741930Y-109011126D01*
X143081296Y-108503228D01*
X143513228Y-108071296D01*
X144021126Y-107731930D01*
X144585472Y-107498170D01*
X144885025Y-107438585D01*
X145184577Y-107379000D01*
X145795423Y-107379000D01*
X146094975Y-107438585D01*
G37*
G36*
X146535787Y-44585462D02*
G01*
X146535790Y-44585463D01*
X146535789Y-44585463D01*
X147182029Y-44853144D01*
X147763631Y-45241758D01*
X148258242Y-45736369D01*
X148646856Y-46317971D01*
X148646856Y-46317972D01*
X148914538Y-46964213D01*
X149051000Y-47650256D01*
X149051000Y-48349744D01*
X148914538Y-49035787D01*
X148914537Y-49035789D01*
X148646856Y-49682029D01*
X148258242Y-50263631D01*
X147763631Y-50758242D01*
X147182029Y-51146856D01*
X146725068Y-51336135D01*
X146535787Y-51414538D01*
X145849744Y-51551000D01*
X145150256Y-51551000D01*
X144464213Y-51414538D01*
X144274932Y-51336135D01*
X143817971Y-51146856D01*
X143236369Y-50758242D01*
X142741758Y-50263631D01*
X142353144Y-49682029D01*
X142085463Y-49035789D01*
X142085462Y-49035787D01*
X141949000Y-48349744D01*
X141949000Y-47650256D01*
X142085462Y-46964213D01*
X142353144Y-46317972D01*
X142353144Y-46317971D01*
X142741758Y-45736369D01*
X143236369Y-45241758D01*
X143817971Y-44853144D01*
X144464211Y-44585463D01*
X144464210Y-44585463D01*
X144464213Y-44585462D01*
X145150256Y-44449000D01*
X145849744Y-44449000D01*
X146535787Y-44585462D01*
G37*
G36*
X149523651Y-28422888D02*
G01*
X149834870Y-28517296D01*
X150121680Y-28670599D01*
X150121683Y-28670601D01*
X150121684Y-28670602D01*
X150373082Y-28876918D01*
X150579398Y-29128316D01*
X150579401Y-29128320D01*
X150732704Y-29415130D01*
X150827112Y-29726349D01*
X150858988Y-30050000D01*
X150827112Y-30373651D01*
X150732704Y-30684870D01*
X150579401Y-30971680D01*
X150579399Y-30971683D01*
X150579398Y-30971684D01*
X150373082Y-31223082D01*
X150121684Y-31429398D01*
X150121680Y-31429401D01*
X149834870Y-31582704D01*
X149523651Y-31677112D01*
X149281107Y-31701000D01*
X147318893Y-31701000D01*
X147076349Y-31677112D01*
X146765130Y-31582704D01*
X146478320Y-31429401D01*
X146478316Y-31429398D01*
X146226918Y-31223082D01*
X146020602Y-30971684D01*
X146020601Y-30971683D01*
X146020599Y-30971680D01*
X145867296Y-30684870D01*
X145772888Y-30373651D01*
X145741012Y-30050000D01*
X145772888Y-29726349D01*
X145867296Y-29415130D01*
X146020599Y-29128320D01*
X146020602Y-29128316D01*
X146226918Y-28876918D01*
X146478316Y-28670602D01*
X146478317Y-28670601D01*
X146478320Y-28670599D01*
X146765130Y-28517296D01*
X147076349Y-28422888D01*
X147318893Y-28399000D01*
X149281107Y-28399000D01*
X149523651Y-28422888D01*
G37*
M02*
