G04 #@! TF.GenerationSoftware,KiCad,Pcbnew,(5.1.5)-3*
G04 #@! TF.CreationDate,2020-05-13T21:32:38+01:00*
G04 #@! TF.ProjectId,Ringo_panel,52696e67-6f5f-4706-916e-656c2e6b6963,rev?*
G04 #@! TF.SameCoordinates,Original*
G04 #@! TF.FileFunction,Soldermask,Top*
G04 #@! TF.FilePolarity,Negative*
%FSLAX46Y46*%
G04 Gerber Fmt 4.6, Leading zero omitted, Abs format (unit mm)*
G04 Created by KiCad (PCBNEW (5.1.5)-3) date 2020-05-13 21:32:38*
%MOMM*%
%LPD*%
G04 APERTURE LIST*
%ADD10C,0.100000*%
G04 APERTURE END LIST*
D10*
G36*
X143973651Y-151122888D02*
G01*
X144284870Y-151217296D01*
X144571680Y-151370599D01*
X144571683Y-151370601D01*
X144571684Y-151370602D01*
X144823082Y-151576918D01*
X145029398Y-151828316D01*
X145029401Y-151828320D01*
X145182704Y-152115130D01*
X145277112Y-152426349D01*
X145308988Y-152750000D01*
X145277112Y-153073651D01*
X145182704Y-153384870D01*
X145029401Y-153671680D01*
X145029399Y-153671683D01*
X145029398Y-153671684D01*
X144823082Y-153923082D01*
X144571684Y-154129398D01*
X144571680Y-154129401D01*
X144284870Y-154282704D01*
X143973651Y-154377112D01*
X143731107Y-154401000D01*
X141768893Y-154401000D01*
X141526349Y-154377112D01*
X141215130Y-154282704D01*
X140928320Y-154129401D01*
X140928316Y-154129398D01*
X140676918Y-153923082D01*
X140470602Y-153671684D01*
X140470601Y-153671683D01*
X140470599Y-153671680D01*
X140317296Y-153384870D01*
X140222888Y-153073651D01*
X140191012Y-152750000D01*
X140222888Y-152426349D01*
X140317296Y-152115130D01*
X140470599Y-151828320D01*
X140470602Y-151828316D01*
X140676918Y-151576918D01*
X140928316Y-151370602D01*
X140928317Y-151370601D01*
X140928320Y-151370599D01*
X141215130Y-151217296D01*
X141526349Y-151122888D01*
X141768893Y-151099000D01*
X143731107Y-151099000D01*
X143973651Y-151122888D01*
G37*
G36*
X146104975Y-135468585D02*
G01*
X146404528Y-135528170D01*
X146968874Y-135761930D01*
X147476772Y-136101296D01*
X147908704Y-136533228D01*
X148248070Y-137041126D01*
X148481830Y-137605472D01*
X148601000Y-138204578D01*
X148601000Y-138815422D01*
X148481830Y-139414528D01*
X148248070Y-139978874D01*
X147908704Y-140486772D01*
X147476772Y-140918704D01*
X146968874Y-141258070D01*
X146404528Y-141491830D01*
X146104975Y-141551415D01*
X145805423Y-141611000D01*
X145194577Y-141611000D01*
X144895025Y-141551415D01*
X144595472Y-141491830D01*
X144031126Y-141258070D01*
X143523228Y-140918704D01*
X143091296Y-140486772D01*
X142751930Y-139978874D01*
X142518170Y-139414528D01*
X142399000Y-138815422D01*
X142399000Y-138204578D01*
X142518170Y-137605472D01*
X142751930Y-137041126D01*
X143091296Y-136533228D01*
X143523228Y-136101296D01*
X144031126Y-135761930D01*
X144595472Y-135528170D01*
X144895025Y-135468585D01*
X145194577Y-135409000D01*
X145805423Y-135409000D01*
X146104975Y-135468585D01*
G37*
G36*
X146094975Y-121348585D02*
G01*
X146394528Y-121408170D01*
X146958874Y-121641930D01*
X147466772Y-121981296D01*
X147898704Y-122413228D01*
X148238070Y-122921126D01*
X148471830Y-123485472D01*
X148591000Y-124084578D01*
X148591000Y-124695422D01*
X148471830Y-125294528D01*
X148238070Y-125858874D01*
X147898704Y-126366772D01*
X147466772Y-126798704D01*
X146958874Y-127138070D01*
X146394528Y-127371830D01*
X146094975Y-127431415D01*
X145795423Y-127491000D01*
X145184577Y-127491000D01*
X144885025Y-127431415D01*
X144585472Y-127371830D01*
X144021126Y-127138070D01*
X143513228Y-126798704D01*
X143081296Y-126366772D01*
X142741930Y-125858874D01*
X142508170Y-125294528D01*
X142389000Y-124695422D01*
X142389000Y-124084578D01*
X142508170Y-123485472D01*
X142741930Y-122921126D01*
X143081296Y-122413228D01*
X143513228Y-121981296D01*
X144021126Y-121641930D01*
X144585472Y-121408170D01*
X144885025Y-121348585D01*
X145184577Y-121289000D01*
X145795423Y-121289000D01*
X146094975Y-121348585D01*
G37*
G36*
X146094975Y-107438585D02*
G01*
X146394528Y-107498170D01*
X146958874Y-107731930D01*
X147466772Y-108071296D01*
X147898704Y-108503228D01*
X148238070Y-109011126D01*
X148471830Y-109575472D01*
X148591000Y-110174578D01*
X148591000Y-110785422D01*
X148471830Y-111384528D01*
X148238070Y-111948874D01*
X147898704Y-112456772D01*
X147466772Y-112888704D01*
X146958874Y-113228070D01*
X146394528Y-113461830D01*
X146094975Y-113521415D01*
X145795423Y-113581000D01*
X145184577Y-113581000D01*
X144885025Y-113521415D01*
X144585472Y-113461830D01*
X144021126Y-113228070D01*
X143513228Y-112888704D01*
X143081296Y-112456772D01*
X142741930Y-111948874D01*
X142508170Y-111384528D01*
X142389000Y-110785422D01*
X142389000Y-110174578D01*
X142508170Y-109575472D01*
X142741930Y-109011126D01*
X143081296Y-108503228D01*
X143513228Y-108071296D01*
X144021126Y-107731930D01*
X144585472Y-107498170D01*
X144885025Y-107438585D01*
X145184577Y-107379000D01*
X145795423Y-107379000D01*
X146094975Y-107438585D01*
G37*
G36*
X146535787Y-44585462D02*
G01*
X146535790Y-44585463D01*
X146535789Y-44585463D01*
X147182029Y-44853144D01*
X147763631Y-45241758D01*
X148258242Y-45736369D01*
X148646856Y-46317971D01*
X148646856Y-46317972D01*
X148914538Y-46964213D01*
X149051000Y-47650256D01*
X149051000Y-48349744D01*
X148914538Y-49035787D01*
X148914537Y-49035789D01*
X148646856Y-49682029D01*
X148258242Y-50263631D01*
X147763631Y-50758242D01*
X147182029Y-51146856D01*
X146725068Y-51336135D01*
X146535787Y-51414538D01*
X145849744Y-51551000D01*
X145150256Y-51551000D01*
X144464213Y-51414538D01*
X144274932Y-51336135D01*
X143817971Y-51146856D01*
X143236369Y-50758242D01*
X142741758Y-50263631D01*
X142353144Y-49682029D01*
X142085463Y-49035789D01*
X142085462Y-49035787D01*
X141949000Y-48349744D01*
X141949000Y-47650256D01*
X142085462Y-46964213D01*
X142353144Y-46317972D01*
X142353144Y-46317971D01*
X142741758Y-45736369D01*
X143236369Y-45241758D01*
X143817971Y-44853144D01*
X144464211Y-44585463D01*
X144464210Y-44585463D01*
X144464213Y-44585462D01*
X145150256Y-44449000D01*
X145849744Y-44449000D01*
X146535787Y-44585462D01*
G37*
G36*
X149523651Y-28422888D02*
G01*
X149834870Y-28517296D01*
X150121680Y-28670599D01*
X150121683Y-28670601D01*
X150121684Y-28670602D01*
X150373082Y-28876918D01*
X150579398Y-29128316D01*
X150579401Y-29128320D01*
X150732704Y-29415130D01*
X150827112Y-29726349D01*
X150858988Y-30050000D01*
X150827112Y-30373651D01*
X150732704Y-30684870D01*
X150579401Y-30971680D01*
X150579399Y-30971683D01*
X150579398Y-30971684D01*
X150373082Y-31223082D01*
X150121684Y-31429398D01*
X150121680Y-31429401D01*
X149834870Y-31582704D01*
X149523651Y-31677112D01*
X149281107Y-31701000D01*
X147318893Y-31701000D01*
X147076349Y-31677112D01*
X146765130Y-31582704D01*
X146478320Y-31429401D01*
X146478316Y-31429398D01*
X146226918Y-31223082D01*
X146020602Y-30971684D01*
X146020601Y-30971683D01*
X146020599Y-30971680D01*
X145867296Y-30684870D01*
X145772888Y-30373651D01*
X145741012Y-30050000D01*
X145772888Y-29726349D01*
X145867296Y-29415130D01*
X146020599Y-29128320D01*
X146020602Y-29128316D01*
X146226918Y-28876918D01*
X146478316Y-28670602D01*
X146478317Y-28670601D01*
X146478320Y-28670599D01*
X146765130Y-28517296D01*
X147076349Y-28422888D01*
X147318893Y-28399000D01*
X149281107Y-28399000D01*
X149523651Y-28422888D01*
G37*
M02*
