G04 #@! TF.GenerationSoftware,KiCad,Pcbnew,(5.1.5)-3*
G04 #@! TF.CreationDate,2020-05-13T21:41:15+01:00*
G04 #@! TF.ProjectId,Ringo,52696e67-6f2e-46b6-9963-61645f706362,rev?*
G04 #@! TF.SameCoordinates,Original*
G04 #@! TF.FileFunction,Legend,Top*
G04 #@! TF.FilePolarity,Positive*
%FSLAX46Y46*%
G04 Gerber Fmt 4.6, Leading zero omitted, Abs format (unit mm)*
G04 Created by KiCad (PCBNEW (5.1.5)-3) date 2020-05-13 21:41:15*
%MOMM*%
%LPD*%
G04 APERTURE LIST*
%ADD10C,0.150000*%
%ADD11C,0.300000*%
%ADD12C,0.120000*%
%ADD13C,0.100000*%
G04 APERTURE END LIST*
D10*
X142161904Y-39427380D02*
X141828571Y-38951190D01*
X141590476Y-39427380D02*
X141590476Y-38427380D01*
X141971428Y-38427380D01*
X142066666Y-38475000D01*
X142114285Y-38522619D01*
X142161904Y-38617857D01*
X142161904Y-38760714D01*
X142114285Y-38855952D01*
X142066666Y-38903571D01*
X141971428Y-38951190D01*
X141590476Y-38951190D01*
X142590476Y-39427380D02*
X142590476Y-38760714D01*
X142590476Y-38427380D02*
X142542857Y-38475000D01*
X142590476Y-38522619D01*
X142638095Y-38475000D01*
X142590476Y-38427380D01*
X142590476Y-38522619D01*
X143066666Y-38760714D02*
X143066666Y-39427380D01*
X143066666Y-38855952D02*
X143114285Y-38808333D01*
X143209523Y-38760714D01*
X143352380Y-38760714D01*
X143447619Y-38808333D01*
X143495238Y-38903571D01*
X143495238Y-39427380D01*
X144400000Y-38760714D02*
X144400000Y-39570238D01*
X144352380Y-39665476D01*
X144304761Y-39713095D01*
X144209523Y-39760714D01*
X144066666Y-39760714D01*
X143971428Y-39713095D01*
X144400000Y-39379761D02*
X144304761Y-39427380D01*
X144114285Y-39427380D01*
X144019047Y-39379761D01*
X143971428Y-39332142D01*
X143923809Y-39236904D01*
X143923809Y-38951190D01*
X143971428Y-38855952D01*
X144019047Y-38808333D01*
X144114285Y-38760714D01*
X144304761Y-38760714D01*
X144400000Y-38808333D01*
X145019047Y-39427380D02*
X144923809Y-39379761D01*
X144876190Y-39332142D01*
X144828571Y-39236904D01*
X144828571Y-38951190D01*
X144876190Y-38855952D01*
X144923809Y-38808333D01*
X145019047Y-38760714D01*
X145161904Y-38760714D01*
X145257142Y-38808333D01*
X145304761Y-38855952D01*
X145352380Y-38951190D01*
X145352380Y-39236904D01*
X145304761Y-39332142D01*
X145257142Y-39379761D01*
X145161904Y-39427380D01*
X145019047Y-39427380D01*
X146447619Y-38760714D02*
X146685714Y-39427380D01*
X146923809Y-38760714D01*
X147828571Y-39427380D02*
X147257142Y-39427380D01*
X147542857Y-39427380D02*
X147542857Y-38427380D01*
X147447619Y-38570238D01*
X147352380Y-38665476D01*
X147257142Y-38713095D01*
X148257142Y-39332142D02*
X148304761Y-39379761D01*
X148257142Y-39427380D01*
X148209523Y-39379761D01*
X148257142Y-39332142D01*
X148257142Y-39427380D01*
X148923809Y-38427380D02*
X149019047Y-38427380D01*
X149114285Y-38475000D01*
X149161904Y-38522619D01*
X149209523Y-38617857D01*
X149257142Y-38808333D01*
X149257142Y-39046428D01*
X149209523Y-39236904D01*
X149161904Y-39332142D01*
X149114285Y-39379761D01*
X149019047Y-39427380D01*
X148923809Y-39427380D01*
X148828571Y-39379761D01*
X148780952Y-39332142D01*
X148733333Y-39236904D01*
X148685714Y-39046428D01*
X148685714Y-38808333D01*
X148733333Y-38617857D01*
X148780952Y-38522619D01*
X148828571Y-38475000D01*
X148923809Y-38427380D01*
X139019047Y-41077380D02*
X139019047Y-40077380D01*
X139352380Y-40791666D01*
X139685714Y-40077380D01*
X139685714Y-41077380D01*
X140304761Y-41077380D02*
X140209523Y-41029761D01*
X140161904Y-40982142D01*
X140114285Y-40886904D01*
X140114285Y-40601190D01*
X140161904Y-40505952D01*
X140209523Y-40458333D01*
X140304761Y-40410714D01*
X140447619Y-40410714D01*
X140542857Y-40458333D01*
X140590476Y-40505952D01*
X140638095Y-40601190D01*
X140638095Y-40886904D01*
X140590476Y-40982142D01*
X140542857Y-41029761D01*
X140447619Y-41077380D01*
X140304761Y-41077380D01*
X141495238Y-40410714D02*
X141495238Y-41077380D01*
X141066666Y-40410714D02*
X141066666Y-40934523D01*
X141114285Y-41029761D01*
X141209523Y-41077380D01*
X141352380Y-41077380D01*
X141447619Y-41029761D01*
X141495238Y-40982142D01*
X141971428Y-40410714D02*
X141971428Y-41077380D01*
X141971428Y-40505952D02*
X142019047Y-40458333D01*
X142114285Y-40410714D01*
X142257142Y-40410714D01*
X142352380Y-40458333D01*
X142400000Y-40553571D01*
X142400000Y-41077380D01*
X142733333Y-40410714D02*
X143114285Y-40410714D01*
X142876190Y-40077380D02*
X142876190Y-40934523D01*
X142923809Y-41029761D01*
X143019047Y-41077380D01*
X143114285Y-41077380D01*
X143447619Y-40410714D02*
X143447619Y-41267857D01*
X143400000Y-41363095D01*
X143304761Y-41410714D01*
X143257142Y-41410714D01*
X143447619Y-40077380D02*
X143400000Y-40125000D01*
X143447619Y-40172619D01*
X143495238Y-40125000D01*
X143447619Y-40077380D01*
X143447619Y-40172619D01*
X144066666Y-41077380D02*
X143971428Y-41029761D01*
X143923809Y-40982142D01*
X143876190Y-40886904D01*
X143876190Y-40601190D01*
X143923809Y-40505952D01*
X143971428Y-40458333D01*
X144066666Y-40410714D01*
X144209523Y-40410714D01*
X144304761Y-40458333D01*
X144352380Y-40505952D01*
X144400000Y-40601190D01*
X144400000Y-40886904D01*
X144352380Y-40982142D01*
X144304761Y-41029761D01*
X144209523Y-41077380D01*
X144066666Y-41077380D01*
X144733333Y-40410714D02*
X144971428Y-41077380D01*
X145209523Y-40410714D02*
X144971428Y-41077380D01*
X144876190Y-41315476D01*
X144828571Y-41363095D01*
X144733333Y-41410714D01*
X146352380Y-41077380D02*
X146352380Y-40077380D01*
X146685714Y-40791666D01*
X147019047Y-40077380D01*
X147019047Y-41077380D01*
X147638095Y-41077380D02*
X147542857Y-41029761D01*
X147495238Y-40982142D01*
X147447619Y-40886904D01*
X147447619Y-40601190D01*
X147495238Y-40505952D01*
X147542857Y-40458333D01*
X147638095Y-40410714D01*
X147780952Y-40410714D01*
X147876190Y-40458333D01*
X147923809Y-40505952D01*
X147971428Y-40601190D01*
X147971428Y-40886904D01*
X147923809Y-40982142D01*
X147876190Y-41029761D01*
X147780952Y-41077380D01*
X147638095Y-41077380D01*
X148828571Y-41077380D02*
X148828571Y-40077380D01*
X148828571Y-41029761D02*
X148733333Y-41077380D01*
X148542857Y-41077380D01*
X148447619Y-41029761D01*
X148400000Y-40982142D01*
X148352380Y-40886904D01*
X148352380Y-40601190D01*
X148400000Y-40505952D01*
X148447619Y-40458333D01*
X148542857Y-40410714D01*
X148733333Y-40410714D01*
X148828571Y-40458333D01*
X149733333Y-40410714D02*
X149733333Y-41077380D01*
X149304761Y-40410714D02*
X149304761Y-40934523D01*
X149352380Y-41029761D01*
X149447619Y-41077380D01*
X149590476Y-41077380D01*
X149685714Y-41029761D01*
X149733333Y-40982142D01*
X150352380Y-41077380D02*
X150257142Y-41029761D01*
X150209523Y-40934523D01*
X150209523Y-40077380D01*
X151161904Y-41077380D02*
X151161904Y-40553571D01*
X151114285Y-40458333D01*
X151019047Y-40410714D01*
X150828571Y-40410714D01*
X150733333Y-40458333D01*
X151161904Y-41029761D02*
X151066666Y-41077380D01*
X150828571Y-41077380D01*
X150733333Y-41029761D01*
X150685714Y-40934523D01*
X150685714Y-40839285D01*
X150733333Y-40744047D01*
X150828571Y-40696428D01*
X151066666Y-40696428D01*
X151161904Y-40648809D01*
X151638095Y-41077380D02*
X151638095Y-40410714D01*
X151638095Y-40601190D02*
X151685714Y-40505952D01*
X151733333Y-40458333D01*
X151828571Y-40410714D01*
X151923809Y-40410714D01*
D11*
X148500000Y-70800000D02*
X148500000Y-72600000D01*
X153400000Y-66600000D02*
X153400000Y-68400000D01*
D10*
X146186000Y-96460000D02*
X146186000Y-101540000D01*
X146186000Y-101540000D02*
X141614000Y-101540000D01*
X141614000Y-101540000D02*
X141614000Y-96460000D01*
X141614000Y-96460000D02*
X146186000Y-96460000D01*
X144662000Y-96460000D02*
X144662000Y-96968000D01*
X144662000Y-96968000D02*
X143392000Y-96968000D01*
X143392000Y-96968000D02*
X143392000Y-96460000D01*
X146286000Y-92580000D02*
X141460000Y-92580000D01*
X141460000Y-92580000D02*
X141460000Y-82420000D01*
X141460000Y-82420000D02*
X146286000Y-82420000D01*
X146286000Y-82420000D02*
X146286000Y-92580000D01*
X144508000Y-82420000D02*
X144508000Y-83055000D01*
X144508000Y-83055000D02*
X143238000Y-83055000D01*
X143238000Y-83055000D02*
X143238000Y-82420000D01*
D12*
X153380000Y-129900000D02*
X153380000Y-131100000D01*
X151620000Y-131100000D02*
X151620000Y-129900000D01*
X152380000Y-84200000D02*
X152380000Y-85400000D01*
X150620000Y-85400000D02*
X150620000Y-84200000D01*
X143400000Y-79620000D02*
X144600000Y-79620000D01*
X144600000Y-81380000D02*
X143400000Y-81380000D01*
X150620000Y-91600000D02*
X150620000Y-90400000D01*
X152380000Y-90400000D02*
X152380000Y-91600000D01*
X137120000Y-83200000D02*
X137120000Y-82000000D01*
X138880000Y-82000000D02*
X138880000Y-83200000D01*
X137620000Y-107300000D02*
X137620000Y-106100000D01*
X139380000Y-106100000D02*
X139380000Y-107300000D01*
X150620000Y-97600000D02*
X150620000Y-96400000D01*
X152380000Y-96400000D02*
X152380000Y-97600000D01*
D13*
G36*
X137900000Y-74700000D02*
G01*
X137900000Y-72700000D01*
X147800000Y-72700000D01*
X147800000Y-74700000D01*
X137900000Y-74700000D01*
G37*
X137900000Y-74700000D02*
X137900000Y-72700000D01*
X147800000Y-72700000D01*
X147800000Y-74700000D01*
X137900000Y-74700000D01*
D10*
X138260000Y-76350000D02*
X138260000Y-75850000D01*
X138160000Y-75850000D02*
X138360000Y-75850000D01*
X138160000Y-76350000D02*
X138160000Y-75850000D01*
X138360000Y-76350000D02*
X138160000Y-76350000D01*
X138260000Y-61390000D02*
X138260000Y-60890000D01*
X138160000Y-60890000D02*
X138360000Y-60890000D01*
X138160000Y-61390000D02*
X138160000Y-60890000D01*
X138360000Y-61390000D02*
X138160000Y-61390000D01*
X138260000Y-68870000D02*
X138260000Y-68370000D01*
X138160000Y-68370000D02*
X138360000Y-68370000D01*
X138160000Y-68870000D02*
X138160000Y-68370000D01*
X138360000Y-68870000D02*
X138160000Y-68870000D01*
X146000000Y-66395000D02*
X147300000Y-66395000D01*
X146000000Y-59670000D02*
X146000000Y-66395000D01*
X139660000Y-59670000D02*
X146000000Y-59670000D01*
X139660000Y-77570000D02*
X139660000Y-59670000D01*
X146000000Y-77570000D02*
X139660000Y-77570000D01*
X146000000Y-70845000D02*
X146000000Y-77570000D01*
X147300000Y-70845000D02*
X146000000Y-70845000D01*
X147300000Y-58470000D02*
X147300000Y-78770000D01*
X138360000Y-58470000D02*
X147300000Y-58470000D01*
X138360000Y-78770000D02*
X138360000Y-58470000D01*
X147300000Y-78770000D02*
X138360000Y-78770000D01*
D12*
X148750000Y-70700000D02*
X148750000Y-72700000D01*
X148750000Y-72700000D02*
X152650000Y-72700000D01*
X148750000Y-70700000D02*
X152650000Y-70700000D01*
X153250000Y-68500000D02*
X153250000Y-66500000D01*
X153250000Y-66500000D02*
X149350000Y-66500000D01*
X153250000Y-68500000D02*
X149350000Y-68500000D01*
X152520000Y-79690000D02*
X152120000Y-79690000D01*
X153290000Y-75110000D02*
X152120000Y-75110000D01*
X148710000Y-75110000D02*
X149880000Y-75110000D01*
X149480000Y-79690000D02*
X149880000Y-79690000D01*
X153290000Y-78920000D02*
X153290000Y-75110000D01*
X153290000Y-78920000D02*
X152520000Y-79690000D01*
X148710000Y-78920000D02*
X148710000Y-75110000D01*
X148710000Y-78920000D02*
X149480000Y-79690000D01*
X149480000Y-59710000D02*
X149880000Y-59710000D01*
X148710000Y-64290000D02*
X149880000Y-64290000D01*
X153290000Y-64290000D02*
X152120000Y-64290000D01*
X152520000Y-59710000D02*
X152120000Y-59710000D01*
X148710000Y-60480000D02*
X148710000Y-64290000D01*
X148710000Y-60480000D02*
X149480000Y-59710000D01*
X153290000Y-60480000D02*
X153290000Y-64290000D01*
X153290000Y-60480000D02*
X152520000Y-59710000D01*
D10*
X144622380Y-99761904D02*
X145431904Y-99761904D01*
X145527142Y-99714285D01*
X145574761Y-99666666D01*
X145622380Y-99571428D01*
X145622380Y-99380952D01*
X145574761Y-99285714D01*
X145527142Y-99238095D01*
X145431904Y-99190476D01*
X144622380Y-99190476D01*
X144717619Y-98761904D02*
X144670000Y-98714285D01*
X144622380Y-98619047D01*
X144622380Y-98380952D01*
X144670000Y-98285714D01*
X144717619Y-98238095D01*
X144812857Y-98190476D01*
X144908095Y-98190476D01*
X145050952Y-98238095D01*
X145622380Y-98809523D01*
X145622380Y-98190476D01*
X144722380Y-88261904D02*
X145531904Y-88261904D01*
X145627142Y-88214285D01*
X145674761Y-88166666D01*
X145722380Y-88071428D01*
X145722380Y-87880952D01*
X145674761Y-87785714D01*
X145627142Y-87738095D01*
X145531904Y-87690476D01*
X144722380Y-87690476D01*
X145722380Y-86690476D02*
X145722380Y-87261904D01*
X145722380Y-86976190D02*
X144722380Y-86976190D01*
X144865238Y-87071428D01*
X144960476Y-87166666D01*
X145008095Y-87261904D01*
X151252380Y-130666666D02*
X150776190Y-131000000D01*
X151252380Y-131238095D02*
X150252380Y-131238095D01*
X150252380Y-130857142D01*
X150300000Y-130761904D01*
X150347619Y-130714285D01*
X150442857Y-130666666D01*
X150585714Y-130666666D01*
X150680952Y-130714285D01*
X150728571Y-130761904D01*
X150776190Y-130857142D01*
X150776190Y-131238095D01*
X150252380Y-130333333D02*
X150252380Y-129666666D01*
X151252380Y-130095238D01*
X153452380Y-84966666D02*
X152976190Y-85300000D01*
X153452380Y-85538095D02*
X152452380Y-85538095D01*
X152452380Y-85157142D01*
X152500000Y-85061904D01*
X152547619Y-85014285D01*
X152642857Y-84966666D01*
X152785714Y-84966666D01*
X152880952Y-85014285D01*
X152928571Y-85061904D01*
X152976190Y-85157142D01*
X152976190Y-85538095D01*
X152452380Y-84109523D02*
X152452380Y-84300000D01*
X152500000Y-84395238D01*
X152547619Y-84442857D01*
X152690476Y-84538095D01*
X152880952Y-84585714D01*
X153261904Y-84585714D01*
X153357142Y-84538095D01*
X153404761Y-84490476D01*
X153452380Y-84395238D01*
X153452380Y-84204761D01*
X153404761Y-84109523D01*
X153357142Y-84061904D01*
X153261904Y-84014285D01*
X153023809Y-84014285D01*
X152928571Y-84061904D01*
X152880952Y-84109523D01*
X152833333Y-84204761D01*
X152833333Y-84395238D01*
X152880952Y-84490476D01*
X152928571Y-84538095D01*
X153023809Y-84585714D01*
X147333333Y-80952380D02*
X147000000Y-80476190D01*
X146761904Y-80952380D02*
X146761904Y-79952380D01*
X147142857Y-79952380D01*
X147238095Y-80000000D01*
X147285714Y-80047619D01*
X147333333Y-80142857D01*
X147333333Y-80285714D01*
X147285714Y-80380952D01*
X147238095Y-80428571D01*
X147142857Y-80476190D01*
X146761904Y-80476190D01*
X148238095Y-79952380D02*
X147761904Y-79952380D01*
X147714285Y-80428571D01*
X147761904Y-80380952D01*
X147857142Y-80333333D01*
X148095238Y-80333333D01*
X148190476Y-80380952D01*
X148238095Y-80428571D01*
X148285714Y-80523809D01*
X148285714Y-80761904D01*
X148238095Y-80857142D01*
X148190476Y-80904761D01*
X148095238Y-80952380D01*
X147857142Y-80952380D01*
X147761904Y-80904761D01*
X147714285Y-80857142D01*
X153652380Y-91166666D02*
X153176190Y-91500000D01*
X153652380Y-91738095D02*
X152652380Y-91738095D01*
X152652380Y-91357142D01*
X152700000Y-91261904D01*
X152747619Y-91214285D01*
X152842857Y-91166666D01*
X152985714Y-91166666D01*
X153080952Y-91214285D01*
X153128571Y-91261904D01*
X153176190Y-91357142D01*
X153176190Y-91738095D01*
X152985714Y-90309523D02*
X153652380Y-90309523D01*
X152604761Y-90547619D02*
X153319047Y-90785714D01*
X153319047Y-90166666D01*
X140252380Y-81866666D02*
X139776190Y-82200000D01*
X140252380Y-82438095D02*
X139252380Y-82438095D01*
X139252380Y-82057142D01*
X139300000Y-81961904D01*
X139347619Y-81914285D01*
X139442857Y-81866666D01*
X139585714Y-81866666D01*
X139680952Y-81914285D01*
X139728571Y-81961904D01*
X139776190Y-82057142D01*
X139776190Y-82438095D01*
X139252380Y-81533333D02*
X139252380Y-80914285D01*
X139633333Y-81247619D01*
X139633333Y-81104761D01*
X139680952Y-81009523D01*
X139728571Y-80961904D01*
X139823809Y-80914285D01*
X140061904Y-80914285D01*
X140157142Y-80961904D01*
X140204761Y-81009523D01*
X140252380Y-81104761D01*
X140252380Y-81390476D01*
X140204761Y-81485714D01*
X140157142Y-81533333D01*
X140652380Y-106866666D02*
X140176190Y-107200000D01*
X140652380Y-107438095D02*
X139652380Y-107438095D01*
X139652380Y-107057142D01*
X139700000Y-106961904D01*
X139747619Y-106914285D01*
X139842857Y-106866666D01*
X139985714Y-106866666D01*
X140080952Y-106914285D01*
X140128571Y-106961904D01*
X140176190Y-107057142D01*
X140176190Y-107438095D01*
X139747619Y-106485714D02*
X139700000Y-106438095D01*
X139652380Y-106342857D01*
X139652380Y-106104761D01*
X139700000Y-106009523D01*
X139747619Y-105961904D01*
X139842857Y-105914285D01*
X139938095Y-105914285D01*
X140080952Y-105961904D01*
X140652380Y-106533333D01*
X140652380Y-105914285D01*
X153652380Y-97166666D02*
X153176190Y-97500000D01*
X153652380Y-97738095D02*
X152652380Y-97738095D01*
X152652380Y-97357142D01*
X152700000Y-97261904D01*
X152747619Y-97214285D01*
X152842857Y-97166666D01*
X152985714Y-97166666D01*
X153080952Y-97214285D01*
X153128571Y-97261904D01*
X153176190Y-97357142D01*
X153176190Y-97738095D01*
X153652380Y-96214285D02*
X153652380Y-96785714D01*
X153652380Y-96500000D02*
X152652380Y-96500000D01*
X152795238Y-96595238D01*
X152890476Y-96690476D01*
X152938095Y-96785714D01*
X137171428Y-75761904D02*
X137171428Y-75000000D01*
X137552380Y-74000000D02*
X137552380Y-74571428D01*
X137552380Y-74285714D02*
X136552380Y-74285714D01*
X136695238Y-74380952D01*
X136790476Y-74476190D01*
X136838095Y-74571428D01*
X136647619Y-73619047D02*
X136600000Y-73571428D01*
X136552380Y-73476190D01*
X136552380Y-73238095D01*
X136600000Y-73142857D01*
X136647619Y-73095238D01*
X136742857Y-73047619D01*
X136838095Y-73047619D01*
X136980952Y-73095238D01*
X137552380Y-73666666D01*
X137552380Y-73047619D01*
X136552380Y-72761904D02*
X137552380Y-72428571D01*
X136552380Y-72095238D01*
X150261904Y-72152380D02*
X150261904Y-71152380D01*
X150500000Y-71152380D01*
X150642857Y-71200000D01*
X150738095Y-71295238D01*
X150785714Y-71390476D01*
X150833333Y-71580952D01*
X150833333Y-71723809D01*
X150785714Y-71914285D01*
X150738095Y-72009523D01*
X150642857Y-72104761D01*
X150500000Y-72152380D01*
X150261904Y-72152380D01*
X151214285Y-71247619D02*
X151261904Y-71200000D01*
X151357142Y-71152380D01*
X151595238Y-71152380D01*
X151690476Y-71200000D01*
X151738095Y-71247619D01*
X151785714Y-71342857D01*
X151785714Y-71438095D01*
X151738095Y-71580952D01*
X151166666Y-72152380D01*
X151785714Y-72152380D01*
X150261904Y-67952380D02*
X150261904Y-66952380D01*
X150500000Y-66952380D01*
X150642857Y-67000000D01*
X150738095Y-67095238D01*
X150785714Y-67190476D01*
X150833333Y-67380952D01*
X150833333Y-67523809D01*
X150785714Y-67714285D01*
X150738095Y-67809523D01*
X150642857Y-67904761D01*
X150500000Y-67952380D01*
X150261904Y-67952380D01*
X151785714Y-67952380D02*
X151214285Y-67952380D01*
X151500000Y-67952380D02*
X151500000Y-66952380D01*
X151404761Y-67095238D01*
X151309523Y-67190476D01*
X151214285Y-67238095D01*
X153857142Y-74166666D02*
X153904761Y-74214285D01*
X153952380Y-74357142D01*
X153952380Y-74452380D01*
X153904761Y-74595238D01*
X153809523Y-74690476D01*
X153714285Y-74738095D01*
X153523809Y-74785714D01*
X153380952Y-74785714D01*
X153190476Y-74738095D01*
X153095238Y-74690476D01*
X153000000Y-74595238D01*
X152952380Y-74452380D01*
X152952380Y-74357142D01*
X153000000Y-74214285D01*
X153047619Y-74166666D01*
X153047619Y-73785714D02*
X153000000Y-73738095D01*
X152952380Y-73642857D01*
X152952380Y-73404761D01*
X153000000Y-73309523D01*
X153047619Y-73261904D01*
X153142857Y-73214285D01*
X153238095Y-73214285D01*
X153380952Y-73261904D01*
X153952380Y-73833333D01*
X153952380Y-73214285D01*
X153081428Y-80560952D02*
X153081428Y-79799047D01*
X153462380Y-80180000D02*
X152700476Y-80180000D01*
X153133333Y-59157142D02*
X153085714Y-59204761D01*
X152942857Y-59252380D01*
X152847619Y-59252380D01*
X152704761Y-59204761D01*
X152609523Y-59109523D01*
X152561904Y-59014285D01*
X152514285Y-58823809D01*
X152514285Y-58680952D01*
X152561904Y-58490476D01*
X152609523Y-58395238D01*
X152704761Y-58300000D01*
X152847619Y-58252380D01*
X152942857Y-58252380D01*
X153085714Y-58300000D01*
X153133333Y-58347619D01*
X154085714Y-59252380D02*
X153514285Y-59252380D01*
X153800000Y-59252380D02*
X153800000Y-58252380D01*
X153704761Y-58395238D01*
X153609523Y-58490476D01*
X153514285Y-58538095D01*
X149061428Y-59600952D02*
X149061428Y-58839047D01*
X149442380Y-59220000D02*
X148680476Y-59220000D01*
M02*
