G04 #@! TF.GenerationSoftware,KiCad,Pcbnew,(5.1.5)-3*
G04 #@! TF.CreationDate,2020-05-13T21:41:15+01:00*
G04 #@! TF.ProjectId,Ringo,52696e67-6f2e-46b6-9963-61645f706362,rev?*
G04 #@! TF.SameCoordinates,Original*
G04 #@! TF.FileFunction,Soldermask,Bot*
G04 #@! TF.FilePolarity,Negative*
%FSLAX46Y46*%
G04 Gerber Fmt 4.6, Leading zero omitted, Abs format (unit mm)*
G04 Created by KiCad (PCBNEW (5.1.5)-3) date 2020-05-13 21:41:15*
%MOMM*%
%LPD*%
G04 APERTURE LIST*
%ADD10C,0.100000*%
G04 APERTURE END LIST*
D10*
G36*
X146801000Y-145531000D02*
G01*
X144199000Y-145531000D01*
X144199000Y-144429000D01*
X146801000Y-144429000D01*
X146801000Y-145531000D01*
G37*
G36*
X146801000Y-142431000D02*
G01*
X144199000Y-142431000D01*
X144199000Y-141329000D01*
X146801000Y-141329000D01*
X146801000Y-142431000D01*
G37*
G36*
X145879487Y-137248996D02*
G01*
X146116253Y-137347068D01*
X146116255Y-137347069D01*
X146329339Y-137489447D01*
X146510553Y-137670661D01*
X146652932Y-137883747D01*
X146751004Y-138120513D01*
X146801000Y-138371861D01*
X146801000Y-138628139D01*
X146751004Y-138879487D01*
X146652932Y-139116253D01*
X146652931Y-139116255D01*
X146510553Y-139329339D01*
X146329339Y-139510553D01*
X146116255Y-139652931D01*
X146116254Y-139652932D01*
X146116253Y-139652932D01*
X145879487Y-139751004D01*
X145628139Y-139801000D01*
X145371861Y-139801000D01*
X145120513Y-139751004D01*
X144883747Y-139652932D01*
X144883746Y-139652932D01*
X144883745Y-139652931D01*
X144670661Y-139510553D01*
X144489447Y-139329339D01*
X144347069Y-139116255D01*
X144347068Y-139116253D01*
X144248996Y-138879487D01*
X144199000Y-138628139D01*
X144199000Y-138371861D01*
X144248996Y-138120513D01*
X144347068Y-137883747D01*
X144489447Y-137670661D01*
X144670661Y-137489447D01*
X144883745Y-137347069D01*
X144883747Y-137347068D01*
X145120513Y-137248996D01*
X145371861Y-137199000D01*
X145628139Y-137199000D01*
X145879487Y-137248996D01*
G37*
G36*
X146801000Y-134131000D02*
G01*
X144199000Y-134131000D01*
X144199000Y-133029000D01*
X146801000Y-133029000D01*
X146801000Y-134131000D01*
G37*
G36*
X146801000Y-131431000D02*
G01*
X144199000Y-131431000D01*
X144199000Y-130329000D01*
X146801000Y-130329000D01*
X146801000Y-131431000D01*
G37*
G36*
X146801000Y-128331000D02*
G01*
X144199000Y-128331000D01*
X144199000Y-127229000D01*
X146801000Y-127229000D01*
X146801000Y-128331000D01*
G37*
G36*
X145879487Y-123148996D02*
G01*
X146116253Y-123247068D01*
X146116255Y-123247069D01*
X146329339Y-123389447D01*
X146510553Y-123570661D01*
X146652932Y-123783747D01*
X146751004Y-124020513D01*
X146801000Y-124271861D01*
X146801000Y-124528139D01*
X146751004Y-124779487D01*
X146652932Y-125016253D01*
X146652931Y-125016255D01*
X146510553Y-125229339D01*
X146329339Y-125410553D01*
X146116255Y-125552931D01*
X146116254Y-125552932D01*
X146116253Y-125552932D01*
X145879487Y-125651004D01*
X145628139Y-125701000D01*
X145371861Y-125701000D01*
X145120513Y-125651004D01*
X144883747Y-125552932D01*
X144883746Y-125552932D01*
X144883745Y-125552931D01*
X144670661Y-125410553D01*
X144489447Y-125229339D01*
X144347069Y-125016255D01*
X144347068Y-125016253D01*
X144248996Y-124779487D01*
X144199000Y-124528139D01*
X144199000Y-124271861D01*
X144248996Y-124020513D01*
X144347068Y-123783747D01*
X144489447Y-123570661D01*
X144670661Y-123389447D01*
X144883745Y-123247069D01*
X144883747Y-123247068D01*
X145120513Y-123148996D01*
X145371861Y-123099000D01*
X145628139Y-123099000D01*
X145879487Y-123148996D01*
G37*
G36*
X146801000Y-120031000D02*
G01*
X144199000Y-120031000D01*
X144199000Y-118929000D01*
X146801000Y-118929000D01*
X146801000Y-120031000D01*
G37*
G36*
X146801000Y-117531000D02*
G01*
X144199000Y-117531000D01*
X144199000Y-116429000D01*
X146801000Y-116429000D01*
X146801000Y-117531000D01*
G37*
G36*
X146801000Y-114431000D02*
G01*
X144199000Y-114431000D01*
X144199000Y-113329000D01*
X146801000Y-113329000D01*
X146801000Y-114431000D01*
G37*
G36*
X145879487Y-109248996D02*
G01*
X146116253Y-109347068D01*
X146116255Y-109347069D01*
X146329339Y-109489447D01*
X146510553Y-109670661D01*
X146652932Y-109883747D01*
X146751004Y-110120513D01*
X146801000Y-110371861D01*
X146801000Y-110628139D01*
X146751004Y-110879487D01*
X146652932Y-111116253D01*
X146652931Y-111116255D01*
X146510553Y-111329339D01*
X146329339Y-111510553D01*
X146116255Y-111652931D01*
X146116254Y-111652932D01*
X146116253Y-111652932D01*
X145879487Y-111751004D01*
X145628139Y-111801000D01*
X145371861Y-111801000D01*
X145120513Y-111751004D01*
X144883747Y-111652932D01*
X144883746Y-111652932D01*
X144883745Y-111652931D01*
X144670661Y-111510553D01*
X144489447Y-111329339D01*
X144347069Y-111116255D01*
X144347068Y-111116253D01*
X144248996Y-110879487D01*
X144199000Y-110628139D01*
X144199000Y-110371861D01*
X144248996Y-110120513D01*
X144347068Y-109883747D01*
X144489447Y-109670661D01*
X144670661Y-109489447D01*
X144883745Y-109347069D01*
X144883747Y-109347068D01*
X145120513Y-109248996D01*
X145371861Y-109199000D01*
X145628139Y-109199000D01*
X145879487Y-109248996D01*
G37*
G36*
X146801000Y-106131000D02*
G01*
X144199000Y-106131000D01*
X144199000Y-105029000D01*
X146801000Y-105029000D01*
X146801000Y-106131000D01*
G37*
G36*
X141673512Y-72803927D02*
G01*
X141822812Y-72833624D01*
X141986784Y-72901544D01*
X142134354Y-73000147D01*
X142259853Y-73125646D01*
X142358456Y-73273216D01*
X142426376Y-73437188D01*
X142461000Y-73611259D01*
X142461000Y-73788741D01*
X142426376Y-73962812D01*
X142358456Y-74126784D01*
X142259853Y-74274354D01*
X142134354Y-74399853D01*
X141986784Y-74498456D01*
X141822812Y-74566376D01*
X141673512Y-74596073D01*
X141648742Y-74601000D01*
X141471258Y-74601000D01*
X141446488Y-74596073D01*
X141297188Y-74566376D01*
X141133216Y-74498456D01*
X140985646Y-74399853D01*
X140860147Y-74274354D01*
X140761544Y-74126784D01*
X140693624Y-73962812D01*
X140659000Y-73788741D01*
X140659000Y-73611259D01*
X140693624Y-73437188D01*
X140761544Y-73273216D01*
X140860147Y-73125646D01*
X140985646Y-73000147D01*
X141133216Y-72901544D01*
X141297188Y-72833624D01*
X141446488Y-72803927D01*
X141471258Y-72799000D01*
X141648742Y-72799000D01*
X141673512Y-72803927D01*
G37*
G36*
X145001000Y-74601000D02*
G01*
X143199000Y-74601000D01*
X143199000Y-72799000D01*
X145001000Y-72799000D01*
X145001000Y-74601000D01*
G37*
G36*
X144213512Y-70263927D02*
G01*
X144362812Y-70293624D01*
X144526784Y-70361544D01*
X144674354Y-70460147D01*
X144799853Y-70585646D01*
X144898456Y-70733216D01*
X144966376Y-70897188D01*
X145001000Y-71071259D01*
X145001000Y-71248741D01*
X144966376Y-71422812D01*
X144898456Y-71586784D01*
X144799853Y-71734354D01*
X144674354Y-71859853D01*
X144526784Y-71958456D01*
X144362812Y-72026376D01*
X144213512Y-72056073D01*
X144188742Y-72061000D01*
X144011258Y-72061000D01*
X143986488Y-72056073D01*
X143837188Y-72026376D01*
X143673216Y-71958456D01*
X143525646Y-71859853D01*
X143400147Y-71734354D01*
X143301544Y-71586784D01*
X143233624Y-71422812D01*
X143199000Y-71248741D01*
X143199000Y-71071259D01*
X143233624Y-70897188D01*
X143301544Y-70733216D01*
X143400147Y-70585646D01*
X143525646Y-70460147D01*
X143673216Y-70361544D01*
X143837188Y-70293624D01*
X143986488Y-70263927D01*
X144011258Y-70259000D01*
X144188742Y-70259000D01*
X144213512Y-70263927D01*
G37*
G36*
X141673512Y-70263927D02*
G01*
X141822812Y-70293624D01*
X141986784Y-70361544D01*
X142134354Y-70460147D01*
X142259853Y-70585646D01*
X142358456Y-70733216D01*
X142426376Y-70897188D01*
X142461000Y-71071259D01*
X142461000Y-71248741D01*
X142426376Y-71422812D01*
X142358456Y-71586784D01*
X142259853Y-71734354D01*
X142134354Y-71859853D01*
X141986784Y-71958456D01*
X141822812Y-72026376D01*
X141673512Y-72056073D01*
X141648742Y-72061000D01*
X141471258Y-72061000D01*
X141446488Y-72056073D01*
X141297188Y-72026376D01*
X141133216Y-71958456D01*
X140985646Y-71859853D01*
X140860147Y-71734354D01*
X140761544Y-71586784D01*
X140693624Y-71422812D01*
X140659000Y-71248741D01*
X140659000Y-71071259D01*
X140693624Y-70897188D01*
X140761544Y-70733216D01*
X140860147Y-70585646D01*
X140985646Y-70460147D01*
X141133216Y-70361544D01*
X141297188Y-70293624D01*
X141446488Y-70263927D01*
X141471258Y-70259000D01*
X141648742Y-70259000D01*
X141673512Y-70263927D01*
G37*
G36*
X144213512Y-67723927D02*
G01*
X144362812Y-67753624D01*
X144526784Y-67821544D01*
X144674354Y-67920147D01*
X144799853Y-68045646D01*
X144898456Y-68193216D01*
X144966376Y-68357188D01*
X145001000Y-68531259D01*
X145001000Y-68708741D01*
X144966376Y-68882812D01*
X144898456Y-69046784D01*
X144799853Y-69194354D01*
X144674354Y-69319853D01*
X144526784Y-69418456D01*
X144362812Y-69486376D01*
X144213512Y-69516073D01*
X144188742Y-69521000D01*
X144011258Y-69521000D01*
X143986488Y-69516073D01*
X143837188Y-69486376D01*
X143673216Y-69418456D01*
X143525646Y-69319853D01*
X143400147Y-69194354D01*
X143301544Y-69046784D01*
X143233624Y-68882812D01*
X143199000Y-68708741D01*
X143199000Y-68531259D01*
X143233624Y-68357188D01*
X143301544Y-68193216D01*
X143400147Y-68045646D01*
X143525646Y-67920147D01*
X143673216Y-67821544D01*
X143837188Y-67753624D01*
X143986488Y-67723927D01*
X144011258Y-67719000D01*
X144188742Y-67719000D01*
X144213512Y-67723927D01*
G37*
G36*
X141673512Y-67723927D02*
G01*
X141822812Y-67753624D01*
X141986784Y-67821544D01*
X142134354Y-67920147D01*
X142259853Y-68045646D01*
X142358456Y-68193216D01*
X142426376Y-68357188D01*
X142461000Y-68531259D01*
X142461000Y-68708741D01*
X142426376Y-68882812D01*
X142358456Y-69046784D01*
X142259853Y-69194354D01*
X142134354Y-69319853D01*
X141986784Y-69418456D01*
X141822812Y-69486376D01*
X141673512Y-69516073D01*
X141648742Y-69521000D01*
X141471258Y-69521000D01*
X141446488Y-69516073D01*
X141297188Y-69486376D01*
X141133216Y-69418456D01*
X140985646Y-69319853D01*
X140860147Y-69194354D01*
X140761544Y-69046784D01*
X140693624Y-68882812D01*
X140659000Y-68708741D01*
X140659000Y-68531259D01*
X140693624Y-68357188D01*
X140761544Y-68193216D01*
X140860147Y-68045646D01*
X140985646Y-67920147D01*
X141133216Y-67821544D01*
X141297188Y-67753624D01*
X141446488Y-67723927D01*
X141471258Y-67719000D01*
X141648742Y-67719000D01*
X141673512Y-67723927D01*
G37*
G36*
X141673512Y-65183927D02*
G01*
X141822812Y-65213624D01*
X141986784Y-65281544D01*
X142134354Y-65380147D01*
X142259853Y-65505646D01*
X142358456Y-65653216D01*
X142426376Y-65817188D01*
X142461000Y-65991259D01*
X142461000Y-66168741D01*
X142426376Y-66342812D01*
X142358456Y-66506784D01*
X142259853Y-66654354D01*
X142134354Y-66779853D01*
X141986784Y-66878456D01*
X141822812Y-66946376D01*
X141673512Y-66976073D01*
X141648742Y-66981000D01*
X141471258Y-66981000D01*
X141446488Y-66976073D01*
X141297188Y-66946376D01*
X141133216Y-66878456D01*
X140985646Y-66779853D01*
X140860147Y-66654354D01*
X140761544Y-66506784D01*
X140693624Y-66342812D01*
X140659000Y-66168741D01*
X140659000Y-65991259D01*
X140693624Y-65817188D01*
X140761544Y-65653216D01*
X140860147Y-65505646D01*
X140985646Y-65380147D01*
X141133216Y-65281544D01*
X141297188Y-65213624D01*
X141446488Y-65183927D01*
X141471258Y-65179000D01*
X141648742Y-65179000D01*
X141673512Y-65183927D01*
G37*
G36*
X144213512Y-65183927D02*
G01*
X144362812Y-65213624D01*
X144526784Y-65281544D01*
X144674354Y-65380147D01*
X144799853Y-65505646D01*
X144898456Y-65653216D01*
X144966376Y-65817188D01*
X145001000Y-65991259D01*
X145001000Y-66168741D01*
X144966376Y-66342812D01*
X144898456Y-66506784D01*
X144799853Y-66654354D01*
X144674354Y-66779853D01*
X144526784Y-66878456D01*
X144362812Y-66946376D01*
X144213512Y-66976073D01*
X144188742Y-66981000D01*
X144011258Y-66981000D01*
X143986488Y-66976073D01*
X143837188Y-66946376D01*
X143673216Y-66878456D01*
X143525646Y-66779853D01*
X143400147Y-66654354D01*
X143301544Y-66506784D01*
X143233624Y-66342812D01*
X143199000Y-66168741D01*
X143199000Y-65991259D01*
X143233624Y-65817188D01*
X143301544Y-65653216D01*
X143400147Y-65505646D01*
X143525646Y-65380147D01*
X143673216Y-65281544D01*
X143837188Y-65213624D01*
X143986488Y-65183927D01*
X144011258Y-65179000D01*
X144188742Y-65179000D01*
X144213512Y-65183927D01*
G37*
G36*
X144213512Y-62643927D02*
G01*
X144362812Y-62673624D01*
X144526784Y-62741544D01*
X144674354Y-62840147D01*
X144799853Y-62965646D01*
X144898456Y-63113216D01*
X144966376Y-63277188D01*
X145001000Y-63451259D01*
X145001000Y-63628741D01*
X144966376Y-63802812D01*
X144898456Y-63966784D01*
X144799853Y-64114354D01*
X144674354Y-64239853D01*
X144526784Y-64338456D01*
X144362812Y-64406376D01*
X144213512Y-64436073D01*
X144188742Y-64441000D01*
X144011258Y-64441000D01*
X143986488Y-64436073D01*
X143837188Y-64406376D01*
X143673216Y-64338456D01*
X143525646Y-64239853D01*
X143400147Y-64114354D01*
X143301544Y-63966784D01*
X143233624Y-63802812D01*
X143199000Y-63628741D01*
X143199000Y-63451259D01*
X143233624Y-63277188D01*
X143301544Y-63113216D01*
X143400147Y-62965646D01*
X143525646Y-62840147D01*
X143673216Y-62741544D01*
X143837188Y-62673624D01*
X143986488Y-62643927D01*
X144011258Y-62639000D01*
X144188742Y-62639000D01*
X144213512Y-62643927D01*
G37*
G36*
X141673512Y-62643927D02*
G01*
X141822812Y-62673624D01*
X141986784Y-62741544D01*
X142134354Y-62840147D01*
X142259853Y-62965646D01*
X142358456Y-63113216D01*
X142426376Y-63277188D01*
X142461000Y-63451259D01*
X142461000Y-63628741D01*
X142426376Y-63802812D01*
X142358456Y-63966784D01*
X142259853Y-64114354D01*
X142134354Y-64239853D01*
X141986784Y-64338456D01*
X141822812Y-64406376D01*
X141673512Y-64436073D01*
X141648742Y-64441000D01*
X141471258Y-64441000D01*
X141446488Y-64436073D01*
X141297188Y-64406376D01*
X141133216Y-64338456D01*
X140985646Y-64239853D01*
X140860147Y-64114354D01*
X140761544Y-63966784D01*
X140693624Y-63802812D01*
X140659000Y-63628741D01*
X140659000Y-63451259D01*
X140693624Y-63277188D01*
X140761544Y-63113216D01*
X140860147Y-62965646D01*
X140985646Y-62840147D01*
X141133216Y-62741544D01*
X141297188Y-62673624D01*
X141446488Y-62643927D01*
X141471258Y-62639000D01*
X141648742Y-62639000D01*
X141673512Y-62643927D01*
G37*
G36*
X143277395Y-54585546D02*
G01*
X143450466Y-54657234D01*
X143450467Y-54657235D01*
X143606227Y-54761310D01*
X143738690Y-54893773D01*
X143738691Y-54893775D01*
X143842766Y-55049534D01*
X143914454Y-55222605D01*
X143951000Y-55406333D01*
X143951000Y-55593667D01*
X143914454Y-55777395D01*
X143842766Y-55950466D01*
X143842765Y-55950467D01*
X143738690Y-56106227D01*
X143606227Y-56238690D01*
X143527818Y-56291081D01*
X143450466Y-56342766D01*
X143277395Y-56414454D01*
X143093667Y-56451000D01*
X142906333Y-56451000D01*
X142722605Y-56414454D01*
X142549534Y-56342766D01*
X142472182Y-56291081D01*
X142393773Y-56238690D01*
X142261310Y-56106227D01*
X142157235Y-55950467D01*
X142157234Y-55950466D01*
X142085546Y-55777395D01*
X142049000Y-55593667D01*
X142049000Y-55406333D01*
X142085546Y-55222605D01*
X142157234Y-55049534D01*
X142261309Y-54893775D01*
X142261310Y-54893773D01*
X142393773Y-54761310D01*
X142549533Y-54657235D01*
X142549534Y-54657234D01*
X142722605Y-54585546D01*
X142906333Y-54549000D01*
X143093667Y-54549000D01*
X143277395Y-54585546D01*
G37*
G36*
X145777395Y-54585546D02*
G01*
X145950466Y-54657234D01*
X145950467Y-54657235D01*
X146106227Y-54761310D01*
X146238690Y-54893773D01*
X146238691Y-54893775D01*
X146342766Y-55049534D01*
X146414454Y-55222605D01*
X146451000Y-55406333D01*
X146451000Y-55593667D01*
X146414454Y-55777395D01*
X146342766Y-55950466D01*
X146342765Y-55950467D01*
X146238690Y-56106227D01*
X146106227Y-56238690D01*
X146027818Y-56291081D01*
X145950466Y-56342766D01*
X145777395Y-56414454D01*
X145593667Y-56451000D01*
X145406333Y-56451000D01*
X145222605Y-56414454D01*
X145049534Y-56342766D01*
X144972182Y-56291081D01*
X144893773Y-56238690D01*
X144761310Y-56106227D01*
X144657235Y-55950467D01*
X144657234Y-55950466D01*
X144585546Y-55777395D01*
X144549000Y-55593667D01*
X144549000Y-55406333D01*
X144585546Y-55222605D01*
X144657234Y-55049534D01*
X144761309Y-54893775D01*
X144761310Y-54893773D01*
X144893773Y-54761310D01*
X145049533Y-54657235D01*
X145049534Y-54657234D01*
X145222605Y-54585546D01*
X145406333Y-54549000D01*
X145593667Y-54549000D01*
X145777395Y-54585546D01*
G37*
G36*
X148277395Y-54585546D02*
G01*
X148450466Y-54657234D01*
X148450467Y-54657235D01*
X148606227Y-54761310D01*
X148738690Y-54893773D01*
X148738691Y-54893775D01*
X148842766Y-55049534D01*
X148914454Y-55222605D01*
X148951000Y-55406333D01*
X148951000Y-55593667D01*
X148914454Y-55777395D01*
X148842766Y-55950466D01*
X148842765Y-55950467D01*
X148738690Y-56106227D01*
X148606227Y-56238690D01*
X148527818Y-56291081D01*
X148450466Y-56342766D01*
X148277395Y-56414454D01*
X148093667Y-56451000D01*
X147906333Y-56451000D01*
X147722605Y-56414454D01*
X147549534Y-56342766D01*
X147472182Y-56291081D01*
X147393773Y-56238690D01*
X147261310Y-56106227D01*
X147157235Y-55950467D01*
X147157234Y-55950466D01*
X147085546Y-55777395D01*
X147049000Y-55593667D01*
X147049000Y-55406333D01*
X147085546Y-55222605D01*
X147157234Y-55049534D01*
X147261309Y-54893775D01*
X147261310Y-54893773D01*
X147393773Y-54761310D01*
X147549533Y-54657235D01*
X147549534Y-54657234D01*
X147722605Y-54585546D01*
X147906333Y-54549000D01*
X148093667Y-54549000D01*
X148277395Y-54585546D01*
G37*
G36*
X150498254Y-46527818D02*
G01*
X150871511Y-46682426D01*
X150871513Y-46682427D01*
X151207436Y-46906884D01*
X151493116Y-47192564D01*
X151717574Y-47528489D01*
X151872182Y-47901746D01*
X151951000Y-48297993D01*
X151951000Y-48702007D01*
X151872182Y-49098254D01*
X151717574Y-49471511D01*
X151717573Y-49471513D01*
X151493116Y-49807436D01*
X151207436Y-50093116D01*
X150871513Y-50317573D01*
X150871512Y-50317574D01*
X150871511Y-50317574D01*
X150498254Y-50472182D01*
X150102007Y-50551000D01*
X149697993Y-50551000D01*
X149301746Y-50472182D01*
X148928489Y-50317574D01*
X148928488Y-50317574D01*
X148928487Y-50317573D01*
X148592564Y-50093116D01*
X148306884Y-49807436D01*
X148082427Y-49471513D01*
X148082426Y-49471511D01*
X147927818Y-49098254D01*
X147849000Y-48702007D01*
X147849000Y-48297993D01*
X147927818Y-47901746D01*
X148082426Y-47528489D01*
X148306884Y-47192564D01*
X148592564Y-46906884D01*
X148928487Y-46682427D01*
X148928489Y-46682426D01*
X149301746Y-46527818D01*
X149697993Y-46449000D01*
X150102007Y-46449000D01*
X150498254Y-46527818D01*
G37*
G36*
X141698254Y-46527818D02*
G01*
X142071511Y-46682426D01*
X142071513Y-46682427D01*
X142407436Y-46906884D01*
X142693116Y-47192564D01*
X142917574Y-47528489D01*
X143072182Y-47901746D01*
X143151000Y-48297993D01*
X143151000Y-48702007D01*
X143072182Y-49098254D01*
X142917574Y-49471511D01*
X142917573Y-49471513D01*
X142693116Y-49807436D01*
X142407436Y-50093116D01*
X142071513Y-50317573D01*
X142071512Y-50317574D01*
X142071511Y-50317574D01*
X141698254Y-50472182D01*
X141302007Y-50551000D01*
X140897993Y-50551000D01*
X140501746Y-50472182D01*
X140128489Y-50317574D01*
X140128488Y-50317574D01*
X140128487Y-50317573D01*
X139792564Y-50093116D01*
X139506884Y-49807436D01*
X139282427Y-49471513D01*
X139282426Y-49471511D01*
X139127818Y-49098254D01*
X139049000Y-48702007D01*
X139049000Y-48297993D01*
X139127818Y-47901746D01*
X139282426Y-47528489D01*
X139506884Y-47192564D01*
X139792564Y-46906884D01*
X140128487Y-46682427D01*
X140128489Y-46682426D01*
X140501746Y-46527818D01*
X140897993Y-46449000D01*
X141302007Y-46449000D01*
X141698254Y-46527818D01*
G37*
M02*
