M48
; DRILL file {KiCad (5.1.5)-3} date 13/05/2020 21:41:19
; FORMAT={-:-/ absolute / inch / decimal}
; #@! TF.CreationDate,2020-05-13T21:41:19+01:00
; #@! TF.GenerationSoftware,Kicad,Pcbnew,(5.1.5)-3
; #@! TF.FileFunction,Plated,1,2,PTH
FMAT,2
INCH
T1C0.0157
T2C0.0197
T3C0.0394
%
G90
G05
T1
X5.5118Y-3.7205
X5.6172Y-3.4379
X5.689Y-3.7598
X5.7874Y-3.7402
X5.8661Y-3.2087
X5.8661Y-3.4646
X5.8661Y-3.878
X5.9528Y-2.6299
T3
X5.6299Y-2.185
X5.7283Y-2.185
X5.8268Y-2.185
X5.5732Y-2.5016
X5.5732Y-2.6016
X5.5732Y-2.7016
X5.5732Y-2.8016
X5.5732Y-2.9016
X5.6732Y-2.5016
X5.6732Y-2.6016
X5.6732Y-2.7016
X5.6732Y-2.8016
X5.6732Y-2.9016
T2
G00X5.748Y-4.7039
M15
G01X5.7087Y-4.7039
M16
G05
G00X5.748Y-5.0307
M15
G01X5.7087Y-5.0307
M16
G05
G00X5.748Y-5.1528
M15
G01X5.7087Y-5.1528
M16
G05
G00X5.748Y-4.1567
M15
G01X5.7087Y-4.1567
M16
G05
G00X5.748Y-4.4835
M15
G01X5.7087Y-4.4835
M16
G05
G00X5.748Y-4.6055
M15
G01X5.7087Y-4.6055
M16
G05
G00X5.748Y-5.2591
M15
G01X5.7087Y-5.2591
M16
G05
G00X5.748Y-5.5858
M15
G01X5.7087Y-5.5858
M16
G05
G00X5.748Y-5.7079
M15
G01X5.7087Y-5.7079
M16
G05
T0
M30
