G04 #@! TF.GenerationSoftware,KiCad,Pcbnew,(5.1.5)-3*
G04 #@! TF.CreationDate,2020-05-13T21:41:15+01:00*
G04 #@! TF.ProjectId,Ringo,52696e67-6f2e-46b6-9963-61645f706362,rev?*
G04 #@! TF.SameCoordinates,Original*
G04 #@! TF.FileFunction,Copper,L1,Top*
G04 #@! TF.FilePolarity,Positive*
%FSLAX46Y46*%
G04 Gerber Fmt 4.6, Leading zero omitted, Abs format (unit mm)*
G04 Created by KiCad (PCBNEW (5.1.5)-3) date 2020-05-13 21:41:15*
%MOMM*%
%LPD*%
G04 APERTURE LIST*
%ADD10R,1.143000X0.508000*%
%ADD11C,4.000000*%
%ADD12C,1.800000*%
%ADD13R,1.300000X1.500000*%
%ADD14R,1.500000X1.300000*%
%ADD15R,2.500000X1.000000*%
%ADD16C,1.700000*%
%ADD17R,1.700000X1.700000*%
%ADD18R,0.900000X1.200000*%
%ADD19R,1.600000X2.600000*%
%ADD20C,0.800000*%
%ADD21C,0.300000*%
%ADD22C,0.250000*%
%ADD23C,0.254000*%
G04 APERTURE END LIST*
D10*
X147075000Y-97095000D03*
X147075000Y-98365000D03*
X147075000Y-99635000D03*
X147075000Y-100905000D03*
X140725000Y-100905000D03*
X140725000Y-99635000D03*
X140725000Y-98365000D03*
X140725000Y-97095000D03*
X140698000Y-83690000D03*
X140698000Y-84960000D03*
X140698000Y-86230000D03*
X140698000Y-87500000D03*
X140698000Y-88770000D03*
X140698000Y-90040000D03*
X140698000Y-91310000D03*
X147048000Y-91310000D03*
X147048000Y-90040000D03*
X147048000Y-87500000D03*
X147048000Y-86230000D03*
X147048000Y-84960000D03*
X147048000Y-83690000D03*
X147048000Y-88770000D03*
D11*
X141100000Y-48500000D03*
X149900000Y-48500000D03*
D12*
X143000000Y-55500000D03*
X145500000Y-55500000D03*
X148000000Y-55500000D03*
D13*
X152500000Y-131850000D03*
X152500000Y-129150000D03*
X151500000Y-86150000D03*
X151500000Y-83450000D03*
D14*
X145350000Y-80500000D03*
X142650000Y-80500000D03*
D13*
X151500000Y-89650000D03*
X151500000Y-92350000D03*
X138000000Y-81250000D03*
X138000000Y-83950000D03*
X138500000Y-105350000D03*
X138500000Y-108050000D03*
X151500000Y-95650000D03*
X151500000Y-98350000D03*
D15*
X145500000Y-144980000D03*
X145500000Y-141880000D03*
X145500000Y-133580000D03*
D16*
X141560000Y-63540000D03*
X144100000Y-63540000D03*
X141560000Y-66080000D03*
X144100000Y-66080000D03*
X141560000Y-68620000D03*
X144100000Y-68620000D03*
X141560000Y-71160000D03*
X144100000Y-71160000D03*
X141560000Y-73700000D03*
D17*
X144100000Y-73700000D03*
D15*
X145500000Y-116980000D03*
X145500000Y-113880000D03*
X145500000Y-105580000D03*
X145500000Y-130880000D03*
X145500000Y-127780000D03*
X145500000Y-119480000D03*
D18*
X149350000Y-71700000D03*
X152650000Y-71700000D03*
X152650000Y-67500000D03*
X149350000Y-67500000D03*
D19*
X151000000Y-79200000D03*
X151000000Y-75600000D03*
X151000000Y-60200000D03*
X151000000Y-63800000D03*
D20*
X140000000Y-94500000D03*
X142676402Y-87323598D03*
X147000000Y-95000000D03*
X151200000Y-66800000D03*
X149000000Y-98500000D03*
X149000000Y-88000000D03*
X149000000Y-81500000D03*
X144500000Y-95500000D03*
D21*
X147050000Y-119480000D02*
X145500000Y-119480000D01*
X151500000Y-115030000D02*
X147050000Y-119480000D01*
X151500000Y-98350000D02*
X151500000Y-115030000D01*
X141560000Y-63540000D02*
X144100000Y-63540000D01*
X149350000Y-66600000D02*
X149350000Y-67500000D01*
X146290000Y-63540000D02*
X149350000Y-66600000D01*
X144100000Y-63540000D02*
X146290000Y-63540000D01*
X146100000Y-71700000D02*
X144100000Y-73700000D01*
X149350000Y-71700000D02*
X146100000Y-71700000D01*
X141560000Y-73700000D02*
X144100000Y-73700000D01*
X151820000Y-133580000D02*
X145500000Y-133580000D01*
X152500000Y-132900000D02*
X151820000Y-133580000D01*
X152500000Y-131850000D02*
X152500000Y-132900000D01*
D22*
X140452000Y-83690000D02*
X140698000Y-83690000D01*
X140192000Y-83950000D02*
X140452000Y-83690000D01*
X138000000Y-83950000D02*
X140192000Y-83950000D01*
X140698000Y-84960000D02*
X140698000Y-83690000D01*
X138000000Y-96461500D02*
X138000000Y-83950000D01*
X139903500Y-98365000D02*
X138000000Y-96461500D01*
X140725000Y-98365000D02*
X139903500Y-98365000D01*
X151500000Y-91350000D02*
X151500000Y-92350000D01*
X151460000Y-91310000D02*
X151500000Y-91350000D01*
X147048000Y-91310000D02*
X151460000Y-91310000D01*
D21*
X142744098Y-87323598D02*
X142676402Y-87323598D01*
X147048000Y-91310000D02*
X146730500Y-91310000D01*
X146730500Y-91310000D02*
X142744098Y-87323598D01*
X140359999Y-60640001D02*
X145500000Y-55500000D01*
X140359999Y-77259999D02*
X140359999Y-60640001D01*
X142650000Y-79550000D02*
X140359999Y-77259999D01*
X142650000Y-80500000D02*
X142650000Y-79550000D01*
D22*
X151260000Y-83690000D02*
X151500000Y-83450000D01*
X147048000Y-83690000D02*
X151260000Y-83690000D01*
D21*
X152450000Y-83450000D02*
X151500000Y-83450000D01*
X152500000Y-83500000D02*
X152450000Y-83450000D01*
X152500000Y-129150000D02*
X152500000Y-83500000D01*
X143830000Y-108050000D02*
X145500000Y-106380000D01*
X145500000Y-106380000D02*
X145500000Y-105580000D01*
X138500000Y-108050000D02*
X143830000Y-108050000D01*
X147075000Y-97095000D02*
X147075000Y-95075000D01*
X147075000Y-95075000D02*
X147000000Y-95000000D01*
X144000000Y-90484500D02*
X144000000Y-92000000D01*
X141015500Y-87500000D02*
X144000000Y-90484500D01*
X140698000Y-87500000D02*
X141015500Y-87500000D01*
X147000000Y-95000000D02*
X144000000Y-92000000D01*
X151000000Y-66600000D02*
X151000000Y-65400000D01*
X151000000Y-65400000D02*
X151000000Y-63800000D01*
X151900000Y-67500000D02*
X151200000Y-66800000D01*
X152650000Y-67500000D02*
X151900000Y-67500000D01*
X151200000Y-66800000D02*
X151000000Y-66600000D01*
X152650000Y-78650000D02*
X152100000Y-79200000D01*
X152100000Y-79200000D02*
X151000000Y-79200000D01*
X152650000Y-71700000D02*
X152650000Y-78650000D01*
X149000000Y-99851500D02*
X149000000Y-98500000D01*
X147075000Y-100905000D02*
X147946500Y-100905000D01*
X147946500Y-100905000D02*
X149000000Y-99851500D01*
X149000000Y-88000000D02*
X148500000Y-87500000D01*
X148500000Y-87500000D02*
X147048000Y-87500000D01*
X151000000Y-79500000D02*
X151000000Y-79200000D01*
X149000000Y-81500000D02*
X151000000Y-79500000D01*
D22*
X141519500Y-86230000D02*
X140698000Y-86230000D01*
X141594501Y-86305001D02*
X141519500Y-86230000D01*
X141594501Y-87267003D02*
X141594501Y-86305001D01*
X149977498Y-95650000D02*
X141594501Y-87267003D01*
X151500000Y-95650000D02*
X149977498Y-95650000D01*
X142071511Y-89322011D02*
X141519500Y-88770000D01*
X141519500Y-88770000D02*
X140698000Y-88770000D01*
X142071511Y-102678489D02*
X142071511Y-89322011D01*
X139400000Y-105350000D02*
X142071511Y-102678489D01*
X138500000Y-105350000D02*
X139400000Y-105350000D01*
X151110000Y-90040000D02*
X151500000Y-89650000D01*
X147048000Y-90040000D02*
X151110000Y-90040000D01*
X139668502Y-81250000D02*
X144000000Y-85581498D01*
X138000000Y-81250000D02*
X139668502Y-81250000D01*
X146226500Y-90040000D02*
X147048000Y-90040000D01*
X144000000Y-87813500D02*
X146226500Y-90040000D01*
X144000000Y-85581498D02*
X144000000Y-87813500D01*
X151500000Y-85150000D02*
X151500000Y-86150000D01*
X151310000Y-84960000D02*
X151500000Y-85150000D01*
X147048000Y-84960000D02*
X151310000Y-84960000D01*
X146226500Y-84960000D02*
X147048000Y-84960000D01*
X145350000Y-84083500D02*
X146226500Y-84960000D01*
X145350000Y-80500000D02*
X145350000Y-84083500D01*
D21*
X144500000Y-96661500D02*
X144500000Y-95500000D01*
X147075000Y-98365000D02*
X146203500Y-98365000D01*
X146203500Y-98365000D02*
X144500000Y-96661500D01*
D22*
X141519500Y-91310000D02*
X140698000Y-91310000D01*
X141621501Y-100829999D02*
X141621501Y-91412001D01*
X141546500Y-100905000D02*
X141621501Y-100829999D01*
X141621501Y-91412001D02*
X141519500Y-91310000D01*
X140725000Y-100905000D02*
X141546500Y-100905000D01*
X140698000Y-90040000D02*
X140698000Y-91310000D01*
D23*
G36*
X154065001Y-146265000D02*
G01*
X136735000Y-146265000D01*
X136735000Y-144480000D01*
X143611928Y-144480000D01*
X143611928Y-145480000D01*
X143624188Y-145604482D01*
X143660498Y-145724180D01*
X143719463Y-145834494D01*
X143798815Y-145931185D01*
X143895506Y-146010537D01*
X144005820Y-146069502D01*
X144125518Y-146105812D01*
X144250000Y-146118072D01*
X146750000Y-146118072D01*
X146874482Y-146105812D01*
X146994180Y-146069502D01*
X147104494Y-146010537D01*
X147201185Y-145931185D01*
X147280537Y-145834494D01*
X147339502Y-145724180D01*
X147375812Y-145604482D01*
X147388072Y-145480000D01*
X147388072Y-144480000D01*
X147375812Y-144355518D01*
X147339502Y-144235820D01*
X147280537Y-144125506D01*
X147201185Y-144028815D01*
X147104494Y-143949463D01*
X146994180Y-143890498D01*
X146874482Y-143854188D01*
X146750000Y-143841928D01*
X144250000Y-143841928D01*
X144125518Y-143854188D01*
X144005820Y-143890498D01*
X143895506Y-143949463D01*
X143798815Y-144028815D01*
X143719463Y-144125506D01*
X143660498Y-144235820D01*
X143624188Y-144355518D01*
X143611928Y-144480000D01*
X136735000Y-144480000D01*
X136735000Y-141380000D01*
X143611928Y-141380000D01*
X143611928Y-142380000D01*
X143624188Y-142504482D01*
X143660498Y-142624180D01*
X143719463Y-142734494D01*
X143798815Y-142831185D01*
X143895506Y-142910537D01*
X144005820Y-142969502D01*
X144125518Y-143005812D01*
X144250000Y-143018072D01*
X146750000Y-143018072D01*
X146874482Y-143005812D01*
X146994180Y-142969502D01*
X147104494Y-142910537D01*
X147201185Y-142831185D01*
X147280537Y-142734494D01*
X147339502Y-142624180D01*
X147375812Y-142504482D01*
X147388072Y-142380000D01*
X147388072Y-141380000D01*
X147375812Y-141255518D01*
X147339502Y-141135820D01*
X147280537Y-141025506D01*
X147201185Y-140928815D01*
X147104494Y-140849463D01*
X146994180Y-140790498D01*
X146874482Y-140754188D01*
X146750000Y-140741928D01*
X144250000Y-140741928D01*
X144125518Y-140754188D01*
X144005820Y-140790498D01*
X143895506Y-140849463D01*
X143798815Y-140928815D01*
X143719463Y-141025506D01*
X143660498Y-141135820D01*
X143624188Y-141255518D01*
X143611928Y-141380000D01*
X136735000Y-141380000D01*
X136735000Y-138314344D01*
X143615000Y-138314344D01*
X143615000Y-138685656D01*
X143687439Y-139049834D01*
X143829534Y-139392882D01*
X144035825Y-139701618D01*
X144298382Y-139964175D01*
X144607118Y-140170466D01*
X144950166Y-140312561D01*
X145314344Y-140385000D01*
X145685656Y-140385000D01*
X146049834Y-140312561D01*
X146392882Y-140170466D01*
X146701618Y-139964175D01*
X146964175Y-139701618D01*
X147170466Y-139392882D01*
X147312561Y-139049834D01*
X147385000Y-138685656D01*
X147385000Y-138314344D01*
X147312561Y-137950166D01*
X147170466Y-137607118D01*
X146964175Y-137298382D01*
X146701618Y-137035825D01*
X146392882Y-136829534D01*
X146049834Y-136687439D01*
X145685656Y-136615000D01*
X145314344Y-136615000D01*
X144950166Y-136687439D01*
X144607118Y-136829534D01*
X144298382Y-137035825D01*
X144035825Y-137298382D01*
X143829534Y-137607118D01*
X143687439Y-137950166D01*
X143615000Y-138314344D01*
X136735000Y-138314344D01*
X136735000Y-130380000D01*
X143611928Y-130380000D01*
X143611928Y-131380000D01*
X143624188Y-131504482D01*
X143660498Y-131624180D01*
X143719463Y-131734494D01*
X143798815Y-131831185D01*
X143895506Y-131910537D01*
X144005820Y-131969502D01*
X144125518Y-132005812D01*
X144250000Y-132018072D01*
X146750000Y-132018072D01*
X146874482Y-132005812D01*
X146994180Y-131969502D01*
X147104494Y-131910537D01*
X147201185Y-131831185D01*
X147280537Y-131734494D01*
X147339502Y-131624180D01*
X147375812Y-131504482D01*
X147388072Y-131380000D01*
X147388072Y-130380000D01*
X147375812Y-130255518D01*
X147339502Y-130135820D01*
X147280537Y-130025506D01*
X147201185Y-129928815D01*
X147104494Y-129849463D01*
X146994180Y-129790498D01*
X146874482Y-129754188D01*
X146750000Y-129741928D01*
X144250000Y-129741928D01*
X144125518Y-129754188D01*
X144005820Y-129790498D01*
X143895506Y-129849463D01*
X143798815Y-129928815D01*
X143719463Y-130025506D01*
X143660498Y-130135820D01*
X143624188Y-130255518D01*
X143611928Y-130380000D01*
X136735000Y-130380000D01*
X136735000Y-127280000D01*
X143611928Y-127280000D01*
X143611928Y-128280000D01*
X143624188Y-128404482D01*
X143660498Y-128524180D01*
X143719463Y-128634494D01*
X143798815Y-128731185D01*
X143895506Y-128810537D01*
X144005820Y-128869502D01*
X144125518Y-128905812D01*
X144250000Y-128918072D01*
X146750000Y-128918072D01*
X146874482Y-128905812D01*
X146994180Y-128869502D01*
X147104494Y-128810537D01*
X147201185Y-128731185D01*
X147280537Y-128634494D01*
X147339502Y-128524180D01*
X147375812Y-128404482D01*
X147388072Y-128280000D01*
X147388072Y-127280000D01*
X147375812Y-127155518D01*
X147339502Y-127035820D01*
X147280537Y-126925506D01*
X147201185Y-126828815D01*
X147104494Y-126749463D01*
X146994180Y-126690498D01*
X146874482Y-126654188D01*
X146750000Y-126641928D01*
X144250000Y-126641928D01*
X144125518Y-126654188D01*
X144005820Y-126690498D01*
X143895506Y-126749463D01*
X143798815Y-126828815D01*
X143719463Y-126925506D01*
X143660498Y-127035820D01*
X143624188Y-127155518D01*
X143611928Y-127280000D01*
X136735000Y-127280000D01*
X136735000Y-124214344D01*
X143615000Y-124214344D01*
X143615000Y-124585656D01*
X143687439Y-124949834D01*
X143829534Y-125292882D01*
X144035825Y-125601618D01*
X144298382Y-125864175D01*
X144607118Y-126070466D01*
X144950166Y-126212561D01*
X145314344Y-126285000D01*
X145685656Y-126285000D01*
X146049834Y-126212561D01*
X146392882Y-126070466D01*
X146701618Y-125864175D01*
X146964175Y-125601618D01*
X147170466Y-125292882D01*
X147312561Y-124949834D01*
X147385000Y-124585656D01*
X147385000Y-124214344D01*
X147312561Y-123850166D01*
X147170466Y-123507118D01*
X146964175Y-123198382D01*
X146701618Y-122935825D01*
X146392882Y-122729534D01*
X146049834Y-122587439D01*
X145685656Y-122515000D01*
X145314344Y-122515000D01*
X144950166Y-122587439D01*
X144607118Y-122729534D01*
X144298382Y-122935825D01*
X144035825Y-123198382D01*
X143829534Y-123507118D01*
X143687439Y-123850166D01*
X143615000Y-124214344D01*
X136735000Y-124214344D01*
X136735000Y-116480000D01*
X143611928Y-116480000D01*
X143611928Y-117480000D01*
X143624188Y-117604482D01*
X143660498Y-117724180D01*
X143719463Y-117834494D01*
X143798815Y-117931185D01*
X143895506Y-118010537D01*
X144005820Y-118069502D01*
X144125518Y-118105812D01*
X144250000Y-118118072D01*
X146750000Y-118118072D01*
X146874482Y-118105812D01*
X146994180Y-118069502D01*
X147104494Y-118010537D01*
X147201185Y-117931185D01*
X147280537Y-117834494D01*
X147339502Y-117724180D01*
X147375812Y-117604482D01*
X147388072Y-117480000D01*
X147388072Y-116480000D01*
X147375812Y-116355518D01*
X147339502Y-116235820D01*
X147280537Y-116125506D01*
X147201185Y-116028815D01*
X147104494Y-115949463D01*
X146994180Y-115890498D01*
X146874482Y-115854188D01*
X146750000Y-115841928D01*
X144250000Y-115841928D01*
X144125518Y-115854188D01*
X144005820Y-115890498D01*
X143895506Y-115949463D01*
X143798815Y-116028815D01*
X143719463Y-116125506D01*
X143660498Y-116235820D01*
X143624188Y-116355518D01*
X143611928Y-116480000D01*
X136735000Y-116480000D01*
X136735000Y-113380000D01*
X143611928Y-113380000D01*
X143611928Y-114380000D01*
X143624188Y-114504482D01*
X143660498Y-114624180D01*
X143719463Y-114734494D01*
X143798815Y-114831185D01*
X143895506Y-114910537D01*
X144005820Y-114969502D01*
X144125518Y-115005812D01*
X144250000Y-115018072D01*
X146750000Y-115018072D01*
X146874482Y-115005812D01*
X146994180Y-114969502D01*
X147104494Y-114910537D01*
X147201185Y-114831185D01*
X147280537Y-114734494D01*
X147339502Y-114624180D01*
X147375812Y-114504482D01*
X147388072Y-114380000D01*
X147388072Y-113380000D01*
X147375812Y-113255518D01*
X147339502Y-113135820D01*
X147280537Y-113025506D01*
X147201185Y-112928815D01*
X147104494Y-112849463D01*
X146994180Y-112790498D01*
X146874482Y-112754188D01*
X146750000Y-112741928D01*
X144250000Y-112741928D01*
X144125518Y-112754188D01*
X144005820Y-112790498D01*
X143895506Y-112849463D01*
X143798815Y-112928815D01*
X143719463Y-113025506D01*
X143660498Y-113135820D01*
X143624188Y-113255518D01*
X143611928Y-113380000D01*
X136735000Y-113380000D01*
X136735000Y-110314344D01*
X143615000Y-110314344D01*
X143615000Y-110685656D01*
X143687439Y-111049834D01*
X143829534Y-111392882D01*
X144035825Y-111701618D01*
X144298382Y-111964175D01*
X144607118Y-112170466D01*
X144950166Y-112312561D01*
X145314344Y-112385000D01*
X145685656Y-112385000D01*
X146049834Y-112312561D01*
X146392882Y-112170466D01*
X146701618Y-111964175D01*
X146964175Y-111701618D01*
X147170466Y-111392882D01*
X147312561Y-111049834D01*
X147385000Y-110685656D01*
X147385000Y-110314344D01*
X147312561Y-109950166D01*
X147170466Y-109607118D01*
X146964175Y-109298382D01*
X146701618Y-109035825D01*
X146392882Y-108829534D01*
X146049834Y-108687439D01*
X145685656Y-108615000D01*
X145314344Y-108615000D01*
X144950166Y-108687439D01*
X144607118Y-108829534D01*
X144298382Y-109035825D01*
X144035825Y-109298382D01*
X143829534Y-109607118D01*
X143687439Y-109950166D01*
X143615000Y-110314344D01*
X136735000Y-110314344D01*
X136735000Y-84860124D01*
X136760498Y-84944180D01*
X136819463Y-85054494D01*
X136898815Y-85151185D01*
X136995506Y-85230537D01*
X137105820Y-85289502D01*
X137225518Y-85325812D01*
X137240001Y-85327238D01*
X137240000Y-96424178D01*
X137236324Y-96461500D01*
X137240000Y-96498822D01*
X137240000Y-96498832D01*
X137250997Y-96610485D01*
X137278169Y-96700060D01*
X137294454Y-96753746D01*
X137365026Y-96885776D01*
X137401761Y-96930537D01*
X137459999Y-97001501D01*
X137489003Y-97025304D01*
X139339701Y-98876003D01*
X139363499Y-98905001D01*
X139392497Y-98928799D01*
X139479224Y-98999974D01*
X139602248Y-99065733D01*
X139568452Y-99126334D01*
X139530011Y-99245365D01*
X139518500Y-99349250D01*
X139677250Y-99508000D01*
X140598000Y-99508000D01*
X140598000Y-99488000D01*
X140852000Y-99488000D01*
X140852000Y-99508000D01*
X140861501Y-99508000D01*
X140861501Y-99762000D01*
X140852000Y-99762000D01*
X140852000Y-99782000D01*
X140598000Y-99782000D01*
X140598000Y-99762000D01*
X139677250Y-99762000D01*
X139518500Y-99920750D01*
X139530011Y-100024635D01*
X139568452Y-100143666D01*
X139629376Y-100252910D01*
X139644325Y-100270476D01*
X139622963Y-100296506D01*
X139563998Y-100406820D01*
X139527688Y-100526518D01*
X139515428Y-100651000D01*
X139515428Y-101159000D01*
X139527688Y-101283482D01*
X139563998Y-101403180D01*
X139622963Y-101513494D01*
X139702315Y-101610185D01*
X139799006Y-101689537D01*
X139909320Y-101748502D01*
X140029018Y-101784812D01*
X140153500Y-101797072D01*
X141296500Y-101797072D01*
X141311511Y-101795594D01*
X141311511Y-102363687D01*
X139560101Y-104115098D01*
X139504494Y-104069463D01*
X139394180Y-104010498D01*
X139274482Y-103974188D01*
X139150000Y-103961928D01*
X137850000Y-103961928D01*
X137725518Y-103974188D01*
X137605820Y-104010498D01*
X137495506Y-104069463D01*
X137398815Y-104148815D01*
X137319463Y-104245506D01*
X137260498Y-104355820D01*
X137224188Y-104475518D01*
X137211928Y-104600000D01*
X137211928Y-106100000D01*
X137224188Y-106224482D01*
X137260498Y-106344180D01*
X137319463Y-106454494D01*
X137398815Y-106551185D01*
X137495506Y-106630537D01*
X137605820Y-106689502D01*
X137640427Y-106700000D01*
X137605820Y-106710498D01*
X137495506Y-106769463D01*
X137398815Y-106848815D01*
X137319463Y-106945506D01*
X137260498Y-107055820D01*
X137224188Y-107175518D01*
X137211928Y-107300000D01*
X137211928Y-108800000D01*
X137224188Y-108924482D01*
X137260498Y-109044180D01*
X137319463Y-109154494D01*
X137398815Y-109251185D01*
X137495506Y-109330537D01*
X137605820Y-109389502D01*
X137725518Y-109425812D01*
X137850000Y-109438072D01*
X139150000Y-109438072D01*
X139274482Y-109425812D01*
X139394180Y-109389502D01*
X139504494Y-109330537D01*
X139601185Y-109251185D01*
X139680537Y-109154494D01*
X139739502Y-109044180D01*
X139775812Y-108924482D01*
X139784625Y-108835000D01*
X143791447Y-108835000D01*
X143830000Y-108838797D01*
X143868553Y-108835000D01*
X143868561Y-108835000D01*
X143983887Y-108823641D01*
X144131860Y-108778754D01*
X144268233Y-108705862D01*
X144387764Y-108607764D01*
X144412347Y-108577810D01*
X146027811Y-106962346D01*
X146057764Y-106937764D01*
X146155862Y-106818233D01*
X146209399Y-106718072D01*
X146750000Y-106718072D01*
X146874482Y-106705812D01*
X146994180Y-106669502D01*
X147104494Y-106610537D01*
X147201185Y-106531185D01*
X147280537Y-106434494D01*
X147339502Y-106324180D01*
X147375812Y-106204482D01*
X147388072Y-106080000D01*
X147388072Y-105080000D01*
X147375812Y-104955518D01*
X147339502Y-104835820D01*
X147280537Y-104725506D01*
X147201185Y-104628815D01*
X147104494Y-104549463D01*
X146994180Y-104490498D01*
X146874482Y-104454188D01*
X146750000Y-104441928D01*
X144250000Y-104441928D01*
X144125518Y-104454188D01*
X144005820Y-104490498D01*
X143895506Y-104549463D01*
X143798815Y-104628815D01*
X143719463Y-104725506D01*
X143660498Y-104835820D01*
X143624188Y-104955518D01*
X143611928Y-105080000D01*
X143611928Y-106080000D01*
X143624188Y-106204482D01*
X143660498Y-106324180D01*
X143719463Y-106434494D01*
X143798815Y-106531185D01*
X143895506Y-106610537D01*
X144005820Y-106669502D01*
X144078342Y-106691501D01*
X143504843Y-107265000D01*
X139784625Y-107265000D01*
X139775812Y-107175518D01*
X139739502Y-107055820D01*
X139680537Y-106945506D01*
X139601185Y-106848815D01*
X139504494Y-106769463D01*
X139394180Y-106710498D01*
X139359573Y-106700000D01*
X139394180Y-106689502D01*
X139504494Y-106630537D01*
X139601185Y-106551185D01*
X139680537Y-106454494D01*
X139739502Y-106344180D01*
X139775812Y-106224482D01*
X139788072Y-106100000D01*
X139788072Y-106004326D01*
X139824276Y-105984974D01*
X139940001Y-105890001D01*
X139963804Y-105860997D01*
X142582515Y-103242287D01*
X142611512Y-103218490D01*
X142637843Y-103186406D01*
X142706485Y-103102766D01*
X142777057Y-102970736D01*
X142777057Y-102970735D01*
X142820514Y-102827475D01*
X142831511Y-102715822D01*
X142831511Y-102715813D01*
X142835187Y-102678490D01*
X142831511Y-102641167D01*
X142831511Y-90426169D01*
X143215000Y-90809658D01*
X143215001Y-91961438D01*
X143211203Y-92000000D01*
X143226359Y-92153886D01*
X143271246Y-92301859D01*
X143271247Y-92301860D01*
X143344139Y-92438233D01*
X143384690Y-92487644D01*
X143417655Y-92527812D01*
X143417659Y-92527816D01*
X143442237Y-92557764D01*
X143472185Y-92582342D01*
X145965000Y-95075157D01*
X145965000Y-95101939D01*
X146004774Y-95301898D01*
X146082795Y-95490256D01*
X146196063Y-95659774D01*
X146290001Y-95753712D01*
X146290000Y-96242191D01*
X146259320Y-96251498D01*
X146149006Y-96310463D01*
X146052315Y-96389815D01*
X145972963Y-96486506D01*
X145913998Y-96596820D01*
X145877688Y-96716518D01*
X145865428Y-96841000D01*
X145865428Y-96916771D01*
X145285000Y-96336343D01*
X145285000Y-96178711D01*
X145303937Y-96159774D01*
X145417205Y-95990256D01*
X145495226Y-95801898D01*
X145535000Y-95601939D01*
X145535000Y-95398061D01*
X145495226Y-95198102D01*
X145417205Y-95009744D01*
X145303937Y-94840226D01*
X145159774Y-94696063D01*
X144990256Y-94582795D01*
X144801898Y-94504774D01*
X144601939Y-94465000D01*
X144398061Y-94465000D01*
X144198102Y-94504774D01*
X144009744Y-94582795D01*
X143840226Y-94696063D01*
X143696063Y-94840226D01*
X143582795Y-95009744D01*
X143504774Y-95198102D01*
X143465000Y-95398061D01*
X143465000Y-95601939D01*
X143504774Y-95801898D01*
X143582795Y-95990256D01*
X143696063Y-96159774D01*
X143715000Y-96178711D01*
X143715000Y-96622947D01*
X143711203Y-96661500D01*
X143715000Y-96700053D01*
X143715000Y-96700060D01*
X143726359Y-96815386D01*
X143771246Y-96963359D01*
X143844138Y-97099732D01*
X143942236Y-97219264D01*
X143972190Y-97243847D01*
X145621153Y-98892810D01*
X145645736Y-98922764D01*
X145765267Y-99020862D01*
X145901640Y-99093754D01*
X145931560Y-99102830D01*
X145918452Y-99126334D01*
X145880011Y-99245365D01*
X145868500Y-99349250D01*
X146027250Y-99508000D01*
X146948000Y-99508000D01*
X146948000Y-99488000D01*
X147202000Y-99488000D01*
X147202000Y-99508000D01*
X147222000Y-99508000D01*
X147222000Y-99762000D01*
X147202000Y-99762000D01*
X147202000Y-99782000D01*
X146948000Y-99782000D01*
X146948000Y-99762000D01*
X146027250Y-99762000D01*
X145868500Y-99920750D01*
X145880011Y-100024635D01*
X145918452Y-100143666D01*
X145979376Y-100252910D01*
X145994325Y-100270476D01*
X145972963Y-100296506D01*
X145913998Y-100406820D01*
X145877688Y-100526518D01*
X145865428Y-100651000D01*
X145865428Y-101159000D01*
X145877688Y-101283482D01*
X145913998Y-101403180D01*
X145972963Y-101513494D01*
X146052315Y-101610185D01*
X146149006Y-101689537D01*
X146259320Y-101748502D01*
X146379018Y-101784812D01*
X146503500Y-101797072D01*
X147646500Y-101797072D01*
X147770982Y-101784812D01*
X147890680Y-101748502D01*
X148000994Y-101689537D01*
X148002526Y-101688280D01*
X148100387Y-101678641D01*
X148248360Y-101633754D01*
X148384733Y-101560862D01*
X148504264Y-101462764D01*
X148528847Y-101432810D01*
X149527817Y-100433841D01*
X149557764Y-100409264D01*
X149584089Y-100377188D01*
X149650303Y-100296506D01*
X149655862Y-100289733D01*
X149728754Y-100153360D01*
X149738874Y-100120000D01*
X149773642Y-100005387D01*
X149781977Y-99920750D01*
X149785000Y-99890061D01*
X149785000Y-99890056D01*
X149788797Y-99851500D01*
X149785000Y-99812945D01*
X149785000Y-99178711D01*
X149803937Y-99159774D01*
X149917205Y-98990256D01*
X149995226Y-98801898D01*
X150035000Y-98601939D01*
X150035000Y-98398061D01*
X149995226Y-98198102D01*
X149917205Y-98009744D01*
X149803937Y-97840226D01*
X149659774Y-97696063D01*
X149490256Y-97582795D01*
X149301898Y-97504774D01*
X149101939Y-97465000D01*
X148898061Y-97465000D01*
X148698102Y-97504774D01*
X148509744Y-97582795D01*
X148340226Y-97696063D01*
X148212827Y-97823462D01*
X148177037Y-97756506D01*
X148155284Y-97730000D01*
X148177037Y-97703494D01*
X148236002Y-97593180D01*
X148272312Y-97473482D01*
X148284572Y-97349000D01*
X148284572Y-96841000D01*
X148272312Y-96716518D01*
X148236002Y-96596820D01*
X148177037Y-96486506D01*
X148097685Y-96389815D01*
X148000994Y-96310463D01*
X147890680Y-96251498D01*
X147860000Y-96242191D01*
X147860000Y-95575870D01*
X147917205Y-95490256D01*
X147995226Y-95301898D01*
X148035000Y-95101939D01*
X148035000Y-94898061D01*
X148006257Y-94753561D01*
X149413699Y-96161003D01*
X149437497Y-96190001D01*
X149466495Y-96213799D01*
X149553221Y-96284974D01*
X149685251Y-96355546D01*
X149828512Y-96399003D01*
X149940165Y-96410000D01*
X149940174Y-96410000D01*
X149977497Y-96413676D01*
X150014820Y-96410000D01*
X150212913Y-96410000D01*
X150224188Y-96524482D01*
X150260498Y-96644180D01*
X150319463Y-96754494D01*
X150398815Y-96851185D01*
X150495506Y-96930537D01*
X150605820Y-96989502D01*
X150640427Y-97000000D01*
X150605820Y-97010498D01*
X150495506Y-97069463D01*
X150398815Y-97148815D01*
X150319463Y-97245506D01*
X150260498Y-97355820D01*
X150224188Y-97475518D01*
X150211928Y-97600000D01*
X150211928Y-99100000D01*
X150224188Y-99224482D01*
X150260498Y-99344180D01*
X150319463Y-99454494D01*
X150398815Y-99551185D01*
X150495506Y-99630537D01*
X150605820Y-99689502D01*
X150715000Y-99722621D01*
X150715001Y-114704841D01*
X147017096Y-118402747D01*
X146994180Y-118390498D01*
X146874482Y-118354188D01*
X146750000Y-118341928D01*
X144250000Y-118341928D01*
X144125518Y-118354188D01*
X144005820Y-118390498D01*
X143895506Y-118449463D01*
X143798815Y-118528815D01*
X143719463Y-118625506D01*
X143660498Y-118735820D01*
X143624188Y-118855518D01*
X143611928Y-118980000D01*
X143611928Y-119980000D01*
X143624188Y-120104482D01*
X143660498Y-120224180D01*
X143719463Y-120334494D01*
X143798815Y-120431185D01*
X143895506Y-120510537D01*
X144005820Y-120569502D01*
X144125518Y-120605812D01*
X144250000Y-120618072D01*
X146750000Y-120618072D01*
X146874482Y-120605812D01*
X146994180Y-120569502D01*
X147104494Y-120510537D01*
X147201185Y-120431185D01*
X147280537Y-120334494D01*
X147339502Y-120224180D01*
X147343403Y-120211319D01*
X147351860Y-120208754D01*
X147488233Y-120135862D01*
X147607764Y-120037764D01*
X147632347Y-120007810D01*
X151715000Y-115925158D01*
X151715000Y-127777379D01*
X151605820Y-127810498D01*
X151495506Y-127869463D01*
X151398815Y-127948815D01*
X151319463Y-128045506D01*
X151260498Y-128155820D01*
X151224188Y-128275518D01*
X151211928Y-128400000D01*
X151211928Y-129900000D01*
X151224188Y-130024482D01*
X151260498Y-130144180D01*
X151319463Y-130254494D01*
X151398815Y-130351185D01*
X151495506Y-130430537D01*
X151605820Y-130489502D01*
X151640427Y-130500000D01*
X151605820Y-130510498D01*
X151495506Y-130569463D01*
X151398815Y-130648815D01*
X151319463Y-130745506D01*
X151260498Y-130855820D01*
X151224188Y-130975518D01*
X151211928Y-131100000D01*
X151211928Y-132600000D01*
X151224188Y-132724482D01*
X151245579Y-132795000D01*
X147317683Y-132795000D01*
X147280537Y-132725506D01*
X147201185Y-132628815D01*
X147104494Y-132549463D01*
X146994180Y-132490498D01*
X146874482Y-132454188D01*
X146750000Y-132441928D01*
X144250000Y-132441928D01*
X144125518Y-132454188D01*
X144005820Y-132490498D01*
X143895506Y-132549463D01*
X143798815Y-132628815D01*
X143719463Y-132725506D01*
X143660498Y-132835820D01*
X143624188Y-132955518D01*
X143611928Y-133080000D01*
X143611928Y-134080000D01*
X143624188Y-134204482D01*
X143660498Y-134324180D01*
X143719463Y-134434494D01*
X143798815Y-134531185D01*
X143895506Y-134610537D01*
X144005820Y-134669502D01*
X144125518Y-134705812D01*
X144250000Y-134718072D01*
X146750000Y-134718072D01*
X146874482Y-134705812D01*
X146994180Y-134669502D01*
X147104494Y-134610537D01*
X147201185Y-134531185D01*
X147280537Y-134434494D01*
X147317683Y-134365000D01*
X151781447Y-134365000D01*
X151820000Y-134368797D01*
X151858553Y-134365000D01*
X151858561Y-134365000D01*
X151973887Y-134353641D01*
X152121860Y-134308754D01*
X152258233Y-134235862D01*
X152377764Y-134137764D01*
X152402347Y-134107811D01*
X153027815Y-133482343D01*
X153057764Y-133457764D01*
X153155862Y-133338233D01*
X153212699Y-133231897D01*
X153274482Y-133225812D01*
X153394180Y-133189502D01*
X153504494Y-133130537D01*
X153601185Y-133051185D01*
X153680537Y-132954494D01*
X153739502Y-132844180D01*
X153775812Y-132724482D01*
X153788072Y-132600000D01*
X153788072Y-131100000D01*
X153775812Y-130975518D01*
X153739502Y-130855820D01*
X153680537Y-130745506D01*
X153601185Y-130648815D01*
X153504494Y-130569463D01*
X153394180Y-130510498D01*
X153359573Y-130500000D01*
X153394180Y-130489502D01*
X153504494Y-130430537D01*
X153601185Y-130351185D01*
X153680537Y-130254494D01*
X153739502Y-130144180D01*
X153775812Y-130024482D01*
X153788072Y-129900000D01*
X153788072Y-128400000D01*
X153775812Y-128275518D01*
X153739502Y-128155820D01*
X153680537Y-128045506D01*
X153601185Y-127948815D01*
X153504494Y-127869463D01*
X153394180Y-127810498D01*
X153285000Y-127777379D01*
X153285000Y-83538556D01*
X153288797Y-83500000D01*
X153285000Y-83461445D01*
X153285000Y-83461439D01*
X153280628Y-83417049D01*
X153273642Y-83346114D01*
X153242371Y-83243028D01*
X153228754Y-83198140D01*
X153155862Y-83061767D01*
X153057764Y-82942236D01*
X153030302Y-82919698D01*
X153007764Y-82892236D01*
X152888233Y-82794138D01*
X152788072Y-82740601D01*
X152788072Y-82700000D01*
X152775812Y-82575518D01*
X152739502Y-82455820D01*
X152680537Y-82345506D01*
X152601185Y-82248815D01*
X152504494Y-82169463D01*
X152394180Y-82110498D01*
X152274482Y-82074188D01*
X152150000Y-82061928D01*
X150850000Y-82061928D01*
X150725518Y-82074188D01*
X150605820Y-82110498D01*
X150495506Y-82169463D01*
X150398815Y-82248815D01*
X150319463Y-82345506D01*
X150260498Y-82455820D01*
X150224188Y-82575518D01*
X150211928Y-82700000D01*
X150211928Y-82930000D01*
X148003893Y-82930000D01*
X147973994Y-82905463D01*
X147863680Y-82846498D01*
X147743982Y-82810188D01*
X147619500Y-82797928D01*
X146476500Y-82797928D01*
X146352018Y-82810188D01*
X146232320Y-82846498D01*
X146122006Y-82905463D01*
X146110000Y-82915316D01*
X146110000Y-81787087D01*
X146224482Y-81775812D01*
X146344180Y-81739502D01*
X146454494Y-81680537D01*
X146551185Y-81601185D01*
X146630537Y-81504494D01*
X146687427Y-81398061D01*
X147965000Y-81398061D01*
X147965000Y-81601939D01*
X148004774Y-81801898D01*
X148082795Y-81990256D01*
X148196063Y-82159774D01*
X148340226Y-82303937D01*
X148509744Y-82417205D01*
X148698102Y-82495226D01*
X148898061Y-82535000D01*
X149101939Y-82535000D01*
X149301898Y-82495226D01*
X149490256Y-82417205D01*
X149659774Y-82303937D01*
X149803937Y-82159774D01*
X149917205Y-81990256D01*
X149995226Y-81801898D01*
X150035000Y-81601939D01*
X150035000Y-81575157D01*
X150472085Y-81138072D01*
X151800000Y-81138072D01*
X151924482Y-81125812D01*
X152044180Y-81089502D01*
X152154494Y-81030537D01*
X152251185Y-80951185D01*
X152330537Y-80854494D01*
X152389502Y-80744180D01*
X152425812Y-80624482D01*
X152438072Y-80500000D01*
X152438072Y-79909399D01*
X152538233Y-79855862D01*
X152657764Y-79757764D01*
X152682346Y-79727811D01*
X153177815Y-79232343D01*
X153207764Y-79207764D01*
X153305862Y-79088233D01*
X153378754Y-78951860D01*
X153423641Y-78803887D01*
X153435000Y-78688561D01*
X153435000Y-78688554D01*
X153438797Y-78650001D01*
X153435000Y-78611448D01*
X153435000Y-72840957D01*
X153454494Y-72830537D01*
X153551185Y-72751185D01*
X153630537Y-72654494D01*
X153689502Y-72544180D01*
X153725812Y-72424482D01*
X153738072Y-72300000D01*
X153738072Y-71100000D01*
X153725812Y-70975518D01*
X153689502Y-70855820D01*
X153630537Y-70745506D01*
X153551185Y-70648815D01*
X153454494Y-70569463D01*
X153344180Y-70510498D01*
X153224482Y-70474188D01*
X153100000Y-70461928D01*
X152200000Y-70461928D01*
X152075518Y-70474188D01*
X151955820Y-70510498D01*
X151845506Y-70569463D01*
X151748815Y-70648815D01*
X151669463Y-70745506D01*
X151610498Y-70855820D01*
X151574188Y-70975518D01*
X151561928Y-71100000D01*
X151561928Y-72300000D01*
X151574188Y-72424482D01*
X151610498Y-72544180D01*
X151669463Y-72654494D01*
X151748815Y-72751185D01*
X151845506Y-72830537D01*
X151865000Y-72840957D01*
X151865000Y-73668330D01*
X151800000Y-73661928D01*
X151285750Y-73665000D01*
X151127000Y-73823750D01*
X151127000Y-75473000D01*
X151147000Y-75473000D01*
X151147000Y-75727000D01*
X151127000Y-75727000D01*
X151127000Y-75747000D01*
X150873000Y-75747000D01*
X150873000Y-75727000D01*
X149723750Y-75727000D01*
X149565000Y-75885750D01*
X149561928Y-76900000D01*
X149574188Y-77024482D01*
X149610498Y-77144180D01*
X149669463Y-77254494D01*
X149748815Y-77351185D01*
X149808296Y-77400000D01*
X149748815Y-77448815D01*
X149669463Y-77545506D01*
X149610498Y-77655820D01*
X149574188Y-77775518D01*
X149561928Y-77900000D01*
X149561928Y-79827914D01*
X148924843Y-80465000D01*
X148898061Y-80465000D01*
X148698102Y-80504774D01*
X148509744Y-80582795D01*
X148340226Y-80696063D01*
X148196063Y-80840226D01*
X148082795Y-81009744D01*
X148004774Y-81198102D01*
X147965000Y-81398061D01*
X146687427Y-81398061D01*
X146689502Y-81394180D01*
X146725812Y-81274482D01*
X146738072Y-81150000D01*
X146738072Y-79850000D01*
X146725812Y-79725518D01*
X146689502Y-79605820D01*
X146630537Y-79495506D01*
X146551185Y-79398815D01*
X146454494Y-79319463D01*
X146344180Y-79260498D01*
X146224482Y-79224188D01*
X146100000Y-79211928D01*
X144600000Y-79211928D01*
X144475518Y-79224188D01*
X144355820Y-79260498D01*
X144245506Y-79319463D01*
X144148815Y-79398815D01*
X144069463Y-79495506D01*
X144010498Y-79605820D01*
X144000000Y-79640427D01*
X143989502Y-79605820D01*
X143930537Y-79495506D01*
X143851185Y-79398815D01*
X143754494Y-79319463D01*
X143644180Y-79260498D01*
X143524482Y-79224188D01*
X143400000Y-79211928D01*
X143359399Y-79211928D01*
X143305862Y-79111767D01*
X143207764Y-78992236D01*
X143177816Y-78967658D01*
X141144999Y-76934842D01*
X141144999Y-75131544D01*
X141413740Y-75185000D01*
X141706260Y-75185000D01*
X141993158Y-75127932D01*
X142263411Y-75015990D01*
X142506632Y-74853475D01*
X142638487Y-74721620D01*
X142660498Y-74794180D01*
X142719463Y-74904494D01*
X142798815Y-75001185D01*
X142895506Y-75080537D01*
X143005820Y-75139502D01*
X143125518Y-75175812D01*
X143250000Y-75188072D01*
X144950000Y-75188072D01*
X145074482Y-75175812D01*
X145194180Y-75139502D01*
X145304494Y-75080537D01*
X145401185Y-75001185D01*
X145480537Y-74904494D01*
X145539502Y-74794180D01*
X145575812Y-74674482D01*
X145588072Y-74550000D01*
X145588072Y-74300000D01*
X149561928Y-74300000D01*
X149565000Y-75314250D01*
X149723750Y-75473000D01*
X150873000Y-75473000D01*
X150873000Y-73823750D01*
X150714250Y-73665000D01*
X150200000Y-73661928D01*
X150075518Y-73674188D01*
X149955820Y-73710498D01*
X149845506Y-73769463D01*
X149748815Y-73848815D01*
X149669463Y-73945506D01*
X149610498Y-74055820D01*
X149574188Y-74175518D01*
X149561928Y-74300000D01*
X145588072Y-74300000D01*
X145588072Y-73322085D01*
X146425158Y-72485000D01*
X148292546Y-72485000D01*
X148310498Y-72544180D01*
X148369463Y-72654494D01*
X148448815Y-72751185D01*
X148545506Y-72830537D01*
X148655820Y-72889502D01*
X148775518Y-72925812D01*
X148900000Y-72938072D01*
X149800000Y-72938072D01*
X149924482Y-72925812D01*
X150044180Y-72889502D01*
X150154494Y-72830537D01*
X150251185Y-72751185D01*
X150330537Y-72654494D01*
X150389502Y-72544180D01*
X150425812Y-72424482D01*
X150438072Y-72300000D01*
X150438072Y-71100000D01*
X150425812Y-70975518D01*
X150389502Y-70855820D01*
X150330537Y-70745506D01*
X150251185Y-70648815D01*
X150154494Y-70569463D01*
X150044180Y-70510498D01*
X149924482Y-70474188D01*
X149800000Y-70461928D01*
X148900000Y-70461928D01*
X148775518Y-70474188D01*
X148655820Y-70510498D01*
X148545506Y-70569463D01*
X148448815Y-70648815D01*
X148369463Y-70745506D01*
X148310498Y-70855820D01*
X148292546Y-70915000D01*
X146138552Y-70915000D01*
X146099999Y-70911203D01*
X146061446Y-70915000D01*
X146061439Y-70915000D01*
X145960490Y-70924943D01*
X145946112Y-70926359D01*
X145798140Y-70971246D01*
X145661767Y-71044138D01*
X145604095Y-71091469D01*
X145590007Y-71103031D01*
X145590611Y-71091469D01*
X145548599Y-70801981D01*
X145450919Y-70526253D01*
X145377472Y-70388843D01*
X145128397Y-70311208D01*
X144279605Y-71160000D01*
X144293748Y-71174143D01*
X144114143Y-71353748D01*
X144100000Y-71339605D01*
X143251208Y-72188397D01*
X143258542Y-72211928D01*
X143250000Y-72211928D01*
X143125518Y-72224188D01*
X143005820Y-72260498D01*
X142895506Y-72319463D01*
X142798815Y-72398815D01*
X142719463Y-72495506D01*
X142660498Y-72605820D01*
X142638487Y-72678380D01*
X142506632Y-72546525D01*
X142333271Y-72430689D01*
X142408792Y-72188397D01*
X141560000Y-71339605D01*
X141545858Y-71353748D01*
X141366253Y-71174143D01*
X141380395Y-71160000D01*
X141739605Y-71160000D01*
X142588397Y-72008792D01*
X142830000Y-71933486D01*
X143071603Y-72008792D01*
X143920395Y-71160000D01*
X143071603Y-70311208D01*
X142830000Y-70386514D01*
X142588397Y-70311208D01*
X141739605Y-71160000D01*
X141380395Y-71160000D01*
X141366253Y-71145858D01*
X141545858Y-70966253D01*
X141560000Y-70980395D01*
X142408792Y-70131603D01*
X142333486Y-69890000D01*
X142408792Y-69648397D01*
X143251208Y-69648397D01*
X143326514Y-69890000D01*
X143251208Y-70131603D01*
X144100000Y-70980395D01*
X144948792Y-70131603D01*
X144873486Y-69890000D01*
X144948792Y-69648397D01*
X144100000Y-68799605D01*
X143251208Y-69648397D01*
X142408792Y-69648397D01*
X141560000Y-68799605D01*
X141545858Y-68813748D01*
X141366253Y-68634143D01*
X141380395Y-68620000D01*
X141739605Y-68620000D01*
X142588397Y-69468792D01*
X142830000Y-69393486D01*
X143071603Y-69468792D01*
X143920395Y-68620000D01*
X144279605Y-68620000D01*
X145128397Y-69468792D01*
X145377472Y-69391157D01*
X145503371Y-69127117D01*
X145575339Y-68843589D01*
X145590611Y-68551469D01*
X145548599Y-68261981D01*
X145450919Y-67986253D01*
X145377472Y-67848843D01*
X145128397Y-67771208D01*
X144279605Y-68620000D01*
X143920395Y-68620000D01*
X143071603Y-67771208D01*
X142830000Y-67846514D01*
X142588397Y-67771208D01*
X141739605Y-68620000D01*
X141380395Y-68620000D01*
X141366253Y-68605858D01*
X141545858Y-68426253D01*
X141560000Y-68440395D01*
X142408792Y-67591603D01*
X142333486Y-67350000D01*
X142408792Y-67108397D01*
X143251208Y-67108397D01*
X143326514Y-67350000D01*
X143251208Y-67591603D01*
X144100000Y-68440395D01*
X144948792Y-67591603D01*
X144873486Y-67350000D01*
X144948792Y-67108397D01*
X144100000Y-66259605D01*
X143251208Y-67108397D01*
X142408792Y-67108397D01*
X141560000Y-66259605D01*
X141545858Y-66273748D01*
X141366253Y-66094143D01*
X141380395Y-66080000D01*
X141739605Y-66080000D01*
X142588397Y-66928792D01*
X142830000Y-66853486D01*
X143071603Y-66928792D01*
X143920395Y-66080000D01*
X144279605Y-66080000D01*
X145128397Y-66928792D01*
X145377472Y-66851157D01*
X145503371Y-66587117D01*
X145575339Y-66303589D01*
X145590611Y-66011469D01*
X145548599Y-65721981D01*
X145450919Y-65446253D01*
X145377472Y-65308843D01*
X145128397Y-65231208D01*
X144279605Y-66080000D01*
X143920395Y-66080000D01*
X143071603Y-65231208D01*
X142830000Y-65306514D01*
X142588397Y-65231208D01*
X141739605Y-66080000D01*
X141380395Y-66080000D01*
X141366253Y-66065858D01*
X141545858Y-65886253D01*
X141560000Y-65900395D01*
X142408792Y-65051603D01*
X142333271Y-64809311D01*
X142506632Y-64693475D01*
X142713475Y-64486632D01*
X142821474Y-64325000D01*
X142838526Y-64325000D01*
X142946525Y-64486632D01*
X143153368Y-64693475D01*
X143326729Y-64809311D01*
X143251208Y-65051603D01*
X144100000Y-65900395D01*
X144948792Y-65051603D01*
X144873271Y-64809311D01*
X145046632Y-64693475D01*
X145253475Y-64486632D01*
X145361474Y-64325000D01*
X145964843Y-64325000D01*
X148307045Y-66667202D01*
X148274188Y-66775518D01*
X148261928Y-66900000D01*
X148261928Y-68100000D01*
X148274188Y-68224482D01*
X148310498Y-68344180D01*
X148369463Y-68454494D01*
X148448815Y-68551185D01*
X148545506Y-68630537D01*
X148655820Y-68689502D01*
X148775518Y-68725812D01*
X148900000Y-68738072D01*
X149800000Y-68738072D01*
X149924482Y-68725812D01*
X150044180Y-68689502D01*
X150154494Y-68630537D01*
X150251185Y-68551185D01*
X150330537Y-68454494D01*
X150389502Y-68344180D01*
X150425812Y-68224482D01*
X150438072Y-68100000D01*
X150438072Y-67501783D01*
X150540226Y-67603937D01*
X150709744Y-67717205D01*
X150898102Y-67795226D01*
X151098061Y-67835000D01*
X151124842Y-67835000D01*
X151317657Y-68027815D01*
X151342236Y-68057764D01*
X151372184Y-68082342D01*
X151372187Y-68082345D01*
X151389753Y-68096761D01*
X151461767Y-68155862D01*
X151573301Y-68215478D01*
X151574188Y-68224482D01*
X151610498Y-68344180D01*
X151669463Y-68454494D01*
X151748815Y-68551185D01*
X151845506Y-68630537D01*
X151955820Y-68689502D01*
X152075518Y-68725812D01*
X152200000Y-68738072D01*
X153100000Y-68738072D01*
X153224482Y-68725812D01*
X153344180Y-68689502D01*
X153454494Y-68630537D01*
X153551185Y-68551185D01*
X153630537Y-68454494D01*
X153689502Y-68344180D01*
X153725812Y-68224482D01*
X153738072Y-68100000D01*
X153738072Y-66900000D01*
X153725812Y-66775518D01*
X153689502Y-66655820D01*
X153630537Y-66545506D01*
X153551185Y-66448815D01*
X153454494Y-66369463D01*
X153344180Y-66310498D01*
X153224482Y-66274188D01*
X153100000Y-66261928D01*
X152200000Y-66261928D01*
X152092340Y-66272531D01*
X152003937Y-66140226D01*
X151859774Y-65996063D01*
X151785000Y-65946101D01*
X151785000Y-65738072D01*
X151800000Y-65738072D01*
X151924482Y-65725812D01*
X152044180Y-65689502D01*
X152154494Y-65630537D01*
X152251185Y-65551185D01*
X152330537Y-65454494D01*
X152389502Y-65344180D01*
X152425812Y-65224482D01*
X152438072Y-65100000D01*
X152438072Y-62500000D01*
X152425812Y-62375518D01*
X152389502Y-62255820D01*
X152330537Y-62145506D01*
X152251185Y-62048815D01*
X152191704Y-62000000D01*
X152251185Y-61951185D01*
X152330537Y-61854494D01*
X152389502Y-61744180D01*
X152425812Y-61624482D01*
X152438072Y-61500000D01*
X152435000Y-60485750D01*
X152276250Y-60327000D01*
X151127000Y-60327000D01*
X151127000Y-60347000D01*
X150873000Y-60347000D01*
X150873000Y-60327000D01*
X149723750Y-60327000D01*
X149565000Y-60485750D01*
X149561928Y-61500000D01*
X149574188Y-61624482D01*
X149610498Y-61744180D01*
X149669463Y-61854494D01*
X149748815Y-61951185D01*
X149808296Y-62000000D01*
X149748815Y-62048815D01*
X149669463Y-62145506D01*
X149610498Y-62255820D01*
X149574188Y-62375518D01*
X149561928Y-62500000D01*
X149561928Y-65100000D01*
X149574188Y-65224482D01*
X149610498Y-65344180D01*
X149669463Y-65454494D01*
X149748815Y-65551185D01*
X149845506Y-65630537D01*
X149955820Y-65689502D01*
X150075518Y-65725812D01*
X150200000Y-65738072D01*
X150215001Y-65738072D01*
X150215000Y-66419119D01*
X150154494Y-66369463D01*
X150089919Y-66334947D01*
X150078754Y-66298140D01*
X150005862Y-66161767D01*
X149907764Y-66042236D01*
X149877811Y-66017654D01*
X146872347Y-63012190D01*
X146847764Y-62982236D01*
X146728233Y-62884138D01*
X146591860Y-62811246D01*
X146443887Y-62766359D01*
X146328561Y-62755000D01*
X146328553Y-62755000D01*
X146290000Y-62751203D01*
X146251447Y-62755000D01*
X145361474Y-62755000D01*
X145253475Y-62593368D01*
X145046632Y-62386525D01*
X144803411Y-62224010D01*
X144533158Y-62112068D01*
X144246260Y-62055000D01*
X143953740Y-62055000D01*
X143666842Y-62112068D01*
X143396589Y-62224010D01*
X143153368Y-62386525D01*
X142946525Y-62593368D01*
X142838526Y-62755000D01*
X142821474Y-62755000D01*
X142713475Y-62593368D01*
X142506632Y-62386525D01*
X142263411Y-62224010D01*
X141993158Y-62112068D01*
X141706260Y-62055000D01*
X141413740Y-62055000D01*
X141144999Y-62108456D01*
X141144999Y-60965158D01*
X143210157Y-58900000D01*
X149561928Y-58900000D01*
X149565000Y-59914250D01*
X149723750Y-60073000D01*
X150873000Y-60073000D01*
X150873000Y-58423750D01*
X151127000Y-58423750D01*
X151127000Y-60073000D01*
X152276250Y-60073000D01*
X152435000Y-59914250D01*
X152438072Y-58900000D01*
X152425812Y-58775518D01*
X152389502Y-58655820D01*
X152330537Y-58545506D01*
X152251185Y-58448815D01*
X152154494Y-58369463D01*
X152044180Y-58310498D01*
X151924482Y-58274188D01*
X151800000Y-58261928D01*
X151285750Y-58265000D01*
X151127000Y-58423750D01*
X150873000Y-58423750D01*
X150714250Y-58265000D01*
X150200000Y-58261928D01*
X150075518Y-58274188D01*
X149955820Y-58310498D01*
X149845506Y-58369463D01*
X149748815Y-58448815D01*
X149669463Y-58545506D01*
X149610498Y-58655820D01*
X149574188Y-58775518D01*
X149561928Y-58900000D01*
X143210157Y-58900000D01*
X145120560Y-56989597D01*
X145348816Y-57035000D01*
X145651184Y-57035000D01*
X145947743Y-56976011D01*
X146227095Y-56860299D01*
X146478505Y-56692312D01*
X146692312Y-56478505D01*
X146750000Y-56392169D01*
X146807688Y-56478505D01*
X147021495Y-56692312D01*
X147272905Y-56860299D01*
X147552257Y-56976011D01*
X147848816Y-57035000D01*
X148151184Y-57035000D01*
X148447743Y-56976011D01*
X148727095Y-56860299D01*
X148978505Y-56692312D01*
X149192312Y-56478505D01*
X149360299Y-56227095D01*
X149476011Y-55947743D01*
X149535000Y-55651184D01*
X149535000Y-55348816D01*
X149476011Y-55052257D01*
X149360299Y-54772905D01*
X149192312Y-54521495D01*
X148978505Y-54307688D01*
X148727095Y-54139701D01*
X148447743Y-54023989D01*
X148151184Y-53965000D01*
X147848816Y-53965000D01*
X147552257Y-54023989D01*
X147272905Y-54139701D01*
X147021495Y-54307688D01*
X146807688Y-54521495D01*
X146750000Y-54607831D01*
X146692312Y-54521495D01*
X146478505Y-54307688D01*
X146227095Y-54139701D01*
X145947743Y-54023989D01*
X145651184Y-53965000D01*
X145348816Y-53965000D01*
X145052257Y-54023989D01*
X144772905Y-54139701D01*
X144521495Y-54307688D01*
X144307688Y-54521495D01*
X144250000Y-54607831D01*
X144192312Y-54521495D01*
X143978505Y-54307688D01*
X143727095Y-54139701D01*
X143447743Y-54023989D01*
X143151184Y-53965000D01*
X142848816Y-53965000D01*
X142552257Y-54023989D01*
X142272905Y-54139701D01*
X142021495Y-54307688D01*
X141807688Y-54521495D01*
X141639701Y-54772905D01*
X141523989Y-55052257D01*
X141465000Y-55348816D01*
X141465000Y-55651184D01*
X141523989Y-55947743D01*
X141639701Y-56227095D01*
X141807688Y-56478505D01*
X142021495Y-56692312D01*
X142272905Y-56860299D01*
X142552257Y-56976011D01*
X142848816Y-57035000D01*
X142854842Y-57035000D01*
X139832184Y-60057659D01*
X139802236Y-60082237D01*
X139777658Y-60112185D01*
X139777654Y-60112189D01*
X139744689Y-60152357D01*
X139704138Y-60201768D01*
X139665176Y-60274661D01*
X139631245Y-60338142D01*
X139586358Y-60486115D01*
X139571202Y-60640001D01*
X139575000Y-60678564D01*
X139574999Y-77221446D01*
X139571202Y-77259999D01*
X139574999Y-77298552D01*
X139574999Y-77298559D01*
X139586358Y-77413885D01*
X139631245Y-77561858D01*
X139704137Y-77698231D01*
X139802235Y-77817763D01*
X139832189Y-77842346D01*
X141421699Y-79431856D01*
X141369463Y-79495506D01*
X141310498Y-79605820D01*
X141274188Y-79725518D01*
X141261928Y-79850000D01*
X141261928Y-81150000D01*
X141274188Y-81274482D01*
X141310498Y-81394180D01*
X141369463Y-81504494D01*
X141448815Y-81601185D01*
X141545506Y-81680537D01*
X141655820Y-81739502D01*
X141775518Y-81775812D01*
X141900000Y-81788072D01*
X143400000Y-81788072D01*
X143524482Y-81775812D01*
X143644180Y-81739502D01*
X143754494Y-81680537D01*
X143851185Y-81601185D01*
X143930537Y-81504494D01*
X143989502Y-81394180D01*
X144000000Y-81359573D01*
X144010498Y-81394180D01*
X144069463Y-81504494D01*
X144148815Y-81601185D01*
X144245506Y-81680537D01*
X144355820Y-81739502D01*
X144475518Y-81775812D01*
X144590000Y-81787087D01*
X144590001Y-84046168D01*
X144586324Y-84083500D01*
X144590001Y-84120833D01*
X144600631Y-84228754D01*
X144600998Y-84232485D01*
X144644454Y-84375746D01*
X144715026Y-84507776D01*
X144786201Y-84594502D01*
X144810000Y-84623501D01*
X144838998Y-84647299D01*
X145662700Y-85471002D01*
X145686499Y-85500001D01*
X145802224Y-85594974D01*
X145925248Y-85660733D01*
X145891452Y-85721334D01*
X145853011Y-85840365D01*
X145841500Y-85944250D01*
X146000250Y-86103000D01*
X146921000Y-86103000D01*
X146921000Y-86083000D01*
X147175000Y-86083000D01*
X147175000Y-86103000D01*
X148095750Y-86103000D01*
X148254500Y-85944250D01*
X148242989Y-85840365D01*
X148204548Y-85721334D01*
X148203804Y-85720000D01*
X150211928Y-85720000D01*
X150211928Y-86900000D01*
X150224188Y-87024482D01*
X150260498Y-87144180D01*
X150319463Y-87254494D01*
X150398815Y-87351185D01*
X150495506Y-87430537D01*
X150605820Y-87489502D01*
X150725518Y-87525812D01*
X150850000Y-87538072D01*
X151715001Y-87538072D01*
X151715001Y-88261928D01*
X150850000Y-88261928D01*
X150725518Y-88274188D01*
X150605820Y-88310498D01*
X150495506Y-88369463D01*
X150398815Y-88448815D01*
X150319463Y-88545506D01*
X150260498Y-88655820D01*
X150224188Y-88775518D01*
X150211928Y-88900000D01*
X150211928Y-89280000D01*
X148203804Y-89280000D01*
X148204548Y-89278666D01*
X148242989Y-89159635D01*
X148254500Y-89055750D01*
X148095750Y-88897000D01*
X147175000Y-88897000D01*
X147175000Y-88917000D01*
X146921000Y-88917000D01*
X146921000Y-88897000D01*
X146901000Y-88897000D01*
X146901000Y-88643000D01*
X146921000Y-88643000D01*
X146921000Y-88623000D01*
X147175000Y-88623000D01*
X147175000Y-88643000D01*
X148095750Y-88643000D01*
X148149165Y-88589585D01*
X148196063Y-88659774D01*
X148340226Y-88803937D01*
X148509744Y-88917205D01*
X148698102Y-88995226D01*
X148898061Y-89035000D01*
X149101939Y-89035000D01*
X149301898Y-88995226D01*
X149490256Y-88917205D01*
X149659774Y-88803937D01*
X149803937Y-88659774D01*
X149917205Y-88490256D01*
X149995226Y-88301898D01*
X150035000Y-88101939D01*
X150035000Y-87898061D01*
X149995226Y-87698102D01*
X149917205Y-87509744D01*
X149803937Y-87340226D01*
X149659774Y-87196063D01*
X149490256Y-87082795D01*
X149301898Y-87004774D01*
X149101939Y-86965000D01*
X149076446Y-86965000D01*
X149057764Y-86942236D01*
X148938233Y-86844138D01*
X148801860Y-86771246D01*
X148653887Y-86726359D01*
X148538561Y-86715000D01*
X148538553Y-86715000D01*
X148500000Y-86711203D01*
X148461447Y-86715000D01*
X148212191Y-86715000D01*
X148242989Y-86619635D01*
X148254500Y-86515750D01*
X148095750Y-86357000D01*
X147175000Y-86357000D01*
X147175000Y-86377000D01*
X146921000Y-86377000D01*
X146921000Y-86357000D01*
X146000250Y-86357000D01*
X145841500Y-86515750D01*
X145853011Y-86619635D01*
X145891452Y-86738666D01*
X145952376Y-86847910D01*
X145967325Y-86865476D01*
X145945963Y-86891506D01*
X145886998Y-87001820D01*
X145850688Y-87121518D01*
X145838428Y-87246000D01*
X145838428Y-87754000D01*
X145850688Y-87878482D01*
X145886998Y-87998180D01*
X145945963Y-88108494D01*
X145967325Y-88134524D01*
X145952376Y-88152090D01*
X145891452Y-88261334D01*
X145853011Y-88380365D01*
X145841500Y-88484250D01*
X146000248Y-88642998D01*
X145904300Y-88642998D01*
X144760000Y-87498699D01*
X144760000Y-85618820D01*
X144763676Y-85581497D01*
X144760000Y-85544174D01*
X144760000Y-85544165D01*
X144749003Y-85432512D01*
X144705546Y-85289251D01*
X144634974Y-85157222D01*
X144540001Y-85041497D01*
X144511004Y-85017700D01*
X140232306Y-80739003D01*
X140208503Y-80709999D01*
X140092778Y-80615026D01*
X139960749Y-80544454D01*
X139817488Y-80500997D01*
X139705835Y-80490000D01*
X139705824Y-80490000D01*
X139668502Y-80486324D01*
X139631180Y-80490000D01*
X139287087Y-80490000D01*
X139275812Y-80375518D01*
X139239502Y-80255820D01*
X139180537Y-80145506D01*
X139101185Y-80048815D01*
X139004494Y-79969463D01*
X138894180Y-79910498D01*
X138774482Y-79874188D01*
X138650000Y-79861928D01*
X137350000Y-79861928D01*
X137225518Y-79874188D01*
X137105820Y-79910498D01*
X136995506Y-79969463D01*
X136898815Y-80048815D01*
X136819463Y-80145506D01*
X136760498Y-80255820D01*
X136735000Y-80339876D01*
X136735000Y-48240475D01*
X138465000Y-48240475D01*
X138465000Y-48759525D01*
X138566261Y-49268601D01*
X138764893Y-49748141D01*
X139053262Y-50179715D01*
X139420285Y-50546738D01*
X139851859Y-50835107D01*
X140331399Y-51033739D01*
X140840475Y-51135000D01*
X141359525Y-51135000D01*
X141868601Y-51033739D01*
X142348141Y-50835107D01*
X142779715Y-50546738D01*
X143146738Y-50179715D01*
X143435107Y-49748141D01*
X143633739Y-49268601D01*
X143735000Y-48759525D01*
X143735000Y-48240475D01*
X147265000Y-48240475D01*
X147265000Y-48759525D01*
X147366261Y-49268601D01*
X147564893Y-49748141D01*
X147853262Y-50179715D01*
X148220285Y-50546738D01*
X148651859Y-50835107D01*
X149131399Y-51033739D01*
X149640475Y-51135000D01*
X150159525Y-51135000D01*
X150668601Y-51033739D01*
X151148141Y-50835107D01*
X151579715Y-50546738D01*
X151946738Y-50179715D01*
X152235107Y-49748141D01*
X152433739Y-49268601D01*
X152535000Y-48759525D01*
X152535000Y-48240475D01*
X152433739Y-47731399D01*
X152235107Y-47251859D01*
X151946738Y-46820285D01*
X151579715Y-46453262D01*
X151148141Y-46164893D01*
X150668601Y-45966261D01*
X150159525Y-45865000D01*
X149640475Y-45865000D01*
X149131399Y-45966261D01*
X148651859Y-46164893D01*
X148220285Y-46453262D01*
X147853262Y-46820285D01*
X147564893Y-47251859D01*
X147366261Y-47731399D01*
X147265000Y-48240475D01*
X143735000Y-48240475D01*
X143633739Y-47731399D01*
X143435107Y-47251859D01*
X143146738Y-46820285D01*
X142779715Y-46453262D01*
X142348141Y-46164893D01*
X141868601Y-45966261D01*
X141359525Y-45865000D01*
X140840475Y-45865000D01*
X140331399Y-45966261D01*
X139851859Y-46164893D01*
X139420285Y-46453262D01*
X139053262Y-46820285D01*
X138764893Y-47251859D01*
X138566261Y-47731399D01*
X138465000Y-48240475D01*
X136735000Y-48240475D01*
X136735000Y-37735000D01*
X154065000Y-37735000D01*
X154065001Y-146265000D01*
G37*
X154065001Y-146265000D02*
X136735000Y-146265000D01*
X136735000Y-144480000D01*
X143611928Y-144480000D01*
X143611928Y-145480000D01*
X143624188Y-145604482D01*
X143660498Y-145724180D01*
X143719463Y-145834494D01*
X143798815Y-145931185D01*
X143895506Y-146010537D01*
X144005820Y-146069502D01*
X144125518Y-146105812D01*
X144250000Y-146118072D01*
X146750000Y-146118072D01*
X146874482Y-146105812D01*
X146994180Y-146069502D01*
X147104494Y-146010537D01*
X147201185Y-145931185D01*
X147280537Y-145834494D01*
X147339502Y-145724180D01*
X147375812Y-145604482D01*
X147388072Y-145480000D01*
X147388072Y-144480000D01*
X147375812Y-144355518D01*
X147339502Y-144235820D01*
X147280537Y-144125506D01*
X147201185Y-144028815D01*
X147104494Y-143949463D01*
X146994180Y-143890498D01*
X146874482Y-143854188D01*
X146750000Y-143841928D01*
X144250000Y-143841928D01*
X144125518Y-143854188D01*
X144005820Y-143890498D01*
X143895506Y-143949463D01*
X143798815Y-144028815D01*
X143719463Y-144125506D01*
X143660498Y-144235820D01*
X143624188Y-144355518D01*
X143611928Y-144480000D01*
X136735000Y-144480000D01*
X136735000Y-141380000D01*
X143611928Y-141380000D01*
X143611928Y-142380000D01*
X143624188Y-142504482D01*
X143660498Y-142624180D01*
X143719463Y-142734494D01*
X143798815Y-142831185D01*
X143895506Y-142910537D01*
X144005820Y-142969502D01*
X144125518Y-143005812D01*
X144250000Y-143018072D01*
X146750000Y-143018072D01*
X146874482Y-143005812D01*
X146994180Y-142969502D01*
X147104494Y-142910537D01*
X147201185Y-142831185D01*
X147280537Y-142734494D01*
X147339502Y-142624180D01*
X147375812Y-142504482D01*
X147388072Y-142380000D01*
X147388072Y-141380000D01*
X147375812Y-141255518D01*
X147339502Y-141135820D01*
X147280537Y-141025506D01*
X147201185Y-140928815D01*
X147104494Y-140849463D01*
X146994180Y-140790498D01*
X146874482Y-140754188D01*
X146750000Y-140741928D01*
X144250000Y-140741928D01*
X144125518Y-140754188D01*
X144005820Y-140790498D01*
X143895506Y-140849463D01*
X143798815Y-140928815D01*
X143719463Y-141025506D01*
X143660498Y-141135820D01*
X143624188Y-141255518D01*
X143611928Y-141380000D01*
X136735000Y-141380000D01*
X136735000Y-138314344D01*
X143615000Y-138314344D01*
X143615000Y-138685656D01*
X143687439Y-139049834D01*
X143829534Y-139392882D01*
X144035825Y-139701618D01*
X144298382Y-139964175D01*
X144607118Y-140170466D01*
X144950166Y-140312561D01*
X145314344Y-140385000D01*
X145685656Y-140385000D01*
X146049834Y-140312561D01*
X146392882Y-140170466D01*
X146701618Y-139964175D01*
X146964175Y-139701618D01*
X147170466Y-139392882D01*
X147312561Y-139049834D01*
X147385000Y-138685656D01*
X147385000Y-138314344D01*
X147312561Y-137950166D01*
X147170466Y-137607118D01*
X146964175Y-137298382D01*
X146701618Y-137035825D01*
X146392882Y-136829534D01*
X146049834Y-136687439D01*
X145685656Y-136615000D01*
X145314344Y-136615000D01*
X144950166Y-136687439D01*
X144607118Y-136829534D01*
X144298382Y-137035825D01*
X144035825Y-137298382D01*
X143829534Y-137607118D01*
X143687439Y-137950166D01*
X143615000Y-138314344D01*
X136735000Y-138314344D01*
X136735000Y-130380000D01*
X143611928Y-130380000D01*
X143611928Y-131380000D01*
X143624188Y-131504482D01*
X143660498Y-131624180D01*
X143719463Y-131734494D01*
X143798815Y-131831185D01*
X143895506Y-131910537D01*
X144005820Y-131969502D01*
X144125518Y-132005812D01*
X144250000Y-132018072D01*
X146750000Y-132018072D01*
X146874482Y-132005812D01*
X146994180Y-131969502D01*
X147104494Y-131910537D01*
X147201185Y-131831185D01*
X147280537Y-131734494D01*
X147339502Y-131624180D01*
X147375812Y-131504482D01*
X147388072Y-131380000D01*
X147388072Y-130380000D01*
X147375812Y-130255518D01*
X147339502Y-130135820D01*
X147280537Y-130025506D01*
X147201185Y-129928815D01*
X147104494Y-129849463D01*
X146994180Y-129790498D01*
X146874482Y-129754188D01*
X146750000Y-129741928D01*
X144250000Y-129741928D01*
X144125518Y-129754188D01*
X144005820Y-129790498D01*
X143895506Y-129849463D01*
X143798815Y-129928815D01*
X143719463Y-130025506D01*
X143660498Y-130135820D01*
X143624188Y-130255518D01*
X143611928Y-130380000D01*
X136735000Y-130380000D01*
X136735000Y-127280000D01*
X143611928Y-127280000D01*
X143611928Y-128280000D01*
X143624188Y-128404482D01*
X143660498Y-128524180D01*
X143719463Y-128634494D01*
X143798815Y-128731185D01*
X143895506Y-128810537D01*
X144005820Y-128869502D01*
X144125518Y-128905812D01*
X144250000Y-128918072D01*
X146750000Y-128918072D01*
X146874482Y-128905812D01*
X146994180Y-128869502D01*
X147104494Y-128810537D01*
X147201185Y-128731185D01*
X147280537Y-128634494D01*
X147339502Y-128524180D01*
X147375812Y-128404482D01*
X147388072Y-128280000D01*
X147388072Y-127280000D01*
X147375812Y-127155518D01*
X147339502Y-127035820D01*
X147280537Y-126925506D01*
X147201185Y-126828815D01*
X147104494Y-126749463D01*
X146994180Y-126690498D01*
X146874482Y-126654188D01*
X146750000Y-126641928D01*
X144250000Y-126641928D01*
X144125518Y-126654188D01*
X144005820Y-126690498D01*
X143895506Y-126749463D01*
X143798815Y-126828815D01*
X143719463Y-126925506D01*
X143660498Y-127035820D01*
X143624188Y-127155518D01*
X143611928Y-127280000D01*
X136735000Y-127280000D01*
X136735000Y-124214344D01*
X143615000Y-124214344D01*
X143615000Y-124585656D01*
X143687439Y-124949834D01*
X143829534Y-125292882D01*
X144035825Y-125601618D01*
X144298382Y-125864175D01*
X144607118Y-126070466D01*
X144950166Y-126212561D01*
X145314344Y-126285000D01*
X145685656Y-126285000D01*
X146049834Y-126212561D01*
X146392882Y-126070466D01*
X146701618Y-125864175D01*
X146964175Y-125601618D01*
X147170466Y-125292882D01*
X147312561Y-124949834D01*
X147385000Y-124585656D01*
X147385000Y-124214344D01*
X147312561Y-123850166D01*
X147170466Y-123507118D01*
X146964175Y-123198382D01*
X146701618Y-122935825D01*
X146392882Y-122729534D01*
X146049834Y-122587439D01*
X145685656Y-122515000D01*
X145314344Y-122515000D01*
X144950166Y-122587439D01*
X144607118Y-122729534D01*
X144298382Y-122935825D01*
X144035825Y-123198382D01*
X143829534Y-123507118D01*
X143687439Y-123850166D01*
X143615000Y-124214344D01*
X136735000Y-124214344D01*
X136735000Y-116480000D01*
X143611928Y-116480000D01*
X143611928Y-117480000D01*
X143624188Y-117604482D01*
X143660498Y-117724180D01*
X143719463Y-117834494D01*
X143798815Y-117931185D01*
X143895506Y-118010537D01*
X144005820Y-118069502D01*
X144125518Y-118105812D01*
X144250000Y-118118072D01*
X146750000Y-118118072D01*
X146874482Y-118105812D01*
X146994180Y-118069502D01*
X147104494Y-118010537D01*
X147201185Y-117931185D01*
X147280537Y-117834494D01*
X147339502Y-117724180D01*
X147375812Y-117604482D01*
X147388072Y-117480000D01*
X147388072Y-116480000D01*
X147375812Y-116355518D01*
X147339502Y-116235820D01*
X147280537Y-116125506D01*
X147201185Y-116028815D01*
X147104494Y-115949463D01*
X146994180Y-115890498D01*
X146874482Y-115854188D01*
X146750000Y-115841928D01*
X144250000Y-115841928D01*
X144125518Y-115854188D01*
X144005820Y-115890498D01*
X143895506Y-115949463D01*
X143798815Y-116028815D01*
X143719463Y-116125506D01*
X143660498Y-116235820D01*
X143624188Y-116355518D01*
X143611928Y-116480000D01*
X136735000Y-116480000D01*
X136735000Y-113380000D01*
X143611928Y-113380000D01*
X143611928Y-114380000D01*
X143624188Y-114504482D01*
X143660498Y-114624180D01*
X143719463Y-114734494D01*
X143798815Y-114831185D01*
X143895506Y-114910537D01*
X144005820Y-114969502D01*
X144125518Y-115005812D01*
X144250000Y-115018072D01*
X146750000Y-115018072D01*
X146874482Y-115005812D01*
X146994180Y-114969502D01*
X147104494Y-114910537D01*
X147201185Y-114831185D01*
X147280537Y-114734494D01*
X147339502Y-114624180D01*
X147375812Y-114504482D01*
X147388072Y-114380000D01*
X147388072Y-113380000D01*
X147375812Y-113255518D01*
X147339502Y-113135820D01*
X147280537Y-113025506D01*
X147201185Y-112928815D01*
X147104494Y-112849463D01*
X146994180Y-112790498D01*
X146874482Y-112754188D01*
X146750000Y-112741928D01*
X144250000Y-112741928D01*
X144125518Y-112754188D01*
X144005820Y-112790498D01*
X143895506Y-112849463D01*
X143798815Y-112928815D01*
X143719463Y-113025506D01*
X143660498Y-113135820D01*
X143624188Y-113255518D01*
X143611928Y-113380000D01*
X136735000Y-113380000D01*
X136735000Y-110314344D01*
X143615000Y-110314344D01*
X143615000Y-110685656D01*
X143687439Y-111049834D01*
X143829534Y-111392882D01*
X144035825Y-111701618D01*
X144298382Y-111964175D01*
X144607118Y-112170466D01*
X144950166Y-112312561D01*
X145314344Y-112385000D01*
X145685656Y-112385000D01*
X146049834Y-112312561D01*
X146392882Y-112170466D01*
X146701618Y-111964175D01*
X146964175Y-111701618D01*
X147170466Y-111392882D01*
X147312561Y-111049834D01*
X147385000Y-110685656D01*
X147385000Y-110314344D01*
X147312561Y-109950166D01*
X147170466Y-109607118D01*
X146964175Y-109298382D01*
X146701618Y-109035825D01*
X146392882Y-108829534D01*
X146049834Y-108687439D01*
X145685656Y-108615000D01*
X145314344Y-108615000D01*
X144950166Y-108687439D01*
X144607118Y-108829534D01*
X144298382Y-109035825D01*
X144035825Y-109298382D01*
X143829534Y-109607118D01*
X143687439Y-109950166D01*
X143615000Y-110314344D01*
X136735000Y-110314344D01*
X136735000Y-84860124D01*
X136760498Y-84944180D01*
X136819463Y-85054494D01*
X136898815Y-85151185D01*
X136995506Y-85230537D01*
X137105820Y-85289502D01*
X137225518Y-85325812D01*
X137240001Y-85327238D01*
X137240000Y-96424178D01*
X137236324Y-96461500D01*
X137240000Y-96498822D01*
X137240000Y-96498832D01*
X137250997Y-96610485D01*
X137278169Y-96700060D01*
X137294454Y-96753746D01*
X137365026Y-96885776D01*
X137401761Y-96930537D01*
X137459999Y-97001501D01*
X137489003Y-97025304D01*
X139339701Y-98876003D01*
X139363499Y-98905001D01*
X139392497Y-98928799D01*
X139479224Y-98999974D01*
X139602248Y-99065733D01*
X139568452Y-99126334D01*
X139530011Y-99245365D01*
X139518500Y-99349250D01*
X139677250Y-99508000D01*
X140598000Y-99508000D01*
X140598000Y-99488000D01*
X140852000Y-99488000D01*
X140852000Y-99508000D01*
X140861501Y-99508000D01*
X140861501Y-99762000D01*
X140852000Y-99762000D01*
X140852000Y-99782000D01*
X140598000Y-99782000D01*
X140598000Y-99762000D01*
X139677250Y-99762000D01*
X139518500Y-99920750D01*
X139530011Y-100024635D01*
X139568452Y-100143666D01*
X139629376Y-100252910D01*
X139644325Y-100270476D01*
X139622963Y-100296506D01*
X139563998Y-100406820D01*
X139527688Y-100526518D01*
X139515428Y-100651000D01*
X139515428Y-101159000D01*
X139527688Y-101283482D01*
X139563998Y-101403180D01*
X139622963Y-101513494D01*
X139702315Y-101610185D01*
X139799006Y-101689537D01*
X139909320Y-101748502D01*
X140029018Y-101784812D01*
X140153500Y-101797072D01*
X141296500Y-101797072D01*
X141311511Y-101795594D01*
X141311511Y-102363687D01*
X139560101Y-104115098D01*
X139504494Y-104069463D01*
X139394180Y-104010498D01*
X139274482Y-103974188D01*
X139150000Y-103961928D01*
X137850000Y-103961928D01*
X137725518Y-103974188D01*
X137605820Y-104010498D01*
X137495506Y-104069463D01*
X137398815Y-104148815D01*
X137319463Y-104245506D01*
X137260498Y-104355820D01*
X137224188Y-104475518D01*
X137211928Y-104600000D01*
X137211928Y-106100000D01*
X137224188Y-106224482D01*
X137260498Y-106344180D01*
X137319463Y-106454494D01*
X137398815Y-106551185D01*
X137495506Y-106630537D01*
X137605820Y-106689502D01*
X137640427Y-106700000D01*
X137605820Y-106710498D01*
X137495506Y-106769463D01*
X137398815Y-106848815D01*
X137319463Y-106945506D01*
X137260498Y-107055820D01*
X137224188Y-107175518D01*
X137211928Y-107300000D01*
X137211928Y-108800000D01*
X137224188Y-108924482D01*
X137260498Y-109044180D01*
X137319463Y-109154494D01*
X137398815Y-109251185D01*
X137495506Y-109330537D01*
X137605820Y-109389502D01*
X137725518Y-109425812D01*
X137850000Y-109438072D01*
X139150000Y-109438072D01*
X139274482Y-109425812D01*
X139394180Y-109389502D01*
X139504494Y-109330537D01*
X139601185Y-109251185D01*
X139680537Y-109154494D01*
X139739502Y-109044180D01*
X139775812Y-108924482D01*
X139784625Y-108835000D01*
X143791447Y-108835000D01*
X143830000Y-108838797D01*
X143868553Y-108835000D01*
X143868561Y-108835000D01*
X143983887Y-108823641D01*
X144131860Y-108778754D01*
X144268233Y-108705862D01*
X144387764Y-108607764D01*
X144412347Y-108577810D01*
X146027811Y-106962346D01*
X146057764Y-106937764D01*
X146155862Y-106818233D01*
X146209399Y-106718072D01*
X146750000Y-106718072D01*
X146874482Y-106705812D01*
X146994180Y-106669502D01*
X147104494Y-106610537D01*
X147201185Y-106531185D01*
X147280537Y-106434494D01*
X147339502Y-106324180D01*
X147375812Y-106204482D01*
X147388072Y-106080000D01*
X147388072Y-105080000D01*
X147375812Y-104955518D01*
X147339502Y-104835820D01*
X147280537Y-104725506D01*
X147201185Y-104628815D01*
X147104494Y-104549463D01*
X146994180Y-104490498D01*
X146874482Y-104454188D01*
X146750000Y-104441928D01*
X144250000Y-104441928D01*
X144125518Y-104454188D01*
X144005820Y-104490498D01*
X143895506Y-104549463D01*
X143798815Y-104628815D01*
X143719463Y-104725506D01*
X143660498Y-104835820D01*
X143624188Y-104955518D01*
X143611928Y-105080000D01*
X143611928Y-106080000D01*
X143624188Y-106204482D01*
X143660498Y-106324180D01*
X143719463Y-106434494D01*
X143798815Y-106531185D01*
X143895506Y-106610537D01*
X144005820Y-106669502D01*
X144078342Y-106691501D01*
X143504843Y-107265000D01*
X139784625Y-107265000D01*
X139775812Y-107175518D01*
X139739502Y-107055820D01*
X139680537Y-106945506D01*
X139601185Y-106848815D01*
X139504494Y-106769463D01*
X139394180Y-106710498D01*
X139359573Y-106700000D01*
X139394180Y-106689502D01*
X139504494Y-106630537D01*
X139601185Y-106551185D01*
X139680537Y-106454494D01*
X139739502Y-106344180D01*
X139775812Y-106224482D01*
X139788072Y-106100000D01*
X139788072Y-106004326D01*
X139824276Y-105984974D01*
X139940001Y-105890001D01*
X139963804Y-105860997D01*
X142582515Y-103242287D01*
X142611512Y-103218490D01*
X142637843Y-103186406D01*
X142706485Y-103102766D01*
X142777057Y-102970736D01*
X142777057Y-102970735D01*
X142820514Y-102827475D01*
X142831511Y-102715822D01*
X142831511Y-102715813D01*
X142835187Y-102678490D01*
X142831511Y-102641167D01*
X142831511Y-90426169D01*
X143215000Y-90809658D01*
X143215001Y-91961438D01*
X143211203Y-92000000D01*
X143226359Y-92153886D01*
X143271246Y-92301859D01*
X143271247Y-92301860D01*
X143344139Y-92438233D01*
X143384690Y-92487644D01*
X143417655Y-92527812D01*
X143417659Y-92527816D01*
X143442237Y-92557764D01*
X143472185Y-92582342D01*
X145965000Y-95075157D01*
X145965000Y-95101939D01*
X146004774Y-95301898D01*
X146082795Y-95490256D01*
X146196063Y-95659774D01*
X146290001Y-95753712D01*
X146290000Y-96242191D01*
X146259320Y-96251498D01*
X146149006Y-96310463D01*
X146052315Y-96389815D01*
X145972963Y-96486506D01*
X145913998Y-96596820D01*
X145877688Y-96716518D01*
X145865428Y-96841000D01*
X145865428Y-96916771D01*
X145285000Y-96336343D01*
X145285000Y-96178711D01*
X145303937Y-96159774D01*
X145417205Y-95990256D01*
X145495226Y-95801898D01*
X145535000Y-95601939D01*
X145535000Y-95398061D01*
X145495226Y-95198102D01*
X145417205Y-95009744D01*
X145303937Y-94840226D01*
X145159774Y-94696063D01*
X144990256Y-94582795D01*
X144801898Y-94504774D01*
X144601939Y-94465000D01*
X144398061Y-94465000D01*
X144198102Y-94504774D01*
X144009744Y-94582795D01*
X143840226Y-94696063D01*
X143696063Y-94840226D01*
X143582795Y-95009744D01*
X143504774Y-95198102D01*
X143465000Y-95398061D01*
X143465000Y-95601939D01*
X143504774Y-95801898D01*
X143582795Y-95990256D01*
X143696063Y-96159774D01*
X143715000Y-96178711D01*
X143715000Y-96622947D01*
X143711203Y-96661500D01*
X143715000Y-96700053D01*
X143715000Y-96700060D01*
X143726359Y-96815386D01*
X143771246Y-96963359D01*
X143844138Y-97099732D01*
X143942236Y-97219264D01*
X143972190Y-97243847D01*
X145621153Y-98892810D01*
X145645736Y-98922764D01*
X145765267Y-99020862D01*
X145901640Y-99093754D01*
X145931560Y-99102830D01*
X145918452Y-99126334D01*
X145880011Y-99245365D01*
X145868500Y-99349250D01*
X146027250Y-99508000D01*
X146948000Y-99508000D01*
X146948000Y-99488000D01*
X147202000Y-99488000D01*
X147202000Y-99508000D01*
X147222000Y-99508000D01*
X147222000Y-99762000D01*
X147202000Y-99762000D01*
X147202000Y-99782000D01*
X146948000Y-99782000D01*
X146948000Y-99762000D01*
X146027250Y-99762000D01*
X145868500Y-99920750D01*
X145880011Y-100024635D01*
X145918452Y-100143666D01*
X145979376Y-100252910D01*
X145994325Y-100270476D01*
X145972963Y-100296506D01*
X145913998Y-100406820D01*
X145877688Y-100526518D01*
X145865428Y-100651000D01*
X145865428Y-101159000D01*
X145877688Y-101283482D01*
X145913998Y-101403180D01*
X145972963Y-101513494D01*
X146052315Y-101610185D01*
X146149006Y-101689537D01*
X146259320Y-101748502D01*
X146379018Y-101784812D01*
X146503500Y-101797072D01*
X147646500Y-101797072D01*
X147770982Y-101784812D01*
X147890680Y-101748502D01*
X148000994Y-101689537D01*
X148002526Y-101688280D01*
X148100387Y-101678641D01*
X148248360Y-101633754D01*
X148384733Y-101560862D01*
X148504264Y-101462764D01*
X148528847Y-101432810D01*
X149527817Y-100433841D01*
X149557764Y-100409264D01*
X149584089Y-100377188D01*
X149650303Y-100296506D01*
X149655862Y-100289733D01*
X149728754Y-100153360D01*
X149738874Y-100120000D01*
X149773642Y-100005387D01*
X149781977Y-99920750D01*
X149785000Y-99890061D01*
X149785000Y-99890056D01*
X149788797Y-99851500D01*
X149785000Y-99812945D01*
X149785000Y-99178711D01*
X149803937Y-99159774D01*
X149917205Y-98990256D01*
X149995226Y-98801898D01*
X150035000Y-98601939D01*
X150035000Y-98398061D01*
X149995226Y-98198102D01*
X149917205Y-98009744D01*
X149803937Y-97840226D01*
X149659774Y-97696063D01*
X149490256Y-97582795D01*
X149301898Y-97504774D01*
X149101939Y-97465000D01*
X148898061Y-97465000D01*
X148698102Y-97504774D01*
X148509744Y-97582795D01*
X148340226Y-97696063D01*
X148212827Y-97823462D01*
X148177037Y-97756506D01*
X148155284Y-97730000D01*
X148177037Y-97703494D01*
X148236002Y-97593180D01*
X148272312Y-97473482D01*
X148284572Y-97349000D01*
X148284572Y-96841000D01*
X148272312Y-96716518D01*
X148236002Y-96596820D01*
X148177037Y-96486506D01*
X148097685Y-96389815D01*
X148000994Y-96310463D01*
X147890680Y-96251498D01*
X147860000Y-96242191D01*
X147860000Y-95575870D01*
X147917205Y-95490256D01*
X147995226Y-95301898D01*
X148035000Y-95101939D01*
X148035000Y-94898061D01*
X148006257Y-94753561D01*
X149413699Y-96161003D01*
X149437497Y-96190001D01*
X149466495Y-96213799D01*
X149553221Y-96284974D01*
X149685251Y-96355546D01*
X149828512Y-96399003D01*
X149940165Y-96410000D01*
X149940174Y-96410000D01*
X149977497Y-96413676D01*
X150014820Y-96410000D01*
X150212913Y-96410000D01*
X150224188Y-96524482D01*
X150260498Y-96644180D01*
X150319463Y-96754494D01*
X150398815Y-96851185D01*
X150495506Y-96930537D01*
X150605820Y-96989502D01*
X150640427Y-97000000D01*
X150605820Y-97010498D01*
X150495506Y-97069463D01*
X150398815Y-97148815D01*
X150319463Y-97245506D01*
X150260498Y-97355820D01*
X150224188Y-97475518D01*
X150211928Y-97600000D01*
X150211928Y-99100000D01*
X150224188Y-99224482D01*
X150260498Y-99344180D01*
X150319463Y-99454494D01*
X150398815Y-99551185D01*
X150495506Y-99630537D01*
X150605820Y-99689502D01*
X150715000Y-99722621D01*
X150715001Y-114704841D01*
X147017096Y-118402747D01*
X146994180Y-118390498D01*
X146874482Y-118354188D01*
X146750000Y-118341928D01*
X144250000Y-118341928D01*
X144125518Y-118354188D01*
X144005820Y-118390498D01*
X143895506Y-118449463D01*
X143798815Y-118528815D01*
X143719463Y-118625506D01*
X143660498Y-118735820D01*
X143624188Y-118855518D01*
X143611928Y-118980000D01*
X143611928Y-119980000D01*
X143624188Y-120104482D01*
X143660498Y-120224180D01*
X143719463Y-120334494D01*
X143798815Y-120431185D01*
X143895506Y-120510537D01*
X144005820Y-120569502D01*
X144125518Y-120605812D01*
X144250000Y-120618072D01*
X146750000Y-120618072D01*
X146874482Y-120605812D01*
X146994180Y-120569502D01*
X147104494Y-120510537D01*
X147201185Y-120431185D01*
X147280537Y-120334494D01*
X147339502Y-120224180D01*
X147343403Y-120211319D01*
X147351860Y-120208754D01*
X147488233Y-120135862D01*
X147607764Y-120037764D01*
X147632347Y-120007810D01*
X151715000Y-115925158D01*
X151715000Y-127777379D01*
X151605820Y-127810498D01*
X151495506Y-127869463D01*
X151398815Y-127948815D01*
X151319463Y-128045506D01*
X151260498Y-128155820D01*
X151224188Y-128275518D01*
X151211928Y-128400000D01*
X151211928Y-129900000D01*
X151224188Y-130024482D01*
X151260498Y-130144180D01*
X151319463Y-130254494D01*
X151398815Y-130351185D01*
X151495506Y-130430537D01*
X151605820Y-130489502D01*
X151640427Y-130500000D01*
X151605820Y-130510498D01*
X151495506Y-130569463D01*
X151398815Y-130648815D01*
X151319463Y-130745506D01*
X151260498Y-130855820D01*
X151224188Y-130975518D01*
X151211928Y-131100000D01*
X151211928Y-132600000D01*
X151224188Y-132724482D01*
X151245579Y-132795000D01*
X147317683Y-132795000D01*
X147280537Y-132725506D01*
X147201185Y-132628815D01*
X147104494Y-132549463D01*
X146994180Y-132490498D01*
X146874482Y-132454188D01*
X146750000Y-132441928D01*
X144250000Y-132441928D01*
X144125518Y-132454188D01*
X144005820Y-132490498D01*
X143895506Y-132549463D01*
X143798815Y-132628815D01*
X143719463Y-132725506D01*
X143660498Y-132835820D01*
X143624188Y-132955518D01*
X143611928Y-133080000D01*
X143611928Y-134080000D01*
X143624188Y-134204482D01*
X143660498Y-134324180D01*
X143719463Y-134434494D01*
X143798815Y-134531185D01*
X143895506Y-134610537D01*
X144005820Y-134669502D01*
X144125518Y-134705812D01*
X144250000Y-134718072D01*
X146750000Y-134718072D01*
X146874482Y-134705812D01*
X146994180Y-134669502D01*
X147104494Y-134610537D01*
X147201185Y-134531185D01*
X147280537Y-134434494D01*
X147317683Y-134365000D01*
X151781447Y-134365000D01*
X151820000Y-134368797D01*
X151858553Y-134365000D01*
X151858561Y-134365000D01*
X151973887Y-134353641D01*
X152121860Y-134308754D01*
X152258233Y-134235862D01*
X152377764Y-134137764D01*
X152402347Y-134107811D01*
X153027815Y-133482343D01*
X153057764Y-133457764D01*
X153155862Y-133338233D01*
X153212699Y-133231897D01*
X153274482Y-133225812D01*
X153394180Y-133189502D01*
X153504494Y-133130537D01*
X153601185Y-133051185D01*
X153680537Y-132954494D01*
X153739502Y-132844180D01*
X153775812Y-132724482D01*
X153788072Y-132600000D01*
X153788072Y-131100000D01*
X153775812Y-130975518D01*
X153739502Y-130855820D01*
X153680537Y-130745506D01*
X153601185Y-130648815D01*
X153504494Y-130569463D01*
X153394180Y-130510498D01*
X153359573Y-130500000D01*
X153394180Y-130489502D01*
X153504494Y-130430537D01*
X153601185Y-130351185D01*
X153680537Y-130254494D01*
X153739502Y-130144180D01*
X153775812Y-130024482D01*
X153788072Y-129900000D01*
X153788072Y-128400000D01*
X153775812Y-128275518D01*
X153739502Y-128155820D01*
X153680537Y-128045506D01*
X153601185Y-127948815D01*
X153504494Y-127869463D01*
X153394180Y-127810498D01*
X153285000Y-127777379D01*
X153285000Y-83538556D01*
X153288797Y-83500000D01*
X153285000Y-83461445D01*
X153285000Y-83461439D01*
X153280628Y-83417049D01*
X153273642Y-83346114D01*
X153242371Y-83243028D01*
X153228754Y-83198140D01*
X153155862Y-83061767D01*
X153057764Y-82942236D01*
X153030302Y-82919698D01*
X153007764Y-82892236D01*
X152888233Y-82794138D01*
X152788072Y-82740601D01*
X152788072Y-82700000D01*
X152775812Y-82575518D01*
X152739502Y-82455820D01*
X152680537Y-82345506D01*
X152601185Y-82248815D01*
X152504494Y-82169463D01*
X152394180Y-82110498D01*
X152274482Y-82074188D01*
X152150000Y-82061928D01*
X150850000Y-82061928D01*
X150725518Y-82074188D01*
X150605820Y-82110498D01*
X150495506Y-82169463D01*
X150398815Y-82248815D01*
X150319463Y-82345506D01*
X150260498Y-82455820D01*
X150224188Y-82575518D01*
X150211928Y-82700000D01*
X150211928Y-82930000D01*
X148003893Y-82930000D01*
X147973994Y-82905463D01*
X147863680Y-82846498D01*
X147743982Y-82810188D01*
X147619500Y-82797928D01*
X146476500Y-82797928D01*
X146352018Y-82810188D01*
X146232320Y-82846498D01*
X146122006Y-82905463D01*
X146110000Y-82915316D01*
X146110000Y-81787087D01*
X146224482Y-81775812D01*
X146344180Y-81739502D01*
X146454494Y-81680537D01*
X146551185Y-81601185D01*
X146630537Y-81504494D01*
X146687427Y-81398061D01*
X147965000Y-81398061D01*
X147965000Y-81601939D01*
X148004774Y-81801898D01*
X148082795Y-81990256D01*
X148196063Y-82159774D01*
X148340226Y-82303937D01*
X148509744Y-82417205D01*
X148698102Y-82495226D01*
X148898061Y-82535000D01*
X149101939Y-82535000D01*
X149301898Y-82495226D01*
X149490256Y-82417205D01*
X149659774Y-82303937D01*
X149803937Y-82159774D01*
X149917205Y-81990256D01*
X149995226Y-81801898D01*
X150035000Y-81601939D01*
X150035000Y-81575157D01*
X150472085Y-81138072D01*
X151800000Y-81138072D01*
X151924482Y-81125812D01*
X152044180Y-81089502D01*
X152154494Y-81030537D01*
X152251185Y-80951185D01*
X152330537Y-80854494D01*
X152389502Y-80744180D01*
X152425812Y-80624482D01*
X152438072Y-80500000D01*
X152438072Y-79909399D01*
X152538233Y-79855862D01*
X152657764Y-79757764D01*
X152682346Y-79727811D01*
X153177815Y-79232343D01*
X153207764Y-79207764D01*
X153305862Y-79088233D01*
X153378754Y-78951860D01*
X153423641Y-78803887D01*
X153435000Y-78688561D01*
X153435000Y-78688554D01*
X153438797Y-78650001D01*
X153435000Y-78611448D01*
X153435000Y-72840957D01*
X153454494Y-72830537D01*
X153551185Y-72751185D01*
X153630537Y-72654494D01*
X153689502Y-72544180D01*
X153725812Y-72424482D01*
X153738072Y-72300000D01*
X153738072Y-71100000D01*
X153725812Y-70975518D01*
X153689502Y-70855820D01*
X153630537Y-70745506D01*
X153551185Y-70648815D01*
X153454494Y-70569463D01*
X153344180Y-70510498D01*
X153224482Y-70474188D01*
X153100000Y-70461928D01*
X152200000Y-70461928D01*
X152075518Y-70474188D01*
X151955820Y-70510498D01*
X151845506Y-70569463D01*
X151748815Y-70648815D01*
X151669463Y-70745506D01*
X151610498Y-70855820D01*
X151574188Y-70975518D01*
X151561928Y-71100000D01*
X151561928Y-72300000D01*
X151574188Y-72424482D01*
X151610498Y-72544180D01*
X151669463Y-72654494D01*
X151748815Y-72751185D01*
X151845506Y-72830537D01*
X151865000Y-72840957D01*
X151865000Y-73668330D01*
X151800000Y-73661928D01*
X151285750Y-73665000D01*
X151127000Y-73823750D01*
X151127000Y-75473000D01*
X151147000Y-75473000D01*
X151147000Y-75727000D01*
X151127000Y-75727000D01*
X151127000Y-75747000D01*
X150873000Y-75747000D01*
X150873000Y-75727000D01*
X149723750Y-75727000D01*
X149565000Y-75885750D01*
X149561928Y-76900000D01*
X149574188Y-77024482D01*
X149610498Y-77144180D01*
X149669463Y-77254494D01*
X149748815Y-77351185D01*
X149808296Y-77400000D01*
X149748815Y-77448815D01*
X149669463Y-77545506D01*
X149610498Y-77655820D01*
X149574188Y-77775518D01*
X149561928Y-77900000D01*
X149561928Y-79827914D01*
X148924843Y-80465000D01*
X148898061Y-80465000D01*
X148698102Y-80504774D01*
X148509744Y-80582795D01*
X148340226Y-80696063D01*
X148196063Y-80840226D01*
X148082795Y-81009744D01*
X148004774Y-81198102D01*
X147965000Y-81398061D01*
X146687427Y-81398061D01*
X146689502Y-81394180D01*
X146725812Y-81274482D01*
X146738072Y-81150000D01*
X146738072Y-79850000D01*
X146725812Y-79725518D01*
X146689502Y-79605820D01*
X146630537Y-79495506D01*
X146551185Y-79398815D01*
X146454494Y-79319463D01*
X146344180Y-79260498D01*
X146224482Y-79224188D01*
X146100000Y-79211928D01*
X144600000Y-79211928D01*
X144475518Y-79224188D01*
X144355820Y-79260498D01*
X144245506Y-79319463D01*
X144148815Y-79398815D01*
X144069463Y-79495506D01*
X144010498Y-79605820D01*
X144000000Y-79640427D01*
X143989502Y-79605820D01*
X143930537Y-79495506D01*
X143851185Y-79398815D01*
X143754494Y-79319463D01*
X143644180Y-79260498D01*
X143524482Y-79224188D01*
X143400000Y-79211928D01*
X143359399Y-79211928D01*
X143305862Y-79111767D01*
X143207764Y-78992236D01*
X143177816Y-78967658D01*
X141144999Y-76934842D01*
X141144999Y-75131544D01*
X141413740Y-75185000D01*
X141706260Y-75185000D01*
X141993158Y-75127932D01*
X142263411Y-75015990D01*
X142506632Y-74853475D01*
X142638487Y-74721620D01*
X142660498Y-74794180D01*
X142719463Y-74904494D01*
X142798815Y-75001185D01*
X142895506Y-75080537D01*
X143005820Y-75139502D01*
X143125518Y-75175812D01*
X143250000Y-75188072D01*
X144950000Y-75188072D01*
X145074482Y-75175812D01*
X145194180Y-75139502D01*
X145304494Y-75080537D01*
X145401185Y-75001185D01*
X145480537Y-74904494D01*
X145539502Y-74794180D01*
X145575812Y-74674482D01*
X145588072Y-74550000D01*
X145588072Y-74300000D01*
X149561928Y-74300000D01*
X149565000Y-75314250D01*
X149723750Y-75473000D01*
X150873000Y-75473000D01*
X150873000Y-73823750D01*
X150714250Y-73665000D01*
X150200000Y-73661928D01*
X150075518Y-73674188D01*
X149955820Y-73710498D01*
X149845506Y-73769463D01*
X149748815Y-73848815D01*
X149669463Y-73945506D01*
X149610498Y-74055820D01*
X149574188Y-74175518D01*
X149561928Y-74300000D01*
X145588072Y-74300000D01*
X145588072Y-73322085D01*
X146425158Y-72485000D01*
X148292546Y-72485000D01*
X148310498Y-72544180D01*
X148369463Y-72654494D01*
X148448815Y-72751185D01*
X148545506Y-72830537D01*
X148655820Y-72889502D01*
X148775518Y-72925812D01*
X148900000Y-72938072D01*
X149800000Y-72938072D01*
X149924482Y-72925812D01*
X150044180Y-72889502D01*
X150154494Y-72830537D01*
X150251185Y-72751185D01*
X150330537Y-72654494D01*
X150389502Y-72544180D01*
X150425812Y-72424482D01*
X150438072Y-72300000D01*
X150438072Y-71100000D01*
X150425812Y-70975518D01*
X150389502Y-70855820D01*
X150330537Y-70745506D01*
X150251185Y-70648815D01*
X150154494Y-70569463D01*
X150044180Y-70510498D01*
X149924482Y-70474188D01*
X149800000Y-70461928D01*
X148900000Y-70461928D01*
X148775518Y-70474188D01*
X148655820Y-70510498D01*
X148545506Y-70569463D01*
X148448815Y-70648815D01*
X148369463Y-70745506D01*
X148310498Y-70855820D01*
X148292546Y-70915000D01*
X146138552Y-70915000D01*
X146099999Y-70911203D01*
X146061446Y-70915000D01*
X146061439Y-70915000D01*
X145960490Y-70924943D01*
X145946112Y-70926359D01*
X145798140Y-70971246D01*
X145661767Y-71044138D01*
X145604095Y-71091469D01*
X145590007Y-71103031D01*
X145590611Y-71091469D01*
X145548599Y-70801981D01*
X145450919Y-70526253D01*
X145377472Y-70388843D01*
X145128397Y-70311208D01*
X144279605Y-71160000D01*
X144293748Y-71174143D01*
X144114143Y-71353748D01*
X144100000Y-71339605D01*
X143251208Y-72188397D01*
X143258542Y-72211928D01*
X143250000Y-72211928D01*
X143125518Y-72224188D01*
X143005820Y-72260498D01*
X142895506Y-72319463D01*
X142798815Y-72398815D01*
X142719463Y-72495506D01*
X142660498Y-72605820D01*
X142638487Y-72678380D01*
X142506632Y-72546525D01*
X142333271Y-72430689D01*
X142408792Y-72188397D01*
X141560000Y-71339605D01*
X141545858Y-71353748D01*
X141366253Y-71174143D01*
X141380395Y-71160000D01*
X141739605Y-71160000D01*
X142588397Y-72008792D01*
X142830000Y-71933486D01*
X143071603Y-72008792D01*
X143920395Y-71160000D01*
X143071603Y-70311208D01*
X142830000Y-70386514D01*
X142588397Y-70311208D01*
X141739605Y-71160000D01*
X141380395Y-71160000D01*
X141366253Y-71145858D01*
X141545858Y-70966253D01*
X141560000Y-70980395D01*
X142408792Y-70131603D01*
X142333486Y-69890000D01*
X142408792Y-69648397D01*
X143251208Y-69648397D01*
X143326514Y-69890000D01*
X143251208Y-70131603D01*
X144100000Y-70980395D01*
X144948792Y-70131603D01*
X144873486Y-69890000D01*
X144948792Y-69648397D01*
X144100000Y-68799605D01*
X143251208Y-69648397D01*
X142408792Y-69648397D01*
X141560000Y-68799605D01*
X141545858Y-68813748D01*
X141366253Y-68634143D01*
X141380395Y-68620000D01*
X141739605Y-68620000D01*
X142588397Y-69468792D01*
X142830000Y-69393486D01*
X143071603Y-69468792D01*
X143920395Y-68620000D01*
X144279605Y-68620000D01*
X145128397Y-69468792D01*
X145377472Y-69391157D01*
X145503371Y-69127117D01*
X145575339Y-68843589D01*
X145590611Y-68551469D01*
X145548599Y-68261981D01*
X145450919Y-67986253D01*
X145377472Y-67848843D01*
X145128397Y-67771208D01*
X144279605Y-68620000D01*
X143920395Y-68620000D01*
X143071603Y-67771208D01*
X142830000Y-67846514D01*
X142588397Y-67771208D01*
X141739605Y-68620000D01*
X141380395Y-68620000D01*
X141366253Y-68605858D01*
X141545858Y-68426253D01*
X141560000Y-68440395D01*
X142408792Y-67591603D01*
X142333486Y-67350000D01*
X142408792Y-67108397D01*
X143251208Y-67108397D01*
X143326514Y-67350000D01*
X143251208Y-67591603D01*
X144100000Y-68440395D01*
X144948792Y-67591603D01*
X144873486Y-67350000D01*
X144948792Y-67108397D01*
X144100000Y-66259605D01*
X143251208Y-67108397D01*
X142408792Y-67108397D01*
X141560000Y-66259605D01*
X141545858Y-66273748D01*
X141366253Y-66094143D01*
X141380395Y-66080000D01*
X141739605Y-66080000D01*
X142588397Y-66928792D01*
X142830000Y-66853486D01*
X143071603Y-66928792D01*
X143920395Y-66080000D01*
X144279605Y-66080000D01*
X145128397Y-66928792D01*
X145377472Y-66851157D01*
X145503371Y-66587117D01*
X145575339Y-66303589D01*
X145590611Y-66011469D01*
X145548599Y-65721981D01*
X145450919Y-65446253D01*
X145377472Y-65308843D01*
X145128397Y-65231208D01*
X144279605Y-66080000D01*
X143920395Y-66080000D01*
X143071603Y-65231208D01*
X142830000Y-65306514D01*
X142588397Y-65231208D01*
X141739605Y-66080000D01*
X141380395Y-66080000D01*
X141366253Y-66065858D01*
X141545858Y-65886253D01*
X141560000Y-65900395D01*
X142408792Y-65051603D01*
X142333271Y-64809311D01*
X142506632Y-64693475D01*
X142713475Y-64486632D01*
X142821474Y-64325000D01*
X142838526Y-64325000D01*
X142946525Y-64486632D01*
X143153368Y-64693475D01*
X143326729Y-64809311D01*
X143251208Y-65051603D01*
X144100000Y-65900395D01*
X144948792Y-65051603D01*
X144873271Y-64809311D01*
X145046632Y-64693475D01*
X145253475Y-64486632D01*
X145361474Y-64325000D01*
X145964843Y-64325000D01*
X148307045Y-66667202D01*
X148274188Y-66775518D01*
X148261928Y-66900000D01*
X148261928Y-68100000D01*
X148274188Y-68224482D01*
X148310498Y-68344180D01*
X148369463Y-68454494D01*
X148448815Y-68551185D01*
X148545506Y-68630537D01*
X148655820Y-68689502D01*
X148775518Y-68725812D01*
X148900000Y-68738072D01*
X149800000Y-68738072D01*
X149924482Y-68725812D01*
X150044180Y-68689502D01*
X150154494Y-68630537D01*
X150251185Y-68551185D01*
X150330537Y-68454494D01*
X150389502Y-68344180D01*
X150425812Y-68224482D01*
X150438072Y-68100000D01*
X150438072Y-67501783D01*
X150540226Y-67603937D01*
X150709744Y-67717205D01*
X150898102Y-67795226D01*
X151098061Y-67835000D01*
X151124842Y-67835000D01*
X151317657Y-68027815D01*
X151342236Y-68057764D01*
X151372184Y-68082342D01*
X151372187Y-68082345D01*
X151389753Y-68096761D01*
X151461767Y-68155862D01*
X151573301Y-68215478D01*
X151574188Y-68224482D01*
X151610498Y-68344180D01*
X151669463Y-68454494D01*
X151748815Y-68551185D01*
X151845506Y-68630537D01*
X151955820Y-68689502D01*
X152075518Y-68725812D01*
X152200000Y-68738072D01*
X153100000Y-68738072D01*
X153224482Y-68725812D01*
X153344180Y-68689502D01*
X153454494Y-68630537D01*
X153551185Y-68551185D01*
X153630537Y-68454494D01*
X153689502Y-68344180D01*
X153725812Y-68224482D01*
X153738072Y-68100000D01*
X153738072Y-66900000D01*
X153725812Y-66775518D01*
X153689502Y-66655820D01*
X153630537Y-66545506D01*
X153551185Y-66448815D01*
X153454494Y-66369463D01*
X153344180Y-66310498D01*
X153224482Y-66274188D01*
X153100000Y-66261928D01*
X152200000Y-66261928D01*
X152092340Y-66272531D01*
X152003937Y-66140226D01*
X151859774Y-65996063D01*
X151785000Y-65946101D01*
X151785000Y-65738072D01*
X151800000Y-65738072D01*
X151924482Y-65725812D01*
X152044180Y-65689502D01*
X152154494Y-65630537D01*
X152251185Y-65551185D01*
X152330537Y-65454494D01*
X152389502Y-65344180D01*
X152425812Y-65224482D01*
X152438072Y-65100000D01*
X152438072Y-62500000D01*
X152425812Y-62375518D01*
X152389502Y-62255820D01*
X152330537Y-62145506D01*
X152251185Y-62048815D01*
X152191704Y-62000000D01*
X152251185Y-61951185D01*
X152330537Y-61854494D01*
X152389502Y-61744180D01*
X152425812Y-61624482D01*
X152438072Y-61500000D01*
X152435000Y-60485750D01*
X152276250Y-60327000D01*
X151127000Y-60327000D01*
X151127000Y-60347000D01*
X150873000Y-60347000D01*
X150873000Y-60327000D01*
X149723750Y-60327000D01*
X149565000Y-60485750D01*
X149561928Y-61500000D01*
X149574188Y-61624482D01*
X149610498Y-61744180D01*
X149669463Y-61854494D01*
X149748815Y-61951185D01*
X149808296Y-62000000D01*
X149748815Y-62048815D01*
X149669463Y-62145506D01*
X149610498Y-62255820D01*
X149574188Y-62375518D01*
X149561928Y-62500000D01*
X149561928Y-65100000D01*
X149574188Y-65224482D01*
X149610498Y-65344180D01*
X149669463Y-65454494D01*
X149748815Y-65551185D01*
X149845506Y-65630537D01*
X149955820Y-65689502D01*
X150075518Y-65725812D01*
X150200000Y-65738072D01*
X150215001Y-65738072D01*
X150215000Y-66419119D01*
X150154494Y-66369463D01*
X150089919Y-66334947D01*
X150078754Y-66298140D01*
X150005862Y-66161767D01*
X149907764Y-66042236D01*
X149877811Y-66017654D01*
X146872347Y-63012190D01*
X146847764Y-62982236D01*
X146728233Y-62884138D01*
X146591860Y-62811246D01*
X146443887Y-62766359D01*
X146328561Y-62755000D01*
X146328553Y-62755000D01*
X146290000Y-62751203D01*
X146251447Y-62755000D01*
X145361474Y-62755000D01*
X145253475Y-62593368D01*
X145046632Y-62386525D01*
X144803411Y-62224010D01*
X144533158Y-62112068D01*
X144246260Y-62055000D01*
X143953740Y-62055000D01*
X143666842Y-62112068D01*
X143396589Y-62224010D01*
X143153368Y-62386525D01*
X142946525Y-62593368D01*
X142838526Y-62755000D01*
X142821474Y-62755000D01*
X142713475Y-62593368D01*
X142506632Y-62386525D01*
X142263411Y-62224010D01*
X141993158Y-62112068D01*
X141706260Y-62055000D01*
X141413740Y-62055000D01*
X141144999Y-62108456D01*
X141144999Y-60965158D01*
X143210157Y-58900000D01*
X149561928Y-58900000D01*
X149565000Y-59914250D01*
X149723750Y-60073000D01*
X150873000Y-60073000D01*
X150873000Y-58423750D01*
X151127000Y-58423750D01*
X151127000Y-60073000D01*
X152276250Y-60073000D01*
X152435000Y-59914250D01*
X152438072Y-58900000D01*
X152425812Y-58775518D01*
X152389502Y-58655820D01*
X152330537Y-58545506D01*
X152251185Y-58448815D01*
X152154494Y-58369463D01*
X152044180Y-58310498D01*
X151924482Y-58274188D01*
X151800000Y-58261928D01*
X151285750Y-58265000D01*
X151127000Y-58423750D01*
X150873000Y-58423750D01*
X150714250Y-58265000D01*
X150200000Y-58261928D01*
X150075518Y-58274188D01*
X149955820Y-58310498D01*
X149845506Y-58369463D01*
X149748815Y-58448815D01*
X149669463Y-58545506D01*
X149610498Y-58655820D01*
X149574188Y-58775518D01*
X149561928Y-58900000D01*
X143210157Y-58900000D01*
X145120560Y-56989597D01*
X145348816Y-57035000D01*
X145651184Y-57035000D01*
X145947743Y-56976011D01*
X146227095Y-56860299D01*
X146478505Y-56692312D01*
X146692312Y-56478505D01*
X146750000Y-56392169D01*
X146807688Y-56478505D01*
X147021495Y-56692312D01*
X147272905Y-56860299D01*
X147552257Y-56976011D01*
X147848816Y-57035000D01*
X148151184Y-57035000D01*
X148447743Y-56976011D01*
X148727095Y-56860299D01*
X148978505Y-56692312D01*
X149192312Y-56478505D01*
X149360299Y-56227095D01*
X149476011Y-55947743D01*
X149535000Y-55651184D01*
X149535000Y-55348816D01*
X149476011Y-55052257D01*
X149360299Y-54772905D01*
X149192312Y-54521495D01*
X148978505Y-54307688D01*
X148727095Y-54139701D01*
X148447743Y-54023989D01*
X148151184Y-53965000D01*
X147848816Y-53965000D01*
X147552257Y-54023989D01*
X147272905Y-54139701D01*
X147021495Y-54307688D01*
X146807688Y-54521495D01*
X146750000Y-54607831D01*
X146692312Y-54521495D01*
X146478505Y-54307688D01*
X146227095Y-54139701D01*
X145947743Y-54023989D01*
X145651184Y-53965000D01*
X145348816Y-53965000D01*
X145052257Y-54023989D01*
X144772905Y-54139701D01*
X144521495Y-54307688D01*
X144307688Y-54521495D01*
X144250000Y-54607831D01*
X144192312Y-54521495D01*
X143978505Y-54307688D01*
X143727095Y-54139701D01*
X143447743Y-54023989D01*
X143151184Y-53965000D01*
X142848816Y-53965000D01*
X142552257Y-54023989D01*
X142272905Y-54139701D01*
X142021495Y-54307688D01*
X141807688Y-54521495D01*
X141639701Y-54772905D01*
X141523989Y-55052257D01*
X141465000Y-55348816D01*
X141465000Y-55651184D01*
X141523989Y-55947743D01*
X141639701Y-56227095D01*
X141807688Y-56478505D01*
X142021495Y-56692312D01*
X142272905Y-56860299D01*
X142552257Y-56976011D01*
X142848816Y-57035000D01*
X142854842Y-57035000D01*
X139832184Y-60057659D01*
X139802236Y-60082237D01*
X139777658Y-60112185D01*
X139777654Y-60112189D01*
X139744689Y-60152357D01*
X139704138Y-60201768D01*
X139665176Y-60274661D01*
X139631245Y-60338142D01*
X139586358Y-60486115D01*
X139571202Y-60640001D01*
X139575000Y-60678564D01*
X139574999Y-77221446D01*
X139571202Y-77259999D01*
X139574999Y-77298552D01*
X139574999Y-77298559D01*
X139586358Y-77413885D01*
X139631245Y-77561858D01*
X139704137Y-77698231D01*
X139802235Y-77817763D01*
X139832189Y-77842346D01*
X141421699Y-79431856D01*
X141369463Y-79495506D01*
X141310498Y-79605820D01*
X141274188Y-79725518D01*
X141261928Y-79850000D01*
X141261928Y-81150000D01*
X141274188Y-81274482D01*
X141310498Y-81394180D01*
X141369463Y-81504494D01*
X141448815Y-81601185D01*
X141545506Y-81680537D01*
X141655820Y-81739502D01*
X141775518Y-81775812D01*
X141900000Y-81788072D01*
X143400000Y-81788072D01*
X143524482Y-81775812D01*
X143644180Y-81739502D01*
X143754494Y-81680537D01*
X143851185Y-81601185D01*
X143930537Y-81504494D01*
X143989502Y-81394180D01*
X144000000Y-81359573D01*
X144010498Y-81394180D01*
X144069463Y-81504494D01*
X144148815Y-81601185D01*
X144245506Y-81680537D01*
X144355820Y-81739502D01*
X144475518Y-81775812D01*
X144590000Y-81787087D01*
X144590001Y-84046168D01*
X144586324Y-84083500D01*
X144590001Y-84120833D01*
X144600631Y-84228754D01*
X144600998Y-84232485D01*
X144644454Y-84375746D01*
X144715026Y-84507776D01*
X144786201Y-84594502D01*
X144810000Y-84623501D01*
X144838998Y-84647299D01*
X145662700Y-85471002D01*
X145686499Y-85500001D01*
X145802224Y-85594974D01*
X145925248Y-85660733D01*
X145891452Y-85721334D01*
X145853011Y-85840365D01*
X145841500Y-85944250D01*
X146000250Y-86103000D01*
X146921000Y-86103000D01*
X146921000Y-86083000D01*
X147175000Y-86083000D01*
X147175000Y-86103000D01*
X148095750Y-86103000D01*
X148254500Y-85944250D01*
X148242989Y-85840365D01*
X148204548Y-85721334D01*
X148203804Y-85720000D01*
X150211928Y-85720000D01*
X150211928Y-86900000D01*
X150224188Y-87024482D01*
X150260498Y-87144180D01*
X150319463Y-87254494D01*
X150398815Y-87351185D01*
X150495506Y-87430537D01*
X150605820Y-87489502D01*
X150725518Y-87525812D01*
X150850000Y-87538072D01*
X151715001Y-87538072D01*
X151715001Y-88261928D01*
X150850000Y-88261928D01*
X150725518Y-88274188D01*
X150605820Y-88310498D01*
X150495506Y-88369463D01*
X150398815Y-88448815D01*
X150319463Y-88545506D01*
X150260498Y-88655820D01*
X150224188Y-88775518D01*
X150211928Y-88900000D01*
X150211928Y-89280000D01*
X148203804Y-89280000D01*
X148204548Y-89278666D01*
X148242989Y-89159635D01*
X148254500Y-89055750D01*
X148095750Y-88897000D01*
X147175000Y-88897000D01*
X147175000Y-88917000D01*
X146921000Y-88917000D01*
X146921000Y-88897000D01*
X146901000Y-88897000D01*
X146901000Y-88643000D01*
X146921000Y-88643000D01*
X146921000Y-88623000D01*
X147175000Y-88623000D01*
X147175000Y-88643000D01*
X148095750Y-88643000D01*
X148149165Y-88589585D01*
X148196063Y-88659774D01*
X148340226Y-88803937D01*
X148509744Y-88917205D01*
X148698102Y-88995226D01*
X148898061Y-89035000D01*
X149101939Y-89035000D01*
X149301898Y-88995226D01*
X149490256Y-88917205D01*
X149659774Y-88803937D01*
X149803937Y-88659774D01*
X149917205Y-88490256D01*
X149995226Y-88301898D01*
X150035000Y-88101939D01*
X150035000Y-87898061D01*
X149995226Y-87698102D01*
X149917205Y-87509744D01*
X149803937Y-87340226D01*
X149659774Y-87196063D01*
X149490256Y-87082795D01*
X149301898Y-87004774D01*
X149101939Y-86965000D01*
X149076446Y-86965000D01*
X149057764Y-86942236D01*
X148938233Y-86844138D01*
X148801860Y-86771246D01*
X148653887Y-86726359D01*
X148538561Y-86715000D01*
X148538553Y-86715000D01*
X148500000Y-86711203D01*
X148461447Y-86715000D01*
X148212191Y-86715000D01*
X148242989Y-86619635D01*
X148254500Y-86515750D01*
X148095750Y-86357000D01*
X147175000Y-86357000D01*
X147175000Y-86377000D01*
X146921000Y-86377000D01*
X146921000Y-86357000D01*
X146000250Y-86357000D01*
X145841500Y-86515750D01*
X145853011Y-86619635D01*
X145891452Y-86738666D01*
X145952376Y-86847910D01*
X145967325Y-86865476D01*
X145945963Y-86891506D01*
X145886998Y-87001820D01*
X145850688Y-87121518D01*
X145838428Y-87246000D01*
X145838428Y-87754000D01*
X145850688Y-87878482D01*
X145886998Y-87998180D01*
X145945963Y-88108494D01*
X145967325Y-88134524D01*
X145952376Y-88152090D01*
X145891452Y-88261334D01*
X145853011Y-88380365D01*
X145841500Y-88484250D01*
X146000248Y-88642998D01*
X145904300Y-88642998D01*
X144760000Y-87498699D01*
X144760000Y-85618820D01*
X144763676Y-85581497D01*
X144760000Y-85544174D01*
X144760000Y-85544165D01*
X144749003Y-85432512D01*
X144705546Y-85289251D01*
X144634974Y-85157222D01*
X144540001Y-85041497D01*
X144511004Y-85017700D01*
X140232306Y-80739003D01*
X140208503Y-80709999D01*
X140092778Y-80615026D01*
X139960749Y-80544454D01*
X139817488Y-80500997D01*
X139705835Y-80490000D01*
X139705824Y-80490000D01*
X139668502Y-80486324D01*
X139631180Y-80490000D01*
X139287087Y-80490000D01*
X139275812Y-80375518D01*
X139239502Y-80255820D01*
X139180537Y-80145506D01*
X139101185Y-80048815D01*
X139004494Y-79969463D01*
X138894180Y-79910498D01*
X138774482Y-79874188D01*
X138650000Y-79861928D01*
X137350000Y-79861928D01*
X137225518Y-79874188D01*
X137105820Y-79910498D01*
X136995506Y-79969463D01*
X136898815Y-80048815D01*
X136819463Y-80145506D01*
X136760498Y-80255820D01*
X136735000Y-80339876D01*
X136735000Y-48240475D01*
X138465000Y-48240475D01*
X138465000Y-48759525D01*
X138566261Y-49268601D01*
X138764893Y-49748141D01*
X139053262Y-50179715D01*
X139420285Y-50546738D01*
X139851859Y-50835107D01*
X140331399Y-51033739D01*
X140840475Y-51135000D01*
X141359525Y-51135000D01*
X141868601Y-51033739D01*
X142348141Y-50835107D01*
X142779715Y-50546738D01*
X143146738Y-50179715D01*
X143435107Y-49748141D01*
X143633739Y-49268601D01*
X143735000Y-48759525D01*
X143735000Y-48240475D01*
X147265000Y-48240475D01*
X147265000Y-48759525D01*
X147366261Y-49268601D01*
X147564893Y-49748141D01*
X147853262Y-50179715D01*
X148220285Y-50546738D01*
X148651859Y-50835107D01*
X149131399Y-51033739D01*
X149640475Y-51135000D01*
X150159525Y-51135000D01*
X150668601Y-51033739D01*
X151148141Y-50835107D01*
X151579715Y-50546738D01*
X151946738Y-50179715D01*
X152235107Y-49748141D01*
X152433739Y-49268601D01*
X152535000Y-48759525D01*
X152535000Y-48240475D01*
X152433739Y-47731399D01*
X152235107Y-47251859D01*
X151946738Y-46820285D01*
X151579715Y-46453262D01*
X151148141Y-46164893D01*
X150668601Y-45966261D01*
X150159525Y-45865000D01*
X149640475Y-45865000D01*
X149131399Y-45966261D01*
X148651859Y-46164893D01*
X148220285Y-46453262D01*
X147853262Y-46820285D01*
X147564893Y-47251859D01*
X147366261Y-47731399D01*
X147265000Y-48240475D01*
X143735000Y-48240475D01*
X143633739Y-47731399D01*
X143435107Y-47251859D01*
X143146738Y-46820285D01*
X142779715Y-46453262D01*
X142348141Y-46164893D01*
X141868601Y-45966261D01*
X141359525Y-45865000D01*
X140840475Y-45865000D01*
X140331399Y-45966261D01*
X139851859Y-46164893D01*
X139420285Y-46453262D01*
X139053262Y-46820285D01*
X138764893Y-47251859D01*
X138566261Y-47731399D01*
X138465000Y-48240475D01*
X136735000Y-48240475D01*
X136735000Y-37735000D01*
X154065000Y-37735000D01*
X154065001Y-146265000D01*
G36*
X139488428Y-85214000D02*
G01*
X139500688Y-85338482D01*
X139536998Y-85458180D01*
X139595963Y-85568494D01*
X139617716Y-85595000D01*
X139595963Y-85621506D01*
X139536998Y-85731820D01*
X139500688Y-85851518D01*
X139488428Y-85976000D01*
X139488428Y-86484000D01*
X139500688Y-86608482D01*
X139536998Y-86728180D01*
X139595963Y-86838494D01*
X139617716Y-86865000D01*
X139595963Y-86891506D01*
X139536998Y-87001820D01*
X139500688Y-87121518D01*
X139488428Y-87246000D01*
X139488428Y-87754000D01*
X139500688Y-87878482D01*
X139536998Y-87998180D01*
X139595963Y-88108494D01*
X139617716Y-88135000D01*
X139595963Y-88161506D01*
X139536998Y-88271820D01*
X139500688Y-88391518D01*
X139488428Y-88516000D01*
X139488428Y-89024000D01*
X139500688Y-89148482D01*
X139536998Y-89268180D01*
X139595963Y-89378494D01*
X139617716Y-89405000D01*
X139595963Y-89431506D01*
X139536998Y-89541820D01*
X139500688Y-89661518D01*
X139488428Y-89786000D01*
X139488428Y-90294000D01*
X139500688Y-90418482D01*
X139536998Y-90538180D01*
X139595963Y-90648494D01*
X139617716Y-90675000D01*
X139595963Y-90701506D01*
X139536998Y-90811820D01*
X139500688Y-90931518D01*
X139488428Y-91056000D01*
X139488428Y-91564000D01*
X139500688Y-91688482D01*
X139536998Y-91808180D01*
X139595963Y-91918494D01*
X139675315Y-92015185D01*
X139772006Y-92094537D01*
X139882320Y-92153502D01*
X140002018Y-92189812D01*
X140126500Y-92202072D01*
X140861502Y-92202072D01*
X140861501Y-96355249D01*
X140852000Y-96364750D01*
X140852000Y-96968000D01*
X140861501Y-96968000D01*
X140861501Y-97222000D01*
X140852000Y-97222000D01*
X140852000Y-97242000D01*
X140598000Y-97242000D01*
X140598000Y-97222000D01*
X140578000Y-97222000D01*
X140578000Y-96968000D01*
X140598000Y-96968000D01*
X140598000Y-96364750D01*
X140439250Y-96206000D01*
X140164892Y-96203030D01*
X140040212Y-96213066D01*
X139919884Y-96247233D01*
X139808535Y-96304218D01*
X139710442Y-96381831D01*
X139629376Y-96477090D01*
X139568452Y-96586334D01*
X139530011Y-96705365D01*
X139518500Y-96809250D01*
X139677248Y-96967998D01*
X139581300Y-96967998D01*
X138760000Y-96146699D01*
X138760000Y-85327238D01*
X138774482Y-85325812D01*
X138894180Y-85289502D01*
X139004494Y-85230537D01*
X139101185Y-85151185D01*
X139180537Y-85054494D01*
X139239502Y-84944180D01*
X139275812Y-84824482D01*
X139287087Y-84710000D01*
X139488428Y-84710000D01*
X139488428Y-85214000D01*
G37*
X139488428Y-85214000D02*
X139500688Y-85338482D01*
X139536998Y-85458180D01*
X139595963Y-85568494D01*
X139617716Y-85595000D01*
X139595963Y-85621506D01*
X139536998Y-85731820D01*
X139500688Y-85851518D01*
X139488428Y-85976000D01*
X139488428Y-86484000D01*
X139500688Y-86608482D01*
X139536998Y-86728180D01*
X139595963Y-86838494D01*
X139617716Y-86865000D01*
X139595963Y-86891506D01*
X139536998Y-87001820D01*
X139500688Y-87121518D01*
X139488428Y-87246000D01*
X139488428Y-87754000D01*
X139500688Y-87878482D01*
X139536998Y-87998180D01*
X139595963Y-88108494D01*
X139617716Y-88135000D01*
X139595963Y-88161506D01*
X139536998Y-88271820D01*
X139500688Y-88391518D01*
X139488428Y-88516000D01*
X139488428Y-89024000D01*
X139500688Y-89148482D01*
X139536998Y-89268180D01*
X139595963Y-89378494D01*
X139617716Y-89405000D01*
X139595963Y-89431506D01*
X139536998Y-89541820D01*
X139500688Y-89661518D01*
X139488428Y-89786000D01*
X139488428Y-90294000D01*
X139500688Y-90418482D01*
X139536998Y-90538180D01*
X139595963Y-90648494D01*
X139617716Y-90675000D01*
X139595963Y-90701506D01*
X139536998Y-90811820D01*
X139500688Y-90931518D01*
X139488428Y-91056000D01*
X139488428Y-91564000D01*
X139500688Y-91688482D01*
X139536998Y-91808180D01*
X139595963Y-91918494D01*
X139675315Y-92015185D01*
X139772006Y-92094537D01*
X139882320Y-92153502D01*
X140002018Y-92189812D01*
X140126500Y-92202072D01*
X140861502Y-92202072D01*
X140861501Y-96355249D01*
X140852000Y-96364750D01*
X140852000Y-96968000D01*
X140861501Y-96968000D01*
X140861501Y-97222000D01*
X140852000Y-97222000D01*
X140852000Y-97242000D01*
X140598000Y-97242000D01*
X140598000Y-97222000D01*
X140578000Y-97222000D01*
X140578000Y-96968000D01*
X140598000Y-96968000D01*
X140598000Y-96364750D01*
X140439250Y-96206000D01*
X140164892Y-96203030D01*
X140040212Y-96213066D01*
X139919884Y-96247233D01*
X139808535Y-96304218D01*
X139710442Y-96381831D01*
X139629376Y-96477090D01*
X139568452Y-96586334D01*
X139530011Y-96705365D01*
X139518500Y-96809250D01*
X139677248Y-96967998D01*
X139581300Y-96967998D01*
X138760000Y-96146699D01*
X138760000Y-85327238D01*
X138774482Y-85325812D01*
X138894180Y-85289502D01*
X139004494Y-85230537D01*
X139101185Y-85151185D01*
X139180537Y-85054494D01*
X139239502Y-84944180D01*
X139275812Y-84824482D01*
X139287087Y-84710000D01*
X139488428Y-84710000D01*
X139488428Y-85214000D01*
M02*
