G04 #@! TF.GenerationSoftware,KiCad,Pcbnew,(5.1.5)-3*
G04 #@! TF.CreationDate,2020-05-13T21:41:15+01:00*
G04 #@! TF.ProjectId,Ringo,52696e67-6f2e-46b6-9963-61645f706362,rev?*
G04 #@! TF.SameCoordinates,Original*
G04 #@! TF.FileFunction,Copper,L2,Bot*
G04 #@! TF.FilePolarity,Positive*
%FSLAX46Y46*%
G04 Gerber Fmt 4.6, Leading zero omitted, Abs format (unit mm)*
G04 Created by KiCad (PCBNEW (5.1.5)-3) date 2020-05-13 21:41:15*
%MOMM*%
%LPD*%
G04 APERTURE LIST*
%ADD10C,4.000000*%
%ADD11C,1.800000*%
%ADD12R,2.500000X1.000000*%
%ADD13C,1.700000*%
%ADD14R,1.700000X1.700000*%
%ADD15C,0.800000*%
%ADD16C,0.300000*%
%ADD17C,0.254000*%
G04 APERTURE END LIST*
D10*
X141100000Y-48500000D03*
X149900000Y-48500000D03*
D11*
X143000000Y-55500000D03*
X145500000Y-55500000D03*
X148000000Y-55500000D03*
D12*
X145500000Y-144980000D03*
X145500000Y-141880000D03*
X145500000Y-133580000D03*
D13*
X141560000Y-63540000D03*
X144100000Y-63540000D03*
X141560000Y-66080000D03*
X144100000Y-66080000D03*
X141560000Y-68620000D03*
X144100000Y-68620000D03*
X141560000Y-71160000D03*
X144100000Y-71160000D03*
X141560000Y-73700000D03*
D14*
X144100000Y-73700000D03*
D12*
X145500000Y-116980000D03*
X145500000Y-113880000D03*
X145500000Y-105580000D03*
X145500000Y-130880000D03*
X145500000Y-127780000D03*
X145500000Y-119480000D03*
D15*
X140000000Y-94500000D03*
X142676402Y-87323598D03*
X147000000Y-95000000D03*
X151200000Y-66800000D03*
X149000000Y-98500000D03*
X149000000Y-88000000D03*
X149000000Y-81500000D03*
X144500000Y-95500000D03*
D16*
X142676402Y-87323598D02*
X138000000Y-82647196D01*
X143000000Y-55500000D02*
X138000000Y-60500000D01*
X138000000Y-82647196D02*
X138000000Y-60500000D01*
X147000000Y-71000000D02*
X147000000Y-95000000D01*
X151200000Y-66800000D02*
X147000000Y-71000000D01*
X149000000Y-98500000D02*
X149000000Y-88000000D01*
X149000000Y-88000000D02*
X149000000Y-81500000D01*
X144500000Y-95500000D02*
X146499992Y-93500008D01*
X146499992Y-93500008D02*
X146500000Y-57500000D01*
X146500000Y-57000000D02*
X146500000Y-57500000D01*
X148000000Y-55500000D02*
X146500000Y-57000000D01*
D17*
G36*
X154065001Y-146265000D02*
G01*
X136735000Y-146265000D01*
X136735000Y-144480000D01*
X143611928Y-144480000D01*
X143611928Y-145480000D01*
X143624188Y-145604482D01*
X143660498Y-145724180D01*
X143719463Y-145834494D01*
X143798815Y-145931185D01*
X143895506Y-146010537D01*
X144005820Y-146069502D01*
X144125518Y-146105812D01*
X144250000Y-146118072D01*
X146750000Y-146118072D01*
X146874482Y-146105812D01*
X146994180Y-146069502D01*
X147104494Y-146010537D01*
X147201185Y-145931185D01*
X147280537Y-145834494D01*
X147339502Y-145724180D01*
X147375812Y-145604482D01*
X147388072Y-145480000D01*
X147388072Y-144480000D01*
X147375812Y-144355518D01*
X147339502Y-144235820D01*
X147280537Y-144125506D01*
X147201185Y-144028815D01*
X147104494Y-143949463D01*
X146994180Y-143890498D01*
X146874482Y-143854188D01*
X146750000Y-143841928D01*
X144250000Y-143841928D01*
X144125518Y-143854188D01*
X144005820Y-143890498D01*
X143895506Y-143949463D01*
X143798815Y-144028815D01*
X143719463Y-144125506D01*
X143660498Y-144235820D01*
X143624188Y-144355518D01*
X143611928Y-144480000D01*
X136735000Y-144480000D01*
X136735000Y-141380000D01*
X143611928Y-141380000D01*
X143611928Y-142380000D01*
X143624188Y-142504482D01*
X143660498Y-142624180D01*
X143719463Y-142734494D01*
X143798815Y-142831185D01*
X143895506Y-142910537D01*
X144005820Y-142969502D01*
X144125518Y-143005812D01*
X144250000Y-143018072D01*
X146750000Y-143018072D01*
X146874482Y-143005812D01*
X146994180Y-142969502D01*
X147104494Y-142910537D01*
X147201185Y-142831185D01*
X147280537Y-142734494D01*
X147339502Y-142624180D01*
X147375812Y-142504482D01*
X147388072Y-142380000D01*
X147388072Y-141380000D01*
X147375812Y-141255518D01*
X147339502Y-141135820D01*
X147280537Y-141025506D01*
X147201185Y-140928815D01*
X147104494Y-140849463D01*
X146994180Y-140790498D01*
X146874482Y-140754188D01*
X146750000Y-140741928D01*
X144250000Y-140741928D01*
X144125518Y-140754188D01*
X144005820Y-140790498D01*
X143895506Y-140849463D01*
X143798815Y-140928815D01*
X143719463Y-141025506D01*
X143660498Y-141135820D01*
X143624188Y-141255518D01*
X143611928Y-141380000D01*
X136735000Y-141380000D01*
X136735000Y-138314344D01*
X143615000Y-138314344D01*
X143615000Y-138685656D01*
X143687439Y-139049834D01*
X143829534Y-139392882D01*
X144035825Y-139701618D01*
X144298382Y-139964175D01*
X144607118Y-140170466D01*
X144950166Y-140312561D01*
X145314344Y-140385000D01*
X145685656Y-140385000D01*
X146049834Y-140312561D01*
X146392882Y-140170466D01*
X146701618Y-139964175D01*
X146964175Y-139701618D01*
X147170466Y-139392882D01*
X147312561Y-139049834D01*
X147385000Y-138685656D01*
X147385000Y-138314344D01*
X147312561Y-137950166D01*
X147170466Y-137607118D01*
X146964175Y-137298382D01*
X146701618Y-137035825D01*
X146392882Y-136829534D01*
X146049834Y-136687439D01*
X145685656Y-136615000D01*
X145314344Y-136615000D01*
X144950166Y-136687439D01*
X144607118Y-136829534D01*
X144298382Y-137035825D01*
X144035825Y-137298382D01*
X143829534Y-137607118D01*
X143687439Y-137950166D01*
X143615000Y-138314344D01*
X136735000Y-138314344D01*
X136735000Y-133080000D01*
X143611928Y-133080000D01*
X143611928Y-134080000D01*
X143624188Y-134204482D01*
X143660498Y-134324180D01*
X143719463Y-134434494D01*
X143798815Y-134531185D01*
X143895506Y-134610537D01*
X144005820Y-134669502D01*
X144125518Y-134705812D01*
X144250000Y-134718072D01*
X146750000Y-134718072D01*
X146874482Y-134705812D01*
X146994180Y-134669502D01*
X147104494Y-134610537D01*
X147201185Y-134531185D01*
X147280537Y-134434494D01*
X147339502Y-134324180D01*
X147375812Y-134204482D01*
X147388072Y-134080000D01*
X147388072Y-133080000D01*
X147375812Y-132955518D01*
X147339502Y-132835820D01*
X147280537Y-132725506D01*
X147201185Y-132628815D01*
X147104494Y-132549463D01*
X146994180Y-132490498D01*
X146874482Y-132454188D01*
X146750000Y-132441928D01*
X144250000Y-132441928D01*
X144125518Y-132454188D01*
X144005820Y-132490498D01*
X143895506Y-132549463D01*
X143798815Y-132628815D01*
X143719463Y-132725506D01*
X143660498Y-132835820D01*
X143624188Y-132955518D01*
X143611928Y-133080000D01*
X136735000Y-133080000D01*
X136735000Y-130380000D01*
X143611928Y-130380000D01*
X143611928Y-131380000D01*
X143624188Y-131504482D01*
X143660498Y-131624180D01*
X143719463Y-131734494D01*
X143798815Y-131831185D01*
X143895506Y-131910537D01*
X144005820Y-131969502D01*
X144125518Y-132005812D01*
X144250000Y-132018072D01*
X146750000Y-132018072D01*
X146874482Y-132005812D01*
X146994180Y-131969502D01*
X147104494Y-131910537D01*
X147201185Y-131831185D01*
X147280537Y-131734494D01*
X147339502Y-131624180D01*
X147375812Y-131504482D01*
X147388072Y-131380000D01*
X147388072Y-130380000D01*
X147375812Y-130255518D01*
X147339502Y-130135820D01*
X147280537Y-130025506D01*
X147201185Y-129928815D01*
X147104494Y-129849463D01*
X146994180Y-129790498D01*
X146874482Y-129754188D01*
X146750000Y-129741928D01*
X144250000Y-129741928D01*
X144125518Y-129754188D01*
X144005820Y-129790498D01*
X143895506Y-129849463D01*
X143798815Y-129928815D01*
X143719463Y-130025506D01*
X143660498Y-130135820D01*
X143624188Y-130255518D01*
X143611928Y-130380000D01*
X136735000Y-130380000D01*
X136735000Y-127280000D01*
X143611928Y-127280000D01*
X143611928Y-128280000D01*
X143624188Y-128404482D01*
X143660498Y-128524180D01*
X143719463Y-128634494D01*
X143798815Y-128731185D01*
X143895506Y-128810537D01*
X144005820Y-128869502D01*
X144125518Y-128905812D01*
X144250000Y-128918072D01*
X146750000Y-128918072D01*
X146874482Y-128905812D01*
X146994180Y-128869502D01*
X147104494Y-128810537D01*
X147201185Y-128731185D01*
X147280537Y-128634494D01*
X147339502Y-128524180D01*
X147375812Y-128404482D01*
X147388072Y-128280000D01*
X147388072Y-127280000D01*
X147375812Y-127155518D01*
X147339502Y-127035820D01*
X147280537Y-126925506D01*
X147201185Y-126828815D01*
X147104494Y-126749463D01*
X146994180Y-126690498D01*
X146874482Y-126654188D01*
X146750000Y-126641928D01*
X144250000Y-126641928D01*
X144125518Y-126654188D01*
X144005820Y-126690498D01*
X143895506Y-126749463D01*
X143798815Y-126828815D01*
X143719463Y-126925506D01*
X143660498Y-127035820D01*
X143624188Y-127155518D01*
X143611928Y-127280000D01*
X136735000Y-127280000D01*
X136735000Y-124214344D01*
X143615000Y-124214344D01*
X143615000Y-124585656D01*
X143687439Y-124949834D01*
X143829534Y-125292882D01*
X144035825Y-125601618D01*
X144298382Y-125864175D01*
X144607118Y-126070466D01*
X144950166Y-126212561D01*
X145314344Y-126285000D01*
X145685656Y-126285000D01*
X146049834Y-126212561D01*
X146392882Y-126070466D01*
X146701618Y-125864175D01*
X146964175Y-125601618D01*
X147170466Y-125292882D01*
X147312561Y-124949834D01*
X147385000Y-124585656D01*
X147385000Y-124214344D01*
X147312561Y-123850166D01*
X147170466Y-123507118D01*
X146964175Y-123198382D01*
X146701618Y-122935825D01*
X146392882Y-122729534D01*
X146049834Y-122587439D01*
X145685656Y-122515000D01*
X145314344Y-122515000D01*
X144950166Y-122587439D01*
X144607118Y-122729534D01*
X144298382Y-122935825D01*
X144035825Y-123198382D01*
X143829534Y-123507118D01*
X143687439Y-123850166D01*
X143615000Y-124214344D01*
X136735000Y-124214344D01*
X136735000Y-118980000D01*
X143611928Y-118980000D01*
X143611928Y-119980000D01*
X143624188Y-120104482D01*
X143660498Y-120224180D01*
X143719463Y-120334494D01*
X143798815Y-120431185D01*
X143895506Y-120510537D01*
X144005820Y-120569502D01*
X144125518Y-120605812D01*
X144250000Y-120618072D01*
X146750000Y-120618072D01*
X146874482Y-120605812D01*
X146994180Y-120569502D01*
X147104494Y-120510537D01*
X147201185Y-120431185D01*
X147280537Y-120334494D01*
X147339502Y-120224180D01*
X147375812Y-120104482D01*
X147388072Y-119980000D01*
X147388072Y-118980000D01*
X147375812Y-118855518D01*
X147339502Y-118735820D01*
X147280537Y-118625506D01*
X147201185Y-118528815D01*
X147104494Y-118449463D01*
X146994180Y-118390498D01*
X146874482Y-118354188D01*
X146750000Y-118341928D01*
X144250000Y-118341928D01*
X144125518Y-118354188D01*
X144005820Y-118390498D01*
X143895506Y-118449463D01*
X143798815Y-118528815D01*
X143719463Y-118625506D01*
X143660498Y-118735820D01*
X143624188Y-118855518D01*
X143611928Y-118980000D01*
X136735000Y-118980000D01*
X136735000Y-116480000D01*
X143611928Y-116480000D01*
X143611928Y-117480000D01*
X143624188Y-117604482D01*
X143660498Y-117724180D01*
X143719463Y-117834494D01*
X143798815Y-117931185D01*
X143895506Y-118010537D01*
X144005820Y-118069502D01*
X144125518Y-118105812D01*
X144250000Y-118118072D01*
X146750000Y-118118072D01*
X146874482Y-118105812D01*
X146994180Y-118069502D01*
X147104494Y-118010537D01*
X147201185Y-117931185D01*
X147280537Y-117834494D01*
X147339502Y-117724180D01*
X147375812Y-117604482D01*
X147388072Y-117480000D01*
X147388072Y-116480000D01*
X147375812Y-116355518D01*
X147339502Y-116235820D01*
X147280537Y-116125506D01*
X147201185Y-116028815D01*
X147104494Y-115949463D01*
X146994180Y-115890498D01*
X146874482Y-115854188D01*
X146750000Y-115841928D01*
X144250000Y-115841928D01*
X144125518Y-115854188D01*
X144005820Y-115890498D01*
X143895506Y-115949463D01*
X143798815Y-116028815D01*
X143719463Y-116125506D01*
X143660498Y-116235820D01*
X143624188Y-116355518D01*
X143611928Y-116480000D01*
X136735000Y-116480000D01*
X136735000Y-113380000D01*
X143611928Y-113380000D01*
X143611928Y-114380000D01*
X143624188Y-114504482D01*
X143660498Y-114624180D01*
X143719463Y-114734494D01*
X143798815Y-114831185D01*
X143895506Y-114910537D01*
X144005820Y-114969502D01*
X144125518Y-115005812D01*
X144250000Y-115018072D01*
X146750000Y-115018072D01*
X146874482Y-115005812D01*
X146994180Y-114969502D01*
X147104494Y-114910537D01*
X147201185Y-114831185D01*
X147280537Y-114734494D01*
X147339502Y-114624180D01*
X147375812Y-114504482D01*
X147388072Y-114380000D01*
X147388072Y-113380000D01*
X147375812Y-113255518D01*
X147339502Y-113135820D01*
X147280537Y-113025506D01*
X147201185Y-112928815D01*
X147104494Y-112849463D01*
X146994180Y-112790498D01*
X146874482Y-112754188D01*
X146750000Y-112741928D01*
X144250000Y-112741928D01*
X144125518Y-112754188D01*
X144005820Y-112790498D01*
X143895506Y-112849463D01*
X143798815Y-112928815D01*
X143719463Y-113025506D01*
X143660498Y-113135820D01*
X143624188Y-113255518D01*
X143611928Y-113380000D01*
X136735000Y-113380000D01*
X136735000Y-110314344D01*
X143615000Y-110314344D01*
X143615000Y-110685656D01*
X143687439Y-111049834D01*
X143829534Y-111392882D01*
X144035825Y-111701618D01*
X144298382Y-111964175D01*
X144607118Y-112170466D01*
X144950166Y-112312561D01*
X145314344Y-112385000D01*
X145685656Y-112385000D01*
X146049834Y-112312561D01*
X146392882Y-112170466D01*
X146701618Y-111964175D01*
X146964175Y-111701618D01*
X147170466Y-111392882D01*
X147312561Y-111049834D01*
X147385000Y-110685656D01*
X147385000Y-110314344D01*
X147312561Y-109950166D01*
X147170466Y-109607118D01*
X146964175Y-109298382D01*
X146701618Y-109035825D01*
X146392882Y-108829534D01*
X146049834Y-108687439D01*
X145685656Y-108615000D01*
X145314344Y-108615000D01*
X144950166Y-108687439D01*
X144607118Y-108829534D01*
X144298382Y-109035825D01*
X144035825Y-109298382D01*
X143829534Y-109607118D01*
X143687439Y-109950166D01*
X143615000Y-110314344D01*
X136735000Y-110314344D01*
X136735000Y-105080000D01*
X143611928Y-105080000D01*
X143611928Y-106080000D01*
X143624188Y-106204482D01*
X143660498Y-106324180D01*
X143719463Y-106434494D01*
X143798815Y-106531185D01*
X143895506Y-106610537D01*
X144005820Y-106669502D01*
X144125518Y-106705812D01*
X144250000Y-106718072D01*
X146750000Y-106718072D01*
X146874482Y-106705812D01*
X146994180Y-106669502D01*
X147104494Y-106610537D01*
X147201185Y-106531185D01*
X147280537Y-106434494D01*
X147339502Y-106324180D01*
X147375812Y-106204482D01*
X147388072Y-106080000D01*
X147388072Y-105080000D01*
X147375812Y-104955518D01*
X147339502Y-104835820D01*
X147280537Y-104725506D01*
X147201185Y-104628815D01*
X147104494Y-104549463D01*
X146994180Y-104490498D01*
X146874482Y-104454188D01*
X146750000Y-104441928D01*
X144250000Y-104441928D01*
X144125518Y-104454188D01*
X144005820Y-104490498D01*
X143895506Y-104549463D01*
X143798815Y-104628815D01*
X143719463Y-104725506D01*
X143660498Y-104835820D01*
X143624188Y-104955518D01*
X143611928Y-105080000D01*
X136735000Y-105080000D01*
X136735000Y-60500000D01*
X137211203Y-60500000D01*
X137215001Y-60538563D01*
X137215000Y-82608643D01*
X137211203Y-82647196D01*
X137215000Y-82685749D01*
X137215000Y-82685756D01*
X137226359Y-82801082D01*
X137271246Y-82949055D01*
X137344138Y-83085428D01*
X137442236Y-83204960D01*
X137472190Y-83229543D01*
X141641402Y-87398756D01*
X141641402Y-87425537D01*
X141681176Y-87625496D01*
X141759197Y-87813854D01*
X141872465Y-87983372D01*
X142016628Y-88127535D01*
X142186146Y-88240803D01*
X142374504Y-88318824D01*
X142574463Y-88358598D01*
X142778341Y-88358598D01*
X142978300Y-88318824D01*
X143166658Y-88240803D01*
X143336176Y-88127535D01*
X143480339Y-87983372D01*
X143593607Y-87813854D01*
X143671628Y-87625496D01*
X143711402Y-87425537D01*
X143711402Y-87221659D01*
X143671628Y-87021700D01*
X143593607Y-86833342D01*
X143480339Y-86663824D01*
X143336176Y-86519661D01*
X143166658Y-86406393D01*
X142978300Y-86328372D01*
X142778341Y-86288598D01*
X142751560Y-86288598D01*
X138785000Y-82322039D01*
X138785000Y-73553740D01*
X140075000Y-73553740D01*
X140075000Y-73846260D01*
X140132068Y-74133158D01*
X140244010Y-74403411D01*
X140406525Y-74646632D01*
X140613368Y-74853475D01*
X140856589Y-75015990D01*
X141126842Y-75127932D01*
X141413740Y-75185000D01*
X141706260Y-75185000D01*
X141993158Y-75127932D01*
X142263411Y-75015990D01*
X142506632Y-74853475D01*
X142638487Y-74721620D01*
X142660498Y-74794180D01*
X142719463Y-74904494D01*
X142798815Y-75001185D01*
X142895506Y-75080537D01*
X143005820Y-75139502D01*
X143125518Y-75175812D01*
X143250000Y-75188072D01*
X144950000Y-75188072D01*
X145074482Y-75175812D01*
X145194180Y-75139502D01*
X145304494Y-75080537D01*
X145401185Y-75001185D01*
X145480537Y-74904494D01*
X145539502Y-74794180D01*
X145575812Y-74674482D01*
X145588072Y-74550000D01*
X145588072Y-72850000D01*
X145575812Y-72725518D01*
X145539502Y-72605820D01*
X145480537Y-72495506D01*
X145401185Y-72398815D01*
X145304494Y-72319463D01*
X145194180Y-72260498D01*
X145074482Y-72224188D01*
X144950000Y-72211928D01*
X144941458Y-72211928D01*
X144948792Y-72188397D01*
X144100000Y-71339605D01*
X143251208Y-72188397D01*
X143258542Y-72211928D01*
X143250000Y-72211928D01*
X143125518Y-72224188D01*
X143005820Y-72260498D01*
X142895506Y-72319463D01*
X142798815Y-72398815D01*
X142719463Y-72495506D01*
X142660498Y-72605820D01*
X142638487Y-72678380D01*
X142506632Y-72546525D01*
X142333271Y-72430689D01*
X142408792Y-72188397D01*
X141560000Y-71339605D01*
X140711208Y-72188397D01*
X140786729Y-72430689D01*
X140613368Y-72546525D01*
X140406525Y-72753368D01*
X140244010Y-72996589D01*
X140132068Y-73266842D01*
X140075000Y-73553740D01*
X138785000Y-73553740D01*
X138785000Y-71228531D01*
X140069389Y-71228531D01*
X140111401Y-71518019D01*
X140209081Y-71793747D01*
X140282528Y-71931157D01*
X140531603Y-72008792D01*
X141380395Y-71160000D01*
X141739605Y-71160000D01*
X142588397Y-72008792D01*
X142830000Y-71933486D01*
X143071603Y-72008792D01*
X143920395Y-71160000D01*
X144279605Y-71160000D01*
X145128397Y-72008792D01*
X145377472Y-71931157D01*
X145503371Y-71667117D01*
X145575339Y-71383589D01*
X145590611Y-71091469D01*
X145548599Y-70801981D01*
X145450919Y-70526253D01*
X145377472Y-70388843D01*
X145128397Y-70311208D01*
X144279605Y-71160000D01*
X143920395Y-71160000D01*
X143071603Y-70311208D01*
X142830000Y-70386514D01*
X142588397Y-70311208D01*
X141739605Y-71160000D01*
X141380395Y-71160000D01*
X140531603Y-70311208D01*
X140282528Y-70388843D01*
X140156629Y-70652883D01*
X140084661Y-70936411D01*
X140069389Y-71228531D01*
X138785000Y-71228531D01*
X138785000Y-69648397D01*
X140711208Y-69648397D01*
X140786514Y-69890000D01*
X140711208Y-70131603D01*
X141560000Y-70980395D01*
X142408792Y-70131603D01*
X142333486Y-69890000D01*
X142408792Y-69648397D01*
X143251208Y-69648397D01*
X143326514Y-69890000D01*
X143251208Y-70131603D01*
X144100000Y-70980395D01*
X144948792Y-70131603D01*
X144873486Y-69890000D01*
X144948792Y-69648397D01*
X144100000Y-68799605D01*
X143251208Y-69648397D01*
X142408792Y-69648397D01*
X141560000Y-68799605D01*
X140711208Y-69648397D01*
X138785000Y-69648397D01*
X138785000Y-68688531D01*
X140069389Y-68688531D01*
X140111401Y-68978019D01*
X140209081Y-69253747D01*
X140282528Y-69391157D01*
X140531603Y-69468792D01*
X141380395Y-68620000D01*
X141739605Y-68620000D01*
X142588397Y-69468792D01*
X142830000Y-69393486D01*
X143071603Y-69468792D01*
X143920395Y-68620000D01*
X144279605Y-68620000D01*
X145128397Y-69468792D01*
X145377472Y-69391157D01*
X145503371Y-69127117D01*
X145575339Y-68843589D01*
X145590611Y-68551469D01*
X145548599Y-68261981D01*
X145450919Y-67986253D01*
X145377472Y-67848843D01*
X145128397Y-67771208D01*
X144279605Y-68620000D01*
X143920395Y-68620000D01*
X143071603Y-67771208D01*
X142830000Y-67846514D01*
X142588397Y-67771208D01*
X141739605Y-68620000D01*
X141380395Y-68620000D01*
X140531603Y-67771208D01*
X140282528Y-67848843D01*
X140156629Y-68112883D01*
X140084661Y-68396411D01*
X140069389Y-68688531D01*
X138785000Y-68688531D01*
X138785000Y-67108397D01*
X140711208Y-67108397D01*
X140786514Y-67350000D01*
X140711208Y-67591603D01*
X141560000Y-68440395D01*
X142408792Y-67591603D01*
X142333486Y-67350000D01*
X142408792Y-67108397D01*
X143251208Y-67108397D01*
X143326514Y-67350000D01*
X143251208Y-67591603D01*
X144100000Y-68440395D01*
X144948792Y-67591603D01*
X144873486Y-67350000D01*
X144948792Y-67108397D01*
X144100000Y-66259605D01*
X143251208Y-67108397D01*
X142408792Y-67108397D01*
X141560000Y-66259605D01*
X140711208Y-67108397D01*
X138785000Y-67108397D01*
X138785000Y-66148531D01*
X140069389Y-66148531D01*
X140111401Y-66438019D01*
X140209081Y-66713747D01*
X140282528Y-66851157D01*
X140531603Y-66928792D01*
X141380395Y-66080000D01*
X141739605Y-66080000D01*
X142588397Y-66928792D01*
X142830000Y-66853486D01*
X143071603Y-66928792D01*
X143920395Y-66080000D01*
X144279605Y-66080000D01*
X145128397Y-66928792D01*
X145377472Y-66851157D01*
X145503371Y-66587117D01*
X145575339Y-66303589D01*
X145590611Y-66011469D01*
X145548599Y-65721981D01*
X145450919Y-65446253D01*
X145377472Y-65308843D01*
X145128397Y-65231208D01*
X144279605Y-66080000D01*
X143920395Y-66080000D01*
X143071603Y-65231208D01*
X142830000Y-65306514D01*
X142588397Y-65231208D01*
X141739605Y-66080000D01*
X141380395Y-66080000D01*
X140531603Y-65231208D01*
X140282528Y-65308843D01*
X140156629Y-65572883D01*
X140084661Y-65856411D01*
X140069389Y-66148531D01*
X138785000Y-66148531D01*
X138785000Y-63393740D01*
X140075000Y-63393740D01*
X140075000Y-63686260D01*
X140132068Y-63973158D01*
X140244010Y-64243411D01*
X140406525Y-64486632D01*
X140613368Y-64693475D01*
X140786729Y-64809311D01*
X140711208Y-65051603D01*
X141560000Y-65900395D01*
X142408792Y-65051603D01*
X142333271Y-64809311D01*
X142506632Y-64693475D01*
X142713475Y-64486632D01*
X142830000Y-64312240D01*
X142946525Y-64486632D01*
X143153368Y-64693475D01*
X143326729Y-64809311D01*
X143251208Y-65051603D01*
X144100000Y-65900395D01*
X144948792Y-65051603D01*
X144873271Y-64809311D01*
X145046632Y-64693475D01*
X145253475Y-64486632D01*
X145415990Y-64243411D01*
X145527932Y-63973158D01*
X145585000Y-63686260D01*
X145585000Y-63393740D01*
X145527932Y-63106842D01*
X145415990Y-62836589D01*
X145253475Y-62593368D01*
X145046632Y-62386525D01*
X144803411Y-62224010D01*
X144533158Y-62112068D01*
X144246260Y-62055000D01*
X143953740Y-62055000D01*
X143666842Y-62112068D01*
X143396589Y-62224010D01*
X143153368Y-62386525D01*
X142946525Y-62593368D01*
X142830000Y-62767760D01*
X142713475Y-62593368D01*
X142506632Y-62386525D01*
X142263411Y-62224010D01*
X141993158Y-62112068D01*
X141706260Y-62055000D01*
X141413740Y-62055000D01*
X141126842Y-62112068D01*
X140856589Y-62224010D01*
X140613368Y-62386525D01*
X140406525Y-62593368D01*
X140244010Y-62836589D01*
X140132068Y-63106842D01*
X140075000Y-63393740D01*
X138785000Y-63393740D01*
X138785000Y-60825157D01*
X142620560Y-56989597D01*
X142848816Y-57035000D01*
X143151184Y-57035000D01*
X143447743Y-56976011D01*
X143727095Y-56860299D01*
X143978505Y-56692312D01*
X144192312Y-56478505D01*
X144250000Y-56392169D01*
X144307688Y-56478505D01*
X144521495Y-56692312D01*
X144772905Y-56860299D01*
X145052257Y-56976011D01*
X145348816Y-57035000D01*
X145651184Y-57035000D01*
X145713431Y-57022618D01*
X145715000Y-57038553D01*
X145715000Y-57538561D01*
X145715001Y-57538571D01*
X145714992Y-93174851D01*
X144424843Y-94465000D01*
X144398061Y-94465000D01*
X144198102Y-94504774D01*
X144009744Y-94582795D01*
X143840226Y-94696063D01*
X143696063Y-94840226D01*
X143582795Y-95009744D01*
X143504774Y-95198102D01*
X143465000Y-95398061D01*
X143465000Y-95601939D01*
X143504774Y-95801898D01*
X143582795Y-95990256D01*
X143696063Y-96159774D01*
X143840226Y-96303937D01*
X144009744Y-96417205D01*
X144198102Y-96495226D01*
X144398061Y-96535000D01*
X144601939Y-96535000D01*
X144801898Y-96495226D01*
X144990256Y-96417205D01*
X145159774Y-96303937D01*
X145303937Y-96159774D01*
X145417205Y-95990256D01*
X145495226Y-95801898D01*
X145535000Y-95601939D01*
X145535000Y-95575157D01*
X145972170Y-95137987D01*
X146004774Y-95301898D01*
X146082795Y-95490256D01*
X146196063Y-95659774D01*
X146340226Y-95803937D01*
X146509744Y-95917205D01*
X146698102Y-95995226D01*
X146898061Y-96035000D01*
X147101939Y-96035000D01*
X147301898Y-95995226D01*
X147490256Y-95917205D01*
X147659774Y-95803937D01*
X147803937Y-95659774D01*
X147917205Y-95490256D01*
X147995226Y-95301898D01*
X148035000Y-95101939D01*
X148035000Y-94898061D01*
X147995226Y-94698102D01*
X147917205Y-94509744D01*
X147803937Y-94340226D01*
X147785000Y-94321289D01*
X147785000Y-81398061D01*
X147965000Y-81398061D01*
X147965000Y-81601939D01*
X148004774Y-81801898D01*
X148082795Y-81990256D01*
X148196063Y-82159774D01*
X148215001Y-82178712D01*
X148215000Y-87321289D01*
X148196063Y-87340226D01*
X148082795Y-87509744D01*
X148004774Y-87698102D01*
X147965000Y-87898061D01*
X147965000Y-88101939D01*
X148004774Y-88301898D01*
X148082795Y-88490256D01*
X148196063Y-88659774D01*
X148215001Y-88678712D01*
X148215000Y-97821289D01*
X148196063Y-97840226D01*
X148082795Y-98009744D01*
X148004774Y-98198102D01*
X147965000Y-98398061D01*
X147965000Y-98601939D01*
X148004774Y-98801898D01*
X148082795Y-98990256D01*
X148196063Y-99159774D01*
X148340226Y-99303937D01*
X148509744Y-99417205D01*
X148698102Y-99495226D01*
X148898061Y-99535000D01*
X149101939Y-99535000D01*
X149301898Y-99495226D01*
X149490256Y-99417205D01*
X149659774Y-99303937D01*
X149803937Y-99159774D01*
X149917205Y-98990256D01*
X149995226Y-98801898D01*
X150035000Y-98601939D01*
X150035000Y-98398061D01*
X149995226Y-98198102D01*
X149917205Y-98009744D01*
X149803937Y-97840226D01*
X149785000Y-97821289D01*
X149785000Y-88678711D01*
X149803937Y-88659774D01*
X149917205Y-88490256D01*
X149995226Y-88301898D01*
X150035000Y-88101939D01*
X150035000Y-87898061D01*
X149995226Y-87698102D01*
X149917205Y-87509744D01*
X149803937Y-87340226D01*
X149785000Y-87321289D01*
X149785000Y-82178711D01*
X149803937Y-82159774D01*
X149917205Y-81990256D01*
X149995226Y-81801898D01*
X150035000Y-81601939D01*
X150035000Y-81398061D01*
X149995226Y-81198102D01*
X149917205Y-81009744D01*
X149803937Y-80840226D01*
X149659774Y-80696063D01*
X149490256Y-80582795D01*
X149301898Y-80504774D01*
X149101939Y-80465000D01*
X148898061Y-80465000D01*
X148698102Y-80504774D01*
X148509744Y-80582795D01*
X148340226Y-80696063D01*
X148196063Y-80840226D01*
X148082795Y-81009744D01*
X148004774Y-81198102D01*
X147965000Y-81398061D01*
X147785000Y-81398061D01*
X147785000Y-71325157D01*
X151275158Y-67835000D01*
X151301939Y-67835000D01*
X151501898Y-67795226D01*
X151690256Y-67717205D01*
X151859774Y-67603937D01*
X152003937Y-67459774D01*
X152117205Y-67290256D01*
X152195226Y-67101898D01*
X152235000Y-66901939D01*
X152235000Y-66698061D01*
X152195226Y-66498102D01*
X152117205Y-66309744D01*
X152003937Y-66140226D01*
X151859774Y-65996063D01*
X151690256Y-65882795D01*
X151501898Y-65804774D01*
X151301939Y-65765000D01*
X151098061Y-65765000D01*
X150898102Y-65804774D01*
X150709744Y-65882795D01*
X150540226Y-65996063D01*
X150396063Y-66140226D01*
X150282795Y-66309744D01*
X150204774Y-66498102D01*
X150165000Y-66698061D01*
X150165000Y-66724842D01*
X147284997Y-69604846D01*
X147285000Y-57461440D01*
X147285000Y-57325157D01*
X147620560Y-56989597D01*
X147848816Y-57035000D01*
X148151184Y-57035000D01*
X148447743Y-56976011D01*
X148727095Y-56860299D01*
X148978505Y-56692312D01*
X149192312Y-56478505D01*
X149360299Y-56227095D01*
X149476011Y-55947743D01*
X149535000Y-55651184D01*
X149535000Y-55348816D01*
X149476011Y-55052257D01*
X149360299Y-54772905D01*
X149192312Y-54521495D01*
X148978505Y-54307688D01*
X148727095Y-54139701D01*
X148447743Y-54023989D01*
X148151184Y-53965000D01*
X147848816Y-53965000D01*
X147552257Y-54023989D01*
X147272905Y-54139701D01*
X147021495Y-54307688D01*
X146807688Y-54521495D01*
X146750000Y-54607831D01*
X146692312Y-54521495D01*
X146478505Y-54307688D01*
X146227095Y-54139701D01*
X145947743Y-54023989D01*
X145651184Y-53965000D01*
X145348816Y-53965000D01*
X145052257Y-54023989D01*
X144772905Y-54139701D01*
X144521495Y-54307688D01*
X144307688Y-54521495D01*
X144250000Y-54607831D01*
X144192312Y-54521495D01*
X143978505Y-54307688D01*
X143727095Y-54139701D01*
X143447743Y-54023989D01*
X143151184Y-53965000D01*
X142848816Y-53965000D01*
X142552257Y-54023989D01*
X142272905Y-54139701D01*
X142021495Y-54307688D01*
X141807688Y-54521495D01*
X141639701Y-54772905D01*
X141523989Y-55052257D01*
X141465000Y-55348816D01*
X141465000Y-55651184D01*
X141510403Y-55879440D01*
X137472185Y-59917658D01*
X137442237Y-59942236D01*
X137417659Y-59972184D01*
X137417655Y-59972188D01*
X137384690Y-60012356D01*
X137344139Y-60061767D01*
X137305177Y-60134660D01*
X137271246Y-60198141D01*
X137226359Y-60346114D01*
X137211203Y-60500000D01*
X136735000Y-60500000D01*
X136735000Y-48240475D01*
X138465000Y-48240475D01*
X138465000Y-48759525D01*
X138566261Y-49268601D01*
X138764893Y-49748141D01*
X139053262Y-50179715D01*
X139420285Y-50546738D01*
X139851859Y-50835107D01*
X140331399Y-51033739D01*
X140840475Y-51135000D01*
X141359525Y-51135000D01*
X141868601Y-51033739D01*
X142348141Y-50835107D01*
X142779715Y-50546738D01*
X143146738Y-50179715D01*
X143435107Y-49748141D01*
X143633739Y-49268601D01*
X143735000Y-48759525D01*
X143735000Y-48240475D01*
X147265000Y-48240475D01*
X147265000Y-48759525D01*
X147366261Y-49268601D01*
X147564893Y-49748141D01*
X147853262Y-50179715D01*
X148220285Y-50546738D01*
X148651859Y-50835107D01*
X149131399Y-51033739D01*
X149640475Y-51135000D01*
X150159525Y-51135000D01*
X150668601Y-51033739D01*
X151148141Y-50835107D01*
X151579715Y-50546738D01*
X151946738Y-50179715D01*
X152235107Y-49748141D01*
X152433739Y-49268601D01*
X152535000Y-48759525D01*
X152535000Y-48240475D01*
X152433739Y-47731399D01*
X152235107Y-47251859D01*
X151946738Y-46820285D01*
X151579715Y-46453262D01*
X151148141Y-46164893D01*
X150668601Y-45966261D01*
X150159525Y-45865000D01*
X149640475Y-45865000D01*
X149131399Y-45966261D01*
X148651859Y-46164893D01*
X148220285Y-46453262D01*
X147853262Y-46820285D01*
X147564893Y-47251859D01*
X147366261Y-47731399D01*
X147265000Y-48240475D01*
X143735000Y-48240475D01*
X143633739Y-47731399D01*
X143435107Y-47251859D01*
X143146738Y-46820285D01*
X142779715Y-46453262D01*
X142348141Y-46164893D01*
X141868601Y-45966261D01*
X141359525Y-45865000D01*
X140840475Y-45865000D01*
X140331399Y-45966261D01*
X139851859Y-46164893D01*
X139420285Y-46453262D01*
X139053262Y-46820285D01*
X138764893Y-47251859D01*
X138566261Y-47731399D01*
X138465000Y-48240475D01*
X136735000Y-48240475D01*
X136735000Y-37735000D01*
X154065000Y-37735000D01*
X154065001Y-146265000D01*
G37*
X154065001Y-146265000D02*
X136735000Y-146265000D01*
X136735000Y-144480000D01*
X143611928Y-144480000D01*
X143611928Y-145480000D01*
X143624188Y-145604482D01*
X143660498Y-145724180D01*
X143719463Y-145834494D01*
X143798815Y-145931185D01*
X143895506Y-146010537D01*
X144005820Y-146069502D01*
X144125518Y-146105812D01*
X144250000Y-146118072D01*
X146750000Y-146118072D01*
X146874482Y-146105812D01*
X146994180Y-146069502D01*
X147104494Y-146010537D01*
X147201185Y-145931185D01*
X147280537Y-145834494D01*
X147339502Y-145724180D01*
X147375812Y-145604482D01*
X147388072Y-145480000D01*
X147388072Y-144480000D01*
X147375812Y-144355518D01*
X147339502Y-144235820D01*
X147280537Y-144125506D01*
X147201185Y-144028815D01*
X147104494Y-143949463D01*
X146994180Y-143890498D01*
X146874482Y-143854188D01*
X146750000Y-143841928D01*
X144250000Y-143841928D01*
X144125518Y-143854188D01*
X144005820Y-143890498D01*
X143895506Y-143949463D01*
X143798815Y-144028815D01*
X143719463Y-144125506D01*
X143660498Y-144235820D01*
X143624188Y-144355518D01*
X143611928Y-144480000D01*
X136735000Y-144480000D01*
X136735000Y-141380000D01*
X143611928Y-141380000D01*
X143611928Y-142380000D01*
X143624188Y-142504482D01*
X143660498Y-142624180D01*
X143719463Y-142734494D01*
X143798815Y-142831185D01*
X143895506Y-142910537D01*
X144005820Y-142969502D01*
X144125518Y-143005812D01*
X144250000Y-143018072D01*
X146750000Y-143018072D01*
X146874482Y-143005812D01*
X146994180Y-142969502D01*
X147104494Y-142910537D01*
X147201185Y-142831185D01*
X147280537Y-142734494D01*
X147339502Y-142624180D01*
X147375812Y-142504482D01*
X147388072Y-142380000D01*
X147388072Y-141380000D01*
X147375812Y-141255518D01*
X147339502Y-141135820D01*
X147280537Y-141025506D01*
X147201185Y-140928815D01*
X147104494Y-140849463D01*
X146994180Y-140790498D01*
X146874482Y-140754188D01*
X146750000Y-140741928D01*
X144250000Y-140741928D01*
X144125518Y-140754188D01*
X144005820Y-140790498D01*
X143895506Y-140849463D01*
X143798815Y-140928815D01*
X143719463Y-141025506D01*
X143660498Y-141135820D01*
X143624188Y-141255518D01*
X143611928Y-141380000D01*
X136735000Y-141380000D01*
X136735000Y-138314344D01*
X143615000Y-138314344D01*
X143615000Y-138685656D01*
X143687439Y-139049834D01*
X143829534Y-139392882D01*
X144035825Y-139701618D01*
X144298382Y-139964175D01*
X144607118Y-140170466D01*
X144950166Y-140312561D01*
X145314344Y-140385000D01*
X145685656Y-140385000D01*
X146049834Y-140312561D01*
X146392882Y-140170466D01*
X146701618Y-139964175D01*
X146964175Y-139701618D01*
X147170466Y-139392882D01*
X147312561Y-139049834D01*
X147385000Y-138685656D01*
X147385000Y-138314344D01*
X147312561Y-137950166D01*
X147170466Y-137607118D01*
X146964175Y-137298382D01*
X146701618Y-137035825D01*
X146392882Y-136829534D01*
X146049834Y-136687439D01*
X145685656Y-136615000D01*
X145314344Y-136615000D01*
X144950166Y-136687439D01*
X144607118Y-136829534D01*
X144298382Y-137035825D01*
X144035825Y-137298382D01*
X143829534Y-137607118D01*
X143687439Y-137950166D01*
X143615000Y-138314344D01*
X136735000Y-138314344D01*
X136735000Y-133080000D01*
X143611928Y-133080000D01*
X143611928Y-134080000D01*
X143624188Y-134204482D01*
X143660498Y-134324180D01*
X143719463Y-134434494D01*
X143798815Y-134531185D01*
X143895506Y-134610537D01*
X144005820Y-134669502D01*
X144125518Y-134705812D01*
X144250000Y-134718072D01*
X146750000Y-134718072D01*
X146874482Y-134705812D01*
X146994180Y-134669502D01*
X147104494Y-134610537D01*
X147201185Y-134531185D01*
X147280537Y-134434494D01*
X147339502Y-134324180D01*
X147375812Y-134204482D01*
X147388072Y-134080000D01*
X147388072Y-133080000D01*
X147375812Y-132955518D01*
X147339502Y-132835820D01*
X147280537Y-132725506D01*
X147201185Y-132628815D01*
X147104494Y-132549463D01*
X146994180Y-132490498D01*
X146874482Y-132454188D01*
X146750000Y-132441928D01*
X144250000Y-132441928D01*
X144125518Y-132454188D01*
X144005820Y-132490498D01*
X143895506Y-132549463D01*
X143798815Y-132628815D01*
X143719463Y-132725506D01*
X143660498Y-132835820D01*
X143624188Y-132955518D01*
X143611928Y-133080000D01*
X136735000Y-133080000D01*
X136735000Y-130380000D01*
X143611928Y-130380000D01*
X143611928Y-131380000D01*
X143624188Y-131504482D01*
X143660498Y-131624180D01*
X143719463Y-131734494D01*
X143798815Y-131831185D01*
X143895506Y-131910537D01*
X144005820Y-131969502D01*
X144125518Y-132005812D01*
X144250000Y-132018072D01*
X146750000Y-132018072D01*
X146874482Y-132005812D01*
X146994180Y-131969502D01*
X147104494Y-131910537D01*
X147201185Y-131831185D01*
X147280537Y-131734494D01*
X147339502Y-131624180D01*
X147375812Y-131504482D01*
X147388072Y-131380000D01*
X147388072Y-130380000D01*
X147375812Y-130255518D01*
X147339502Y-130135820D01*
X147280537Y-130025506D01*
X147201185Y-129928815D01*
X147104494Y-129849463D01*
X146994180Y-129790498D01*
X146874482Y-129754188D01*
X146750000Y-129741928D01*
X144250000Y-129741928D01*
X144125518Y-129754188D01*
X144005820Y-129790498D01*
X143895506Y-129849463D01*
X143798815Y-129928815D01*
X143719463Y-130025506D01*
X143660498Y-130135820D01*
X143624188Y-130255518D01*
X143611928Y-130380000D01*
X136735000Y-130380000D01*
X136735000Y-127280000D01*
X143611928Y-127280000D01*
X143611928Y-128280000D01*
X143624188Y-128404482D01*
X143660498Y-128524180D01*
X143719463Y-128634494D01*
X143798815Y-128731185D01*
X143895506Y-128810537D01*
X144005820Y-128869502D01*
X144125518Y-128905812D01*
X144250000Y-128918072D01*
X146750000Y-128918072D01*
X146874482Y-128905812D01*
X146994180Y-128869502D01*
X147104494Y-128810537D01*
X147201185Y-128731185D01*
X147280537Y-128634494D01*
X147339502Y-128524180D01*
X147375812Y-128404482D01*
X147388072Y-128280000D01*
X147388072Y-127280000D01*
X147375812Y-127155518D01*
X147339502Y-127035820D01*
X147280537Y-126925506D01*
X147201185Y-126828815D01*
X147104494Y-126749463D01*
X146994180Y-126690498D01*
X146874482Y-126654188D01*
X146750000Y-126641928D01*
X144250000Y-126641928D01*
X144125518Y-126654188D01*
X144005820Y-126690498D01*
X143895506Y-126749463D01*
X143798815Y-126828815D01*
X143719463Y-126925506D01*
X143660498Y-127035820D01*
X143624188Y-127155518D01*
X143611928Y-127280000D01*
X136735000Y-127280000D01*
X136735000Y-124214344D01*
X143615000Y-124214344D01*
X143615000Y-124585656D01*
X143687439Y-124949834D01*
X143829534Y-125292882D01*
X144035825Y-125601618D01*
X144298382Y-125864175D01*
X144607118Y-126070466D01*
X144950166Y-126212561D01*
X145314344Y-126285000D01*
X145685656Y-126285000D01*
X146049834Y-126212561D01*
X146392882Y-126070466D01*
X146701618Y-125864175D01*
X146964175Y-125601618D01*
X147170466Y-125292882D01*
X147312561Y-124949834D01*
X147385000Y-124585656D01*
X147385000Y-124214344D01*
X147312561Y-123850166D01*
X147170466Y-123507118D01*
X146964175Y-123198382D01*
X146701618Y-122935825D01*
X146392882Y-122729534D01*
X146049834Y-122587439D01*
X145685656Y-122515000D01*
X145314344Y-122515000D01*
X144950166Y-122587439D01*
X144607118Y-122729534D01*
X144298382Y-122935825D01*
X144035825Y-123198382D01*
X143829534Y-123507118D01*
X143687439Y-123850166D01*
X143615000Y-124214344D01*
X136735000Y-124214344D01*
X136735000Y-118980000D01*
X143611928Y-118980000D01*
X143611928Y-119980000D01*
X143624188Y-120104482D01*
X143660498Y-120224180D01*
X143719463Y-120334494D01*
X143798815Y-120431185D01*
X143895506Y-120510537D01*
X144005820Y-120569502D01*
X144125518Y-120605812D01*
X144250000Y-120618072D01*
X146750000Y-120618072D01*
X146874482Y-120605812D01*
X146994180Y-120569502D01*
X147104494Y-120510537D01*
X147201185Y-120431185D01*
X147280537Y-120334494D01*
X147339502Y-120224180D01*
X147375812Y-120104482D01*
X147388072Y-119980000D01*
X147388072Y-118980000D01*
X147375812Y-118855518D01*
X147339502Y-118735820D01*
X147280537Y-118625506D01*
X147201185Y-118528815D01*
X147104494Y-118449463D01*
X146994180Y-118390498D01*
X146874482Y-118354188D01*
X146750000Y-118341928D01*
X144250000Y-118341928D01*
X144125518Y-118354188D01*
X144005820Y-118390498D01*
X143895506Y-118449463D01*
X143798815Y-118528815D01*
X143719463Y-118625506D01*
X143660498Y-118735820D01*
X143624188Y-118855518D01*
X143611928Y-118980000D01*
X136735000Y-118980000D01*
X136735000Y-116480000D01*
X143611928Y-116480000D01*
X143611928Y-117480000D01*
X143624188Y-117604482D01*
X143660498Y-117724180D01*
X143719463Y-117834494D01*
X143798815Y-117931185D01*
X143895506Y-118010537D01*
X144005820Y-118069502D01*
X144125518Y-118105812D01*
X144250000Y-118118072D01*
X146750000Y-118118072D01*
X146874482Y-118105812D01*
X146994180Y-118069502D01*
X147104494Y-118010537D01*
X147201185Y-117931185D01*
X147280537Y-117834494D01*
X147339502Y-117724180D01*
X147375812Y-117604482D01*
X147388072Y-117480000D01*
X147388072Y-116480000D01*
X147375812Y-116355518D01*
X147339502Y-116235820D01*
X147280537Y-116125506D01*
X147201185Y-116028815D01*
X147104494Y-115949463D01*
X146994180Y-115890498D01*
X146874482Y-115854188D01*
X146750000Y-115841928D01*
X144250000Y-115841928D01*
X144125518Y-115854188D01*
X144005820Y-115890498D01*
X143895506Y-115949463D01*
X143798815Y-116028815D01*
X143719463Y-116125506D01*
X143660498Y-116235820D01*
X143624188Y-116355518D01*
X143611928Y-116480000D01*
X136735000Y-116480000D01*
X136735000Y-113380000D01*
X143611928Y-113380000D01*
X143611928Y-114380000D01*
X143624188Y-114504482D01*
X143660498Y-114624180D01*
X143719463Y-114734494D01*
X143798815Y-114831185D01*
X143895506Y-114910537D01*
X144005820Y-114969502D01*
X144125518Y-115005812D01*
X144250000Y-115018072D01*
X146750000Y-115018072D01*
X146874482Y-115005812D01*
X146994180Y-114969502D01*
X147104494Y-114910537D01*
X147201185Y-114831185D01*
X147280537Y-114734494D01*
X147339502Y-114624180D01*
X147375812Y-114504482D01*
X147388072Y-114380000D01*
X147388072Y-113380000D01*
X147375812Y-113255518D01*
X147339502Y-113135820D01*
X147280537Y-113025506D01*
X147201185Y-112928815D01*
X147104494Y-112849463D01*
X146994180Y-112790498D01*
X146874482Y-112754188D01*
X146750000Y-112741928D01*
X144250000Y-112741928D01*
X144125518Y-112754188D01*
X144005820Y-112790498D01*
X143895506Y-112849463D01*
X143798815Y-112928815D01*
X143719463Y-113025506D01*
X143660498Y-113135820D01*
X143624188Y-113255518D01*
X143611928Y-113380000D01*
X136735000Y-113380000D01*
X136735000Y-110314344D01*
X143615000Y-110314344D01*
X143615000Y-110685656D01*
X143687439Y-111049834D01*
X143829534Y-111392882D01*
X144035825Y-111701618D01*
X144298382Y-111964175D01*
X144607118Y-112170466D01*
X144950166Y-112312561D01*
X145314344Y-112385000D01*
X145685656Y-112385000D01*
X146049834Y-112312561D01*
X146392882Y-112170466D01*
X146701618Y-111964175D01*
X146964175Y-111701618D01*
X147170466Y-111392882D01*
X147312561Y-111049834D01*
X147385000Y-110685656D01*
X147385000Y-110314344D01*
X147312561Y-109950166D01*
X147170466Y-109607118D01*
X146964175Y-109298382D01*
X146701618Y-109035825D01*
X146392882Y-108829534D01*
X146049834Y-108687439D01*
X145685656Y-108615000D01*
X145314344Y-108615000D01*
X144950166Y-108687439D01*
X144607118Y-108829534D01*
X144298382Y-109035825D01*
X144035825Y-109298382D01*
X143829534Y-109607118D01*
X143687439Y-109950166D01*
X143615000Y-110314344D01*
X136735000Y-110314344D01*
X136735000Y-105080000D01*
X143611928Y-105080000D01*
X143611928Y-106080000D01*
X143624188Y-106204482D01*
X143660498Y-106324180D01*
X143719463Y-106434494D01*
X143798815Y-106531185D01*
X143895506Y-106610537D01*
X144005820Y-106669502D01*
X144125518Y-106705812D01*
X144250000Y-106718072D01*
X146750000Y-106718072D01*
X146874482Y-106705812D01*
X146994180Y-106669502D01*
X147104494Y-106610537D01*
X147201185Y-106531185D01*
X147280537Y-106434494D01*
X147339502Y-106324180D01*
X147375812Y-106204482D01*
X147388072Y-106080000D01*
X147388072Y-105080000D01*
X147375812Y-104955518D01*
X147339502Y-104835820D01*
X147280537Y-104725506D01*
X147201185Y-104628815D01*
X147104494Y-104549463D01*
X146994180Y-104490498D01*
X146874482Y-104454188D01*
X146750000Y-104441928D01*
X144250000Y-104441928D01*
X144125518Y-104454188D01*
X144005820Y-104490498D01*
X143895506Y-104549463D01*
X143798815Y-104628815D01*
X143719463Y-104725506D01*
X143660498Y-104835820D01*
X143624188Y-104955518D01*
X143611928Y-105080000D01*
X136735000Y-105080000D01*
X136735000Y-60500000D01*
X137211203Y-60500000D01*
X137215001Y-60538563D01*
X137215000Y-82608643D01*
X137211203Y-82647196D01*
X137215000Y-82685749D01*
X137215000Y-82685756D01*
X137226359Y-82801082D01*
X137271246Y-82949055D01*
X137344138Y-83085428D01*
X137442236Y-83204960D01*
X137472190Y-83229543D01*
X141641402Y-87398756D01*
X141641402Y-87425537D01*
X141681176Y-87625496D01*
X141759197Y-87813854D01*
X141872465Y-87983372D01*
X142016628Y-88127535D01*
X142186146Y-88240803D01*
X142374504Y-88318824D01*
X142574463Y-88358598D01*
X142778341Y-88358598D01*
X142978300Y-88318824D01*
X143166658Y-88240803D01*
X143336176Y-88127535D01*
X143480339Y-87983372D01*
X143593607Y-87813854D01*
X143671628Y-87625496D01*
X143711402Y-87425537D01*
X143711402Y-87221659D01*
X143671628Y-87021700D01*
X143593607Y-86833342D01*
X143480339Y-86663824D01*
X143336176Y-86519661D01*
X143166658Y-86406393D01*
X142978300Y-86328372D01*
X142778341Y-86288598D01*
X142751560Y-86288598D01*
X138785000Y-82322039D01*
X138785000Y-73553740D01*
X140075000Y-73553740D01*
X140075000Y-73846260D01*
X140132068Y-74133158D01*
X140244010Y-74403411D01*
X140406525Y-74646632D01*
X140613368Y-74853475D01*
X140856589Y-75015990D01*
X141126842Y-75127932D01*
X141413740Y-75185000D01*
X141706260Y-75185000D01*
X141993158Y-75127932D01*
X142263411Y-75015990D01*
X142506632Y-74853475D01*
X142638487Y-74721620D01*
X142660498Y-74794180D01*
X142719463Y-74904494D01*
X142798815Y-75001185D01*
X142895506Y-75080537D01*
X143005820Y-75139502D01*
X143125518Y-75175812D01*
X143250000Y-75188072D01*
X144950000Y-75188072D01*
X145074482Y-75175812D01*
X145194180Y-75139502D01*
X145304494Y-75080537D01*
X145401185Y-75001185D01*
X145480537Y-74904494D01*
X145539502Y-74794180D01*
X145575812Y-74674482D01*
X145588072Y-74550000D01*
X145588072Y-72850000D01*
X145575812Y-72725518D01*
X145539502Y-72605820D01*
X145480537Y-72495506D01*
X145401185Y-72398815D01*
X145304494Y-72319463D01*
X145194180Y-72260498D01*
X145074482Y-72224188D01*
X144950000Y-72211928D01*
X144941458Y-72211928D01*
X144948792Y-72188397D01*
X144100000Y-71339605D01*
X143251208Y-72188397D01*
X143258542Y-72211928D01*
X143250000Y-72211928D01*
X143125518Y-72224188D01*
X143005820Y-72260498D01*
X142895506Y-72319463D01*
X142798815Y-72398815D01*
X142719463Y-72495506D01*
X142660498Y-72605820D01*
X142638487Y-72678380D01*
X142506632Y-72546525D01*
X142333271Y-72430689D01*
X142408792Y-72188397D01*
X141560000Y-71339605D01*
X140711208Y-72188397D01*
X140786729Y-72430689D01*
X140613368Y-72546525D01*
X140406525Y-72753368D01*
X140244010Y-72996589D01*
X140132068Y-73266842D01*
X140075000Y-73553740D01*
X138785000Y-73553740D01*
X138785000Y-71228531D01*
X140069389Y-71228531D01*
X140111401Y-71518019D01*
X140209081Y-71793747D01*
X140282528Y-71931157D01*
X140531603Y-72008792D01*
X141380395Y-71160000D01*
X141739605Y-71160000D01*
X142588397Y-72008792D01*
X142830000Y-71933486D01*
X143071603Y-72008792D01*
X143920395Y-71160000D01*
X144279605Y-71160000D01*
X145128397Y-72008792D01*
X145377472Y-71931157D01*
X145503371Y-71667117D01*
X145575339Y-71383589D01*
X145590611Y-71091469D01*
X145548599Y-70801981D01*
X145450919Y-70526253D01*
X145377472Y-70388843D01*
X145128397Y-70311208D01*
X144279605Y-71160000D01*
X143920395Y-71160000D01*
X143071603Y-70311208D01*
X142830000Y-70386514D01*
X142588397Y-70311208D01*
X141739605Y-71160000D01*
X141380395Y-71160000D01*
X140531603Y-70311208D01*
X140282528Y-70388843D01*
X140156629Y-70652883D01*
X140084661Y-70936411D01*
X140069389Y-71228531D01*
X138785000Y-71228531D01*
X138785000Y-69648397D01*
X140711208Y-69648397D01*
X140786514Y-69890000D01*
X140711208Y-70131603D01*
X141560000Y-70980395D01*
X142408792Y-70131603D01*
X142333486Y-69890000D01*
X142408792Y-69648397D01*
X143251208Y-69648397D01*
X143326514Y-69890000D01*
X143251208Y-70131603D01*
X144100000Y-70980395D01*
X144948792Y-70131603D01*
X144873486Y-69890000D01*
X144948792Y-69648397D01*
X144100000Y-68799605D01*
X143251208Y-69648397D01*
X142408792Y-69648397D01*
X141560000Y-68799605D01*
X140711208Y-69648397D01*
X138785000Y-69648397D01*
X138785000Y-68688531D01*
X140069389Y-68688531D01*
X140111401Y-68978019D01*
X140209081Y-69253747D01*
X140282528Y-69391157D01*
X140531603Y-69468792D01*
X141380395Y-68620000D01*
X141739605Y-68620000D01*
X142588397Y-69468792D01*
X142830000Y-69393486D01*
X143071603Y-69468792D01*
X143920395Y-68620000D01*
X144279605Y-68620000D01*
X145128397Y-69468792D01*
X145377472Y-69391157D01*
X145503371Y-69127117D01*
X145575339Y-68843589D01*
X145590611Y-68551469D01*
X145548599Y-68261981D01*
X145450919Y-67986253D01*
X145377472Y-67848843D01*
X145128397Y-67771208D01*
X144279605Y-68620000D01*
X143920395Y-68620000D01*
X143071603Y-67771208D01*
X142830000Y-67846514D01*
X142588397Y-67771208D01*
X141739605Y-68620000D01*
X141380395Y-68620000D01*
X140531603Y-67771208D01*
X140282528Y-67848843D01*
X140156629Y-68112883D01*
X140084661Y-68396411D01*
X140069389Y-68688531D01*
X138785000Y-68688531D01*
X138785000Y-67108397D01*
X140711208Y-67108397D01*
X140786514Y-67350000D01*
X140711208Y-67591603D01*
X141560000Y-68440395D01*
X142408792Y-67591603D01*
X142333486Y-67350000D01*
X142408792Y-67108397D01*
X143251208Y-67108397D01*
X143326514Y-67350000D01*
X143251208Y-67591603D01*
X144100000Y-68440395D01*
X144948792Y-67591603D01*
X144873486Y-67350000D01*
X144948792Y-67108397D01*
X144100000Y-66259605D01*
X143251208Y-67108397D01*
X142408792Y-67108397D01*
X141560000Y-66259605D01*
X140711208Y-67108397D01*
X138785000Y-67108397D01*
X138785000Y-66148531D01*
X140069389Y-66148531D01*
X140111401Y-66438019D01*
X140209081Y-66713747D01*
X140282528Y-66851157D01*
X140531603Y-66928792D01*
X141380395Y-66080000D01*
X141739605Y-66080000D01*
X142588397Y-66928792D01*
X142830000Y-66853486D01*
X143071603Y-66928792D01*
X143920395Y-66080000D01*
X144279605Y-66080000D01*
X145128397Y-66928792D01*
X145377472Y-66851157D01*
X145503371Y-66587117D01*
X145575339Y-66303589D01*
X145590611Y-66011469D01*
X145548599Y-65721981D01*
X145450919Y-65446253D01*
X145377472Y-65308843D01*
X145128397Y-65231208D01*
X144279605Y-66080000D01*
X143920395Y-66080000D01*
X143071603Y-65231208D01*
X142830000Y-65306514D01*
X142588397Y-65231208D01*
X141739605Y-66080000D01*
X141380395Y-66080000D01*
X140531603Y-65231208D01*
X140282528Y-65308843D01*
X140156629Y-65572883D01*
X140084661Y-65856411D01*
X140069389Y-66148531D01*
X138785000Y-66148531D01*
X138785000Y-63393740D01*
X140075000Y-63393740D01*
X140075000Y-63686260D01*
X140132068Y-63973158D01*
X140244010Y-64243411D01*
X140406525Y-64486632D01*
X140613368Y-64693475D01*
X140786729Y-64809311D01*
X140711208Y-65051603D01*
X141560000Y-65900395D01*
X142408792Y-65051603D01*
X142333271Y-64809311D01*
X142506632Y-64693475D01*
X142713475Y-64486632D01*
X142830000Y-64312240D01*
X142946525Y-64486632D01*
X143153368Y-64693475D01*
X143326729Y-64809311D01*
X143251208Y-65051603D01*
X144100000Y-65900395D01*
X144948792Y-65051603D01*
X144873271Y-64809311D01*
X145046632Y-64693475D01*
X145253475Y-64486632D01*
X145415990Y-64243411D01*
X145527932Y-63973158D01*
X145585000Y-63686260D01*
X145585000Y-63393740D01*
X145527932Y-63106842D01*
X145415990Y-62836589D01*
X145253475Y-62593368D01*
X145046632Y-62386525D01*
X144803411Y-62224010D01*
X144533158Y-62112068D01*
X144246260Y-62055000D01*
X143953740Y-62055000D01*
X143666842Y-62112068D01*
X143396589Y-62224010D01*
X143153368Y-62386525D01*
X142946525Y-62593368D01*
X142830000Y-62767760D01*
X142713475Y-62593368D01*
X142506632Y-62386525D01*
X142263411Y-62224010D01*
X141993158Y-62112068D01*
X141706260Y-62055000D01*
X141413740Y-62055000D01*
X141126842Y-62112068D01*
X140856589Y-62224010D01*
X140613368Y-62386525D01*
X140406525Y-62593368D01*
X140244010Y-62836589D01*
X140132068Y-63106842D01*
X140075000Y-63393740D01*
X138785000Y-63393740D01*
X138785000Y-60825157D01*
X142620560Y-56989597D01*
X142848816Y-57035000D01*
X143151184Y-57035000D01*
X143447743Y-56976011D01*
X143727095Y-56860299D01*
X143978505Y-56692312D01*
X144192312Y-56478505D01*
X144250000Y-56392169D01*
X144307688Y-56478505D01*
X144521495Y-56692312D01*
X144772905Y-56860299D01*
X145052257Y-56976011D01*
X145348816Y-57035000D01*
X145651184Y-57035000D01*
X145713431Y-57022618D01*
X145715000Y-57038553D01*
X145715000Y-57538561D01*
X145715001Y-57538571D01*
X145714992Y-93174851D01*
X144424843Y-94465000D01*
X144398061Y-94465000D01*
X144198102Y-94504774D01*
X144009744Y-94582795D01*
X143840226Y-94696063D01*
X143696063Y-94840226D01*
X143582795Y-95009744D01*
X143504774Y-95198102D01*
X143465000Y-95398061D01*
X143465000Y-95601939D01*
X143504774Y-95801898D01*
X143582795Y-95990256D01*
X143696063Y-96159774D01*
X143840226Y-96303937D01*
X144009744Y-96417205D01*
X144198102Y-96495226D01*
X144398061Y-96535000D01*
X144601939Y-96535000D01*
X144801898Y-96495226D01*
X144990256Y-96417205D01*
X145159774Y-96303937D01*
X145303937Y-96159774D01*
X145417205Y-95990256D01*
X145495226Y-95801898D01*
X145535000Y-95601939D01*
X145535000Y-95575157D01*
X145972170Y-95137987D01*
X146004774Y-95301898D01*
X146082795Y-95490256D01*
X146196063Y-95659774D01*
X146340226Y-95803937D01*
X146509744Y-95917205D01*
X146698102Y-95995226D01*
X146898061Y-96035000D01*
X147101939Y-96035000D01*
X147301898Y-95995226D01*
X147490256Y-95917205D01*
X147659774Y-95803937D01*
X147803937Y-95659774D01*
X147917205Y-95490256D01*
X147995226Y-95301898D01*
X148035000Y-95101939D01*
X148035000Y-94898061D01*
X147995226Y-94698102D01*
X147917205Y-94509744D01*
X147803937Y-94340226D01*
X147785000Y-94321289D01*
X147785000Y-81398061D01*
X147965000Y-81398061D01*
X147965000Y-81601939D01*
X148004774Y-81801898D01*
X148082795Y-81990256D01*
X148196063Y-82159774D01*
X148215001Y-82178712D01*
X148215000Y-87321289D01*
X148196063Y-87340226D01*
X148082795Y-87509744D01*
X148004774Y-87698102D01*
X147965000Y-87898061D01*
X147965000Y-88101939D01*
X148004774Y-88301898D01*
X148082795Y-88490256D01*
X148196063Y-88659774D01*
X148215001Y-88678712D01*
X148215000Y-97821289D01*
X148196063Y-97840226D01*
X148082795Y-98009744D01*
X148004774Y-98198102D01*
X147965000Y-98398061D01*
X147965000Y-98601939D01*
X148004774Y-98801898D01*
X148082795Y-98990256D01*
X148196063Y-99159774D01*
X148340226Y-99303937D01*
X148509744Y-99417205D01*
X148698102Y-99495226D01*
X148898061Y-99535000D01*
X149101939Y-99535000D01*
X149301898Y-99495226D01*
X149490256Y-99417205D01*
X149659774Y-99303937D01*
X149803937Y-99159774D01*
X149917205Y-98990256D01*
X149995226Y-98801898D01*
X150035000Y-98601939D01*
X150035000Y-98398061D01*
X149995226Y-98198102D01*
X149917205Y-98009744D01*
X149803937Y-97840226D01*
X149785000Y-97821289D01*
X149785000Y-88678711D01*
X149803937Y-88659774D01*
X149917205Y-88490256D01*
X149995226Y-88301898D01*
X150035000Y-88101939D01*
X150035000Y-87898061D01*
X149995226Y-87698102D01*
X149917205Y-87509744D01*
X149803937Y-87340226D01*
X149785000Y-87321289D01*
X149785000Y-82178711D01*
X149803937Y-82159774D01*
X149917205Y-81990256D01*
X149995226Y-81801898D01*
X150035000Y-81601939D01*
X150035000Y-81398061D01*
X149995226Y-81198102D01*
X149917205Y-81009744D01*
X149803937Y-80840226D01*
X149659774Y-80696063D01*
X149490256Y-80582795D01*
X149301898Y-80504774D01*
X149101939Y-80465000D01*
X148898061Y-80465000D01*
X148698102Y-80504774D01*
X148509744Y-80582795D01*
X148340226Y-80696063D01*
X148196063Y-80840226D01*
X148082795Y-81009744D01*
X148004774Y-81198102D01*
X147965000Y-81398061D01*
X147785000Y-81398061D01*
X147785000Y-71325157D01*
X151275158Y-67835000D01*
X151301939Y-67835000D01*
X151501898Y-67795226D01*
X151690256Y-67717205D01*
X151859774Y-67603937D01*
X152003937Y-67459774D01*
X152117205Y-67290256D01*
X152195226Y-67101898D01*
X152235000Y-66901939D01*
X152235000Y-66698061D01*
X152195226Y-66498102D01*
X152117205Y-66309744D01*
X152003937Y-66140226D01*
X151859774Y-65996063D01*
X151690256Y-65882795D01*
X151501898Y-65804774D01*
X151301939Y-65765000D01*
X151098061Y-65765000D01*
X150898102Y-65804774D01*
X150709744Y-65882795D01*
X150540226Y-65996063D01*
X150396063Y-66140226D01*
X150282795Y-66309744D01*
X150204774Y-66498102D01*
X150165000Y-66698061D01*
X150165000Y-66724842D01*
X147284997Y-69604846D01*
X147285000Y-57461440D01*
X147285000Y-57325157D01*
X147620560Y-56989597D01*
X147848816Y-57035000D01*
X148151184Y-57035000D01*
X148447743Y-56976011D01*
X148727095Y-56860299D01*
X148978505Y-56692312D01*
X149192312Y-56478505D01*
X149360299Y-56227095D01*
X149476011Y-55947743D01*
X149535000Y-55651184D01*
X149535000Y-55348816D01*
X149476011Y-55052257D01*
X149360299Y-54772905D01*
X149192312Y-54521495D01*
X148978505Y-54307688D01*
X148727095Y-54139701D01*
X148447743Y-54023989D01*
X148151184Y-53965000D01*
X147848816Y-53965000D01*
X147552257Y-54023989D01*
X147272905Y-54139701D01*
X147021495Y-54307688D01*
X146807688Y-54521495D01*
X146750000Y-54607831D01*
X146692312Y-54521495D01*
X146478505Y-54307688D01*
X146227095Y-54139701D01*
X145947743Y-54023989D01*
X145651184Y-53965000D01*
X145348816Y-53965000D01*
X145052257Y-54023989D01*
X144772905Y-54139701D01*
X144521495Y-54307688D01*
X144307688Y-54521495D01*
X144250000Y-54607831D01*
X144192312Y-54521495D01*
X143978505Y-54307688D01*
X143727095Y-54139701D01*
X143447743Y-54023989D01*
X143151184Y-53965000D01*
X142848816Y-53965000D01*
X142552257Y-54023989D01*
X142272905Y-54139701D01*
X142021495Y-54307688D01*
X141807688Y-54521495D01*
X141639701Y-54772905D01*
X141523989Y-55052257D01*
X141465000Y-55348816D01*
X141465000Y-55651184D01*
X141510403Y-55879440D01*
X137472185Y-59917658D01*
X137442237Y-59942236D01*
X137417659Y-59972184D01*
X137417655Y-59972188D01*
X137384690Y-60012356D01*
X137344139Y-60061767D01*
X137305177Y-60134660D01*
X137271246Y-60198141D01*
X137226359Y-60346114D01*
X137211203Y-60500000D01*
X136735000Y-60500000D01*
X136735000Y-48240475D01*
X138465000Y-48240475D01*
X138465000Y-48759525D01*
X138566261Y-49268601D01*
X138764893Y-49748141D01*
X139053262Y-50179715D01*
X139420285Y-50546738D01*
X139851859Y-50835107D01*
X140331399Y-51033739D01*
X140840475Y-51135000D01*
X141359525Y-51135000D01*
X141868601Y-51033739D01*
X142348141Y-50835107D01*
X142779715Y-50546738D01*
X143146738Y-50179715D01*
X143435107Y-49748141D01*
X143633739Y-49268601D01*
X143735000Y-48759525D01*
X143735000Y-48240475D01*
X147265000Y-48240475D01*
X147265000Y-48759525D01*
X147366261Y-49268601D01*
X147564893Y-49748141D01*
X147853262Y-50179715D01*
X148220285Y-50546738D01*
X148651859Y-50835107D01*
X149131399Y-51033739D01*
X149640475Y-51135000D01*
X150159525Y-51135000D01*
X150668601Y-51033739D01*
X151148141Y-50835107D01*
X151579715Y-50546738D01*
X151946738Y-50179715D01*
X152235107Y-49748141D01*
X152433739Y-49268601D01*
X152535000Y-48759525D01*
X152535000Y-48240475D01*
X152433739Y-47731399D01*
X152235107Y-47251859D01*
X151946738Y-46820285D01*
X151579715Y-46453262D01*
X151148141Y-46164893D01*
X150668601Y-45966261D01*
X150159525Y-45865000D01*
X149640475Y-45865000D01*
X149131399Y-45966261D01*
X148651859Y-46164893D01*
X148220285Y-46453262D01*
X147853262Y-46820285D01*
X147564893Y-47251859D01*
X147366261Y-47731399D01*
X147265000Y-48240475D01*
X143735000Y-48240475D01*
X143633739Y-47731399D01*
X143435107Y-47251859D01*
X143146738Y-46820285D01*
X142779715Y-46453262D01*
X142348141Y-46164893D01*
X141868601Y-45966261D01*
X141359525Y-45865000D01*
X140840475Y-45865000D01*
X140331399Y-45966261D01*
X139851859Y-46164893D01*
X139420285Y-46453262D01*
X139053262Y-46820285D01*
X138764893Y-47251859D01*
X138566261Y-47731399D01*
X138465000Y-48240475D01*
X136735000Y-48240475D01*
X136735000Y-37735000D01*
X154065000Y-37735000D01*
X154065001Y-146265000D01*
M02*
